{
.formatVersion = 3;
date = "2010-05-14 22:36:00 +0000";
familyName = AlmendraSC;
fontMaster = (
{
customParameters = (
{
name = typoAscender;
value = 939;
},
{
name = typoDescender;
value = -251;
},
{
name = typoLineGap;
value = 0;
},
{
name = winAscent;
value = 939;
},
{
name = winDescent;
value = 251;
},
{
name = hheaAscender;
value = 939;
},
{
name = hheaDescender;
value = -251;
},
{
name = hheaLineGap;
value = 0;
}
);
id = "36f52ca2-ef18-4734-b79f-232be43107ca";
metricValues = (
{
},
{
pos = -50;
},
{
pos = 50;
},
{
pos = 800;
},
{
pos = -200;
},
{
pos = 650;
},
{
pos = 600;
},
{
},
{
pos = 75;
},
{
pos = 650;
},
{
pos = 600;
},
{
},
{
pos = 350;
},
{
pos = 50;
},
{
pos = 318;
}
);
name = Regular;
visible = 1;
}
);
glyphs = (
{
category = Letter;
glyphname = exclam;
layers = (
{
layerId = "36f52ca2-ef18-4734-b79f-232be43107ca";
name = Fore;
shapes = (
{
closed = 1;
nodes = (
(153,33,o),
(135.5,13,q),
(118,-7,o),
(106,-15,q),
(94,-7,o),
(76.5,13,q),
(59,33,o),
(52,46,q),
(58,58,o),
(75,73.5,q),
(92,89,o),
(106,96,q),
(119,88,o),
(136,72.5,q),
(153,57,o),
(160,46,q)
);
},
{
closed = 1;
nodes = (
(84,685,o),
(108,690.5,q),
(132,696,o),
(139.5,696,q),
(147,696,o),
(149,696,q),
(160,686,o),
(181,656,q),
(134,489,o),
(119,182,q),
(93,180,l),
(72,679,l)
);
}
);
width = 226;
}
);
unicode = 33;
},
{
category = Letter;
glyphname = quotedbl;
layers = (
{
layerId = "36f52ca2-ef18-4734-b79f-232be43107ca";
name = Fore;
shapes = (
{
closed = 1;
nodes = (
(75,655,o),
(99,660.5,q),
(123,666,o),
(130.5,666,q),
(138,666,o),
(140,666,q),
(152,653,l),
(121,573,o),
(106,434,q),
(76,432,l),
(63,649,l)
);
},
{
closed = 1;
nodes = (
(210,655,o),
(234,660.5,q),
(258,666,o),
(265.5,666,q),
(273,666,o),
(275,666,q),
(287,653,l),
(256,573,o),
(241,434,q),
(211,432,l),
(198,649,l)
);
}
);
width = 315;
}
);
unicode = 34;
},
{
category = Letter;
glyphname = numbersign;
layers = (
{
layerId = "36f52ca2-ef18-4734-b79f-232be43107ca";
name = Fore;
shapes = (
{
closed = 1;
nodes = (
(447,370,o),
(471,370,q),
(495,370,o),
(503,370,q),
(510,364,l),
(500,316,l),
(373,319,l),
(358,188,l),
(422,187,o),
(445.5,187,q),
(469,187,o),
(476,187,q),
(483,182,l),
(473,133,l),
(352,136,l),
(325,-92,l),
(320,-92,l),
(296,-87,o),
(279,-71,q),
(297,28,o),
(310,137,q),
(202,140,l),
(175,-92,l),
(170,-92,l),
(146,-87,o),
(129,-71,q),
(147,28,o),
(160,137,q),
(160,141,l),
(48,144,l),
(40,151,l),
(50,203,l),
(96,199,l),
(114,197,o),
(167,195,q),
(183,324,l),
(75,327,l),
(67,333,l),
(77,386,l),
(122,382,l),
(138,380,o),
(189,378,q),
(215,587,l),
(234,587,o),
(259,592,q),
(263,589,l),
(242,477,o),
(230,376,q),
(263,374,o),
(339,372,q),
(365,587,l),
(384,587,o),
(409,592,q),
(413,589,l),
(392,476,o),
(380,372,q),
(380,371,l)
);
},
{
closed = 1;
nodes = (
(240,191,o),
(316,189,q),
(332,320,l),
(224,323,l),
(208,193,l)
);
}
);
width = 550;
}
);
unicode = 35;
},
{
category = Letter;
glyphname = dollar;
layers = (
{
layerId = "36f52ca2-ef18-4734-b79f-232be43107ca";
name = Fore;
shapes = (
{
closed = 1;
nodes = (
(93,385,o),
(134.5,433,q),
(176,481,o),
(236,511,q),
(239,588,l),
(255,590,o),
(266,594,q),
(270,591,l),
(264,556,o),
(263,523,q),
(339,523,o),
(402,507,q),
(402,493,l),
(365,447,o),
(359,380,q),
(337,380,l),
(337,420,o),
(334,443,q),
(296,457,o),
(260,458,q),
(254,311,l),
(356,252,o),
(378,220,q),
(388,205,o),
(388,189,q),
(388,137,o),
(344.5,84,q),
(301,31,o),
(234,-2,q),
(233,-92,l),
(228,-92,l),
(211,-87,o),
(201,-77,q),
(206,-15,l),
(127,-15,o),
(55,11,q),
(55,24,l),
(92,70,o),
(98,136,q),
(120,136,l),
(120,97,o),
(122,75,q),
(163,53,o),
(209,50,q),
(218,224,l),
(179,247,o),
(156.5,262,q),
(134,277,o),
(113.5,299.5,q),
(93,322,o),
(93,342,q)
);
},
{
closed = 1;
nodes = (
(328,159,o),
(243,209,q),
(236,50,l),
(275,54,o),
(301.5,73.5,q),
(328,93,o),
(328,132,q)
);
},
{
closed = 1;
nodes = (
(153,373,o),
(229,326,q),
(234,457,l),
(153,448,o),
(153,399,q)
);
}
);
width = 450;
}
);
unicode = 36;
},
{
category = Letter;
glyphname = percent;
layers = (
{
layerId = "36f52ca2-ef18-4734-b79f-232be43107ca";
name = Fore;
shapes = (
{
closed = 1;
nodes = (
(200,570,o),
(292,555,q),
(384,540,o),
(450,540,q),
(516,540,o),
(539,578,q),
(545,588,l),
(583,590,o),
(610,598,q),
(613,595,l),
(545,498,o),
(468,378,q),
(163,-100,l),
(158,-100,l),
(132,-88,o),
(119,-68,q),
(220,69,o),
(241,102,q),
(416,376,l),
(464,448,o),
(510,527,q),
(506,528,l),
(482,503,o),
(430,503,q),
(378,503,o),
(260,539,q),
(257,536,l),
(304,492,o),
(319,408,q),
(305,320,o),
(262,273.5,q),
(219,227,o),
(174.5,227,q),
(130,227,o),
(89,269.5,q),
(48,312,o),
(34,389,q),
(48,477,o),
(92,523.5,q),
(136,570,o),
(178,570,q)
);
},
{
closed = 1;
nodes = (
(527,328,o),
(571.5,328,q),
(616,328,o),
(656,285.5,q),
(696,243,o),
(710,166,q),
(696,78,o),
(653,31.5,q),
(610,-15,o),
(565.5,-15,q),
(521,-15,o),
(480,27.5,q),
(439,70,o),
(425,147,q),
(439,235,o),
(483,281.5,q)
);
},
{
closed = 1;
nodes = (
(249,445,o),
(230,486.5,q),
(211,528,o),
(178,540,q),
(146,528,o),
(126,486,q),
(106,444,o),
(106,399,q),
(106,354,o),
(126,312,q),
(146,270,o),
(178,258,q),
(211,270,o),
(230,311.5,q),
(249,353,o),
(249,399,q)
);
},
{
closed = 1;
nodes = (
(640,203,o),
(621,244.5,q),
(602,286,o),
(569,298,q),
(537,286,o),
(517,244,q),
(497,202,o),
(497,157,q),
(497,112,o),
(517,70,q),
(537,28,o),
(569,16,q),
(602,28,o),
(621,69.5,q),
(640,111,o),
(640,157,q)
);
}
);
width = 744;
}
);
unicode = 37;
},
{
category = Letter;
glyphname = ampersand;
layers = (
{
layerId = "36f52ca2-ef18-4734-b79f-232be43107ca";
name = Fore;
shapes = (
{
closed = 1;
nodes = (
(346,594,o),
(280,594,q),
(214,594,o),
(173,560,q),
(172,546,o),
(172,534,q),
(172,460,o),
(210.5,418,q),
(249,376,o),
(343,376,q),
(483,376,o),
(596,408,q),
(601,403,l),
(591,371,o),
(588,329,q),
(585,325,l),
(539,331,o),
(482,333,q),
(482,183,l),
(482,122,o),
(424.5,64.5,q),
(367,7,o),
(299,-15,q),
(192,-15,o),
(121,37,q),
(50,89,o),
(50,185,q),
(50,254,o),
(108,300,q),
(166,346,o),
(240,346,q),
(240,350,l),
(172,354,o),
(126.5,388,q),
(81,422,o),
(81,482,q),
(117,546,o),
(176.5,597,q),
(236,648,o),
(304,666,q),
(375,666,o),
(444,647,q),
(460,655,o),
(485,678,q),
(506,664,l),
(440,584,o),
(425,473,q),
(399,473,l),
(399,528,o),
(394,566,q)
);
},
{
closed = 1;
nodes = (
(414,233,o),
(400,333,q),
(326,333,l),
(247,333,o),
(195.5,302.5,q),
(144,272,o),
(144,202.5,q),
(144,133,o),
(192,94.5,q),
(240,56,o),
(305,56,q),
(370,56,o),
(407,80,q),
(414,94,o),
(414,126,q)
);
}
);
width = 602;
}
);
unicode = 38;
},
{
category = Letter;
glyphname = quotesingle;
layers = (
{
layerId = "36f52ca2-ef18-4734-b79f-232be43107ca";
name = Fore;
shapes = (
{
closed = 1;
nodes = (
(75,655,o),
(99,660.5,q),
(123,666,o),
(130.5,666,q),
(138,666,o),
(140,666,q),
(152,653,l),
(121,573,o),
(106,434,q),
(76,432,l),
(63,649,l)
);
}
);
width = 180;
}
);
unicode = 39;
},
{
category = Letter;
glyphname = parenleft;
layers = (
{
layerId = "36f52ca2-ef18-4734-b79f-232be43107ca";
name = Fore;
shapes = (
{
closed = 1;
nodes = (
(48,122,o),
(48,259.5,q),
(48,397,o),
(101,513.5,q),
(154,630,o),
(250,711,q),
(260,701,l),
(120,510,o),
(120,262,q),
(120,135,o),
(156,11.5,q),
(192,-112,o),
(260,-205,q),
(250,-215,l),
(156,-135,o),
(102,-6.5,q)
);
}
);
width = 297;
}
);
unicode = 40;
},
{
category = Letter;
glyphname = parenright;
layers = (
{
layerId = "36f52ca2-ef18-4734-b79f-232be43107ca";
name = Fore;
shapes = (
{
closed = 1;
nodes = (
(249,397,o),
(249,259.5,q),
(249,122,o),
(195,-6.5,q),
(141,-135,o),
(47,-215,q),
(37,-205,l),
(105,-112,o),
(141,11.5,q),
(177,135,o),
(177,262,q),
(177,510,o),
(37,701,q),
(47,711,l),
(143,630,o),
(196,513.5,q)
);
}
);
width = 297;
}
);
unicode = 41;
},
{
category = Letter;
glyphname = asterisk;
layers = (
{
layerId = "36f52ca2-ef18-4734-b79f-232be43107ca";
name = Fore;
shapes = (
{
closed = 1;
nodes = (
(229,678,l),
(231,676,l),
(202,629,o),
(195,564,q),
(247,603,o),
(273,651,q),
(276,651,l),
(278,647,o),
(281,636.5,q),
(284,626,o),
(284,625,q),
(311,630,o),
(318.5,630,q),
(326,630,o),
(327,629,q),
(327,626,o),
(302,594,q),
(310,586,l),
(318,578,o),
(320,574,q),
(319,572,l),
(315,572,o),
(312,572,q),
(263,572,o),
(203,547,q),
(259,522,o),
(311,522,q),
(315,522,o),
(319,522,q),
(320,520,l),
(318,516,o),
(310,508,q),
(302,500,l),
(303,498,o),
(310,490,q),
(327,471,o),
(327,465,q),
(326,464,o),
(318.5,464,q),
(311,464,o),
(284,469,q),
(284,468,o),
(281,457.5,q),
(278,447,o),
(276,443,q),
(273,443,l),
(246,492,o),
(195,530,q),
(202,465,o),
(231,418,q),
(229,416,l),
(203,422,l),
(190,386,o),
(185,383,q),
(180,385,o),
(167,422,q),
(141,416,l),
(139,418,l),
(167,465,o),
(175,530,q),
(124,492,o),
(97,443,q),
(94,443,l),
(92,447,o),
(89,457.5,q),
(86,468,o),
(86,469,q),
(59,464,o),
(51.5,464,q),
(44,464,o),
(43,465,q),
(43,468,o),
(68,500,q),
(60,508,l),
(52,516,o),
(50,520,q),
(51,522,l),
(55,522,o),
(59,522,q),
(110,522,o),
(166,547,q),
(106,572,o),
(58,572,q),
(55,572,o),
(51,572,q),
(50,574,l),
(52,578,o),
(60,586,q),
(68,594,l),
(67,596,o),
(60,604,q),
(43,623,o),
(43,629,q),
(44,630,o),
(51.5,630,q),
(59,630,o),
(86,625,q),
(86,626,o),
(89,636.5,q),
(92,647,o),
(94,651,q),
(97,651,l),
(123,603,o),
(175,564,q),
(166,629,o),
(139,676,q),
(141,678,l),
(167,672,l),
(180,708,o),
(185,711,q),
(190,709,o),
(203,672,q)
);
}
);
width = 371;
}
);
unicode = 42;
},
{
category = Letter;
glyphname = plus;
layers = (
{
layerId = "36f52ca2-ef18-4734-b79f-232be43107ca";
name = Fore;
shapes = (
{
closed = 1;
nodes = (
(299,95,o),
(308,0,q),
(262,-9,l),
(252,-2,l),
(252,222,l),
(66,222,l),
(58,229,l),
(67,280,l),
(189,274,o),
(252,273,q),
(252,476,l),
(299,485,l),
(304,479,l),
(299,347,o),
(299,273,q),
(299,272,l),
(336,271,o),
(396,271,q),
(456,271,o),
(495,274,q),
(501,268,l),
(492,222,l),
(299,222,l)
);
}
);
width = 550;
}
);
unicode = 43;
},
{
category = Letter;
glyphname = comma;
layers = (
{
layerId = "36f52ca2-ef18-4734-b79f-232be43107ca";
name = Fore;
shapes = (
{
closed = 1;
nodes = (
(160,-4,o),
(126,-56,q),
(92,-108,o),
(46,-139,q),
(36,-129,l),
(57,-104,o),
(74,-67.5,q),
(91,-31,o),
(92,-4,q),
(66,20,o),
(52,46,q),
(58,58,o),
(75,73.5,q),
(92,89,o),
(106,96,q),
(119,88,o),
(136,72.5,q),
(153,57,o),
(160,46,q)
);
}
);
width = 213;
}
);
unicode = 44;
},
{
category = Letter;
glyphname = hyphen;
layers = (
{
layerId = "36f52ca2-ef18-4734-b79f-232be43107ca";
name = Fore;
shapes = (
{
closed = 1;
nodes = (
(168,288,o),
(252,298,q),
(260,293,l),
(254,251,l),
(37,236,l),
(28,242,l),
(34,288,l),
(80,288,l)
);
}
);
width = 286;
}
);
unicode = 45;
},
{
category = Letter;
glyphname = period;
layers = (
{
layerId = "36f52ca2-ef18-4734-b79f-232be43107ca";
name = Fore;
shapes = (
{
closed = 1;
nodes = (
(153,33,o),
(135.5,13,q),
(118,-7,o),
(106,-15,q),
(94,-7,o),
(76.5,13,q),
(59,33,o),
(52,46,q),
(58,58,o),
(75,73.5,q),
(92,89,o),
(106,96,q),
(119,88,o),
(136,72.5,q),
(153,57,o),
(160,46,q)
);
}
);
width = 212;
}
);
unicode = 46;
},
{
category = Letter;
glyphname = slash;
layers = (
{
layerId = "36f52ca2-ef18-4734-b79f-232be43107ca";
name = Fore;
shapes = (
{
closed = 1;
nodes = (
(56,-41,l),
(33,-31,o),
(16,-11,q),
(61,89,o),
(95,178,q),
(209,477,l),
(249,581,o),
(287,698,q),
(315,700,o),
(342,706,q),
(346,703,l),
(320,644,o),
(263,491,q),
(61,-41,l)
);
}
);
width = 354;
}
);
unicode = 47;
},
{
category = Letter;
glyphname = zero;
layers = (
{
layerId = "36f52ca2-ef18-4734-b79f-232be43107ca";
name = Fore;
shapes = (
{
closed = 1;
nodes = (
(177,536,o),
(242.5,536,q),
(308,536,o),
(368,465.5,q),
(428,395,o),
(456,275,q),
(430,137,o),
(364.5,61,q),
(299,-15,o),
(233.5,-15,q),
(168,-15,o),
(108,54.5,q),
(48,124,o),
(20,244,q),
(46,382,o),
(111.5,459,q)
);
},
{
closed = 1;
nodes = (
(116,180,o),
(148.5,110,q),
(181,40,o),
(238,19,q),
(295,40,o),
(327.5,110,q),
(360,180,o),
(360,260,q),
(360,340,o),
(327.5,410,q),
(295,480,o),
(238,501,q),
(181,480,o),
(148.5,410,q),
(116,340,o),
(116,260,q)
);
}
);
width = 475;
}
);
unicode = 48;
},
{
category = Letter;
glyphname = one;
layers = (
{
layerId = "36f52ca2-ef18-4734-b79f-232be43107ca";
name = Fore;
shapes = (
{
closed = 1;
nodes = (
(213,275,l),
(213,378,o),
(210,438,q),
(134,438,l),
(132,440,l),
(132,453,o),
(135,459,q),
(213,477,o),
(269,533,q),
(281,536,o),
(297,536,q),
(301,534,l),
(287,452,o),
(287,275,q),
(287,220,l),
(287,86,o),
(294,33,q),
(323,26,o),
(353,13,q),
(350,-6,l),
(299,0,o),
(249,0,q),
(199,0,o),
(143,-8,q),
(141,11,l),
(176,24,o),
(204,30,q),
(213,104,o),
(213,220,q)
);
}
);
width = 475;
}
);
unicode = 49;
},
{
category = Letter;
glyphname = two;
layers = (
{
layerId = "36f52ca2-ef18-4734-b79f-232be43107ca";
name = Fore;
shapes = (
{
closed = 1;
nodes = (
(175,87,o),
(223,87,q),
(271,87,o),
(371,74,q),
(381,96,o),
(394,132,q),
(415,125,l),
(404,86,o),
(404,54,q),
(404,22,o),
(411,-7,q),
(399,-15,l),
(227,18,o),
(90,18,q),
(86,18,o),
(82,18,q),
(66,-1,o),
(56,-16,q),
(36,-7,l),
(55,40,o),
(100.5,96.5,q),
(146,153,o),
(187.5,195,q),
(229,237,o),
(262,290.5,q),
(295,344,o),
(295,390,q),
(295,474,o),
(201,474,q),
(166,474,o),
(135,460,q),
(128,448,o),
(128,428,q),
(128,408,o),
(138,399,q),
(137,392,l),
(111,376,o),
(89,352,q),
(77,353,o),
(70,361.5,q),
(63,370,o),
(63,381,q),
(63,427,o),
(118.5,473.5,q),
(174,520,o),
(230,536,q),
(320,536,o),
(357,494,q),
(394,452,o),
(394,357,q),
(313,231,o),
(132,83,q),
(134,76,l),
(149,84,o),
(160,87,q)
);
}
);
width = 475;
}
);
unicode = 50;
},
{
category = Letter;
glyphname = three;
layers = (
{
layerId = "36f52ca2-ef18-4734-b79f-232be43107ca";
name = Fore;
shapes = (
{
closed = 1;
nodes = (
(104,110,o),
(106,88,q),
(130,71,o),
(169.5,59,q),
(209,47,o),
(245,47,q),
(281,47,o),
(301,71,q),
(314,101,o),
(314,146,q),
(314,212,o),
(276.5,247.5,q),
(239,283,o),
(172,283,q),
(168,289,l),
(303,448,l),
(301,452,l),
(286,445,o),
(274,442,q),
(216,442,o),
(127,449,q),
(118,427,o),
(107,388,q),
(86,395,l),
(93,435,o),
(93,464.5,q),
(93,494,o),
(83,527,q),
(94,536,l),
(214,509,o),
(374,509,q),
(399,525,o),
(410,536,q),
(427,521,l),
(388,485,o),
(250,342,q),
(402,317,o),
(402,156,q),
(381,104,o),
(327.5,54,q),
(274,4,o),
(220,-15,q),
(179,-15,o),
(127,-4,q),
(75,7,o),
(39,24,q),
(39,37,l),
(77,80,o),
(82,149,q),
(104,149,l)
);
}
);
width = 475;
}
);
unicode = 51;
},
{
category = Letter;
glyphname = four;
layers = (
{
layerId = "36f52ca2-ef18-4734-b79f-232be43107ca";
name = Fore;
shapes = (
{
closed = 1;
nodes = (
(330,455,o),
(330,339.5,q),
(330,224,o),
(331,189,q),
(369,189,o),
(384.5,196.5,q),
(400,204,o),
(412,233,q),
(428,230,l),
(419,185,o),
(419,138,q),
(415,136,l),
(380,139,o),
(332,139,q),
(332,92,o),
(340,33,q),
(361,22,o),
(391,15,q),
(387,-5,l),
(330,0,o),
(283.5,0,q),
(237,0,o),
(175,-12,q),
(172,8,l),
(206,23,o),
(251,34,q),
(258,91,o),
(258,139,q),
(17,139,l),
(13,153,l),
(99,251,o),
(155,330,q),
(211,409,o),
(262,511,q),
(304,521,o),
(335,536,q),
(343,532,l)
);
},
{
closed = 1;
nodes = (
(203,318,o),
(118,200,q),
(182,193,o),
(258,192,q),
(261,430,l),
(254,430,l)
);
}
);
width = 475;
}
);
unicode = 52;
},
{
category = Letter;
glyphname = five;
layers = (
{
layerId = "36f52ca2-ef18-4734-b79f-232be43107ca";
name = Fore;
shapes = (
{
closed = 1;
nodes = (
(115,110,o),
(117,88,q),
(141,71,o),
(180.5,59,q),
(220,47,o),
(256,47,q),
(292,47,o),
(312,71,q),
(325,102,o),
(325,146,q),
(325,212,o),
(287.5,247.5,q),
(250,283,o),
(184,283,q),
(145,283,o),
(114,266,q),
(102,275,l),
(112,426,l),
(114,453,o),
(114,481,q),
(114,509,o),
(110,533,q),
(131,537,l),
(136,519,o),
(140,510,q),
(268,514,o),
(369,536,q),
(380,527,l),
(368,492,o),
(368,458,q),
(368,424,o),
(373,394,q),
(351,389,l),
(342,426,o),
(333,449,q),
(263,442,o),
(180,442,q),
(157,452,l),
(153,447,l),
(142,316,l),
(181,338,o),
(215,346,q),
(310,344,o),
(361.5,296,q),
(413,248,o),
(413,156,q),
(392,104,o),
(338.5,54,q),
(285,4,o),
(231,-15,q),
(190,-15,o),
(138,-4,q),
(86,7,o),
(50,24,q),
(50,37,l),
(88,80,o),
(93,149,q),
(115,149,l)
);
}
);
width = 475;
}
);
unicode = 53;
},
{
category = Letter;
glyphname = six;
layers = (
{
layerId = "36f52ca2-ef18-4734-b79f-232be43107ca";
name = Fore;
shapes = (
{
closed = 1;
nodes = (
(165,130,o),
(190.5,88.5,q),
(216,47,o),
(268,47,q),
(320,47,o),
(340,71,q),
(355,109,o),
(355,146,q),
(355,207,o),
(320.5,238,q),
(286,269,o),
(224,269,q),
(209,269,o),
(194,266,q),
(194,273,l),
(226,296,o),
(251,324,q),
(341,324,o),
(392,282,q),
(443,240,o),
(443,156,q),
(421,105,o),
(362,52.5,q),
(303,0,o),
(250,-15,q),
(166,-15,o),
(121,32,q),
(76,79,o),
(76,163,q),
(76,280,o),
(155.5,382,q),
(235,484,o),
(349,536,q),
(362,518,l),
(274,455,o),
(219.5,372,q),
(165,289,o),
(165,196,q)
);
}
);
width = 475;
}
);
unicode = 54;
},
{
category = Letter;
glyphname = seven;
layers = (
{
layerId = "36f52ca2-ef18-4734-b79f-232be43107ca";
name = Fore;
shapes = (
{
closed = 1;
nodes = (
(256,0,o),
(205.5,0,q),
(155,0,o),
(102,-11,q),
(97,9,l),
(129,19,o),
(147,30,q),
(154,104,o),
(185.5,174.5,q),
(217,245,o),
(284,351,q),
(348,451,l),
(345,455,l),
(331,449,o),
(318,445,q),
(193,445,o),
(141,450,q),
(132,427,o),
(123,390,q),
(101,395,l),
(106,425,o),
(106,458.5,q),
(106,492,o),
(94,527,q),
(105,536,l),
(207,515,o),
(394,509,q),
(403,520,o),
(412,532,q),
(431,521,l),
(363,420,o),
(319,328,q),
(237,157,o),
(236,36,q),
(284,27,o),
(316,14,q),
(314,-6,l)
);
}
);
width = 475;
}
);
unicode = 55;
},
{
category = Letter;
glyphname = eight;
layers = (
{
layerId = "36f52ca2-ef18-4734-b79f-232be43107ca";
name = Fore;
shapes = (
{
closed = 1;
nodes = (
(401,375,o),
(292,298,q),
(391,247,o),
(412,201,q),
(422,179,o),
(422,152,q),
(401,97,o),
(347,51,q),
(293,5,o),
(233,-15,q),
(164,-15,o),
(113,20.5,q),
(62,56,o),
(62,119.5,q),
(62,183,o),
(179,263,q),
(84,322,o),
(84,405,q),
(107,442,o),
(163.5,483.5,q),
(220,525,o),
(262,536,q),
(320,536,o),
(360.5,510.5,q),
(401,485,o),
(401,436,q)
);
},
{
closed = 1;
nodes = (
(334,95,o),
(334,117.5,q),
(334,140,o),
(327.5,154.5,q),
(321,169,o),
(304.5,182.5,q),
(288,196,o),
(275.5,204,q),
(263,212,o),
(236,227,q),
(209,242,o),
(198,249,q),
(165,224,o),
(150.5,200.5,q),
(136,177,o),
(136,137.5,q),
(136,98,o),
(171,72.5,q),
(206,47,o),
(253,47,q),
(300,47,o),
(322,71,q)
);
},
{
closed = 1;
nodes = (
(171,361,o),
(271,311,q),
(300,337,o),
(313.5,358.5,q),
(327,380,o),
(327,410,q),
(327,474,o),
(241,474,q),
(197,474,o),
(176,451,q),
(171,436,o),
(171,422,q)
);
}
);
width = 475;
}
);
unicode = 56;
},
{
category = Letter;
glyphname = nine;
layers = (
{
layerId = "36f52ca2-ef18-4734-b79f-232be43107ca";
name = Fore;
shapes = (
{
closed = 1;
nodes = (
(310,391,o),
(284.5,432.5,q),
(259,474,o),
(207,474,q),
(155,474,o),
(135,450,q),
(120,412,o),
(120,375,q),
(120,314,o),
(154,283,q),
(188,252,o),
(251,252,q),
(266,252,o),
(281,255,q),
(281,248,l),
(249,225,o),
(224,197,q),
(134,197,o),
(83,239,q),
(32,281,o),
(32,365,q),
(54,416,o),
(113,468.5,q),
(172,521,o),
(225,536,q),
(309,536,o),
(354,489,q),
(399,442,o),
(399,358,q),
(399,241,o),
(319.5,139,q),
(240,37,o),
(126,-15,q),
(113,3,l),
(201,66,o),
(255.5,149,q),
(310,232,o),
(310,325,q)
);
}
);
width = 475;
}
);
unicode = 57;
},
{
category = Letter;
glyphname = colon;
layers = (
{
layerId = "36f52ca2-ef18-4734-b79f-232be43107ca";
name = Fore;
shapes = (
{
closed = 1;
nodes = (
(153,33,o),
(135.5,13,q),
(118,-7,o),
(106,-15,q),
(94,-7,o),
(76.5,13,q),
(59,33,o),
(52,46,q),
(58,58,o),
(75,73.5,q),
(92,89,o),
(106,96,q),
(119,88,o),
(136,72.5,q),
(153,57,o),
(160,46,q)
);
},
{
closed = 1;
nodes = (
(153,422,o),
(135.5,402,q),
(118,382,o),
(106,374,q),
(94,382,o),
(76.5,402,q),
(59,422,o),
(52,435,q),
(58,447,o),
(75,462.5,q),
(92,478,o),
(106,485,q),
(119,477,o),
(136,461.5,q),
(153,446,o),
(160,435,q)
);
}
);
width = 212;
}
);
unicode = 58;
},
{
category = Letter;
glyphname = semicolon;
layers = (
{
layerId = "36f52ca2-ef18-4734-b79f-232be43107ca";
name = Fore;
shapes = (
{
closed = 1;
nodes = (
(160,-4,o),
(126,-56,q),
(92,-108,o),
(46,-139,q),
(36,-129,l),
(57,-104,o),
(74,-67.5,q),
(91,-31,o),
(92,-4,q),
(66,20,o),
(52,46,q),
(58,58,o),
(75,73.5,q),
(92,89,o),
(106,96,q),
(119,88,o),
(136,72.5,q),
(153,57,o),
(160,46,q)
);
},
{
closed = 1;
nodes = (
(153,422,o),
(135.5,402,q),
(118,382,o),
(106,374,q),
(94,382,o),
(76.5,402,q),
(59,422,o),
(52,435,q),
(58,447,o),
(75,462.5,q),
(92,478,o),
(106,485,q),
(119,477,o),
(136,461.5,q),
(153,446,o),
(160,435,q)
);
}
);
width = 212;
}
);
unicode = 59;
},
{
category = Letter;
glyphname = less;
layers = (
{
layerId = "36f52ca2-ef18-4734-b79f-232be43107ca";
name = Fore;
shapes = (
{
closed = 1;
nodes = (
(260,160,o),
(52,222,q),
(66,286,l),
(122,303,o),
(249,351,q),
(376,399,o),
(474,449,q),
(498,403,l),
(493,393,l),
(134,254,l),
(134,250,l),
(493,112,l),
(498,102,l),
(472,55,l)
);
}
);
width = 550;
}
);
unicode = 60;
},
{
category = Letter;
glyphname = equal;
layers = (
{
layerId = "36f52ca2-ef18-4734-b79f-232be43107ca";
name = Fore;
shapes = (
{
closed = 1;
nodes = (
(232,194,o),
(341.5,194,q),
(451,194,o),
(490,197,q),
(496,191,l),
(487,145,l),
(61,145,l),
(53,152,l),
(62,203,l)
);
},
{
closed = 1;
nodes = (
(232,348,o),
(341.5,348,q),
(451,348,o),
(490,351,q),
(496,345,l),
(487,299,l),
(61,299,l),
(53,306,l),
(62,357,l)
);
}
);
width = 550;
}
);
unicode = 61;
},
{
category = Letter;
glyphname = greater;
layers = (
{
layerId = "36f52ca2-ef18-4734-b79f-232be43107ca";
name = Fore;
shapes = (
{
closed = 1;
nodes = (
(290,160,o),
(78,55,q),
(52,102,l),
(57,112,l),
(416,250,l),
(416,254,l),
(57,393,l),
(52,403,l),
(76,449,l),
(174,399,o),
(301,351,q),
(428,303,o),
(484,286,q),
(498,222,l)
);
}
);
width = 550;
}
);
unicode = 62;
},
{
category = Letter;
glyphname = question;
layers = (
{
layerId = "36f52ca2-ef18-4734-b79f-232be43107ca";
name = Fore;
shapes = (
{
closed = 1;
nodes = (
(239,597,o),
(215,615.5,q),
(191,634,o),
(154,634,q),
(117,634,o),
(89,620,q),
(82,608,o),
(82,588,q),
(82,568,o),
(92,559,q),
(91,552,l),
(65,536,o),
(43,512,q),
(31,513,o),
(24,521.5,q),
(17,530,o),
(17,541,q),
(17,587,o),
(70.5,633.5,q),
(124,680,o),
(179,696,q),
(260,696,o),
(297.5,657,q),
(335,618,o),
(335,537,q),
(272,447,o),
(177,352,q),
(170,263,o),
(166,182,q),
(140,180,l),
(119,319,l),
(119,338,l),
(239,458,o),
(239,560,q)
);
},
{
closed = 1;
nodes = (
(198,36,o),
(180.5,16,q),
(163,-4,o),
(151,-12,q),
(139,-4,o),
(121.5,16,q),
(104,36,o),
(97,49,q),
(103,61,o),
(120,76.5,q),
(137,92,o),
(151,99,q),
(164,91,o),
(181,75.5,q),
(198,60,o),
(205,49,q)
);
}
);
width = 335;
}
);
unicode = 63;
},
{
category = Letter;
glyphname = at;
layers = (
{
layerId = "36f52ca2-ef18-4734-b79f-232be43107ca";
name = Fore;
shapes = (
{
closed = 1;
nodes = (
(388,488,o),
(483.5,488,q),
(579,488,o),
(667,499,q),
(671,473,l),
(646,462,o),
(609,455,q),
(598,352,o),
(598,263,q),
(598,94,o),
(620,36,q),
(626,33,l),
(692,69,o),
(725.5,152,q),
(759,235,o),
(759,329,q),
(759,616,o),
(458,616,q),
(356,616,o),
(281,570,q),
(208,500,o),
(164.5,389,q),
(121,278,o),
(121,172,q),
(121,22,o),
(193,-59,q),
(265,-140,o),
(409,-140,q),
(471,-140,o),
(528,-118,q),
(535,-131,l),
(475,-173,o),
(401,-190,q),
(225,-190,o),
(140,-105.5,q),
(55,-21,o),
(55,155,q),
(55,356,o),
(168,497.5,q),
(281,639,o),
(474,666,q),
(823,666,o),
(823,363,q),
(823,214,o),
(750.5,108,q),
(678,2,o),
(561,-15,q),
(554,-12,l),
(523,50,o),
(523,157,q),
(523,169,o),
(523,182,q),
(486,187,o),
(439,187,q),
(392,187,o),
(365,182,q),
(348,112,o),
(348,72,q),
(348,32,o),
(383,12,q),
(379,-5,l),
(356,0,o),
(290.5,0,q),
(225,0,o),
(191,-8,q),
(187,18,l),
(217,28,o),
(253,34,q),
(374,457,l),
(321,466,o),
(297,473,q),
(300,499,l)
);
},
{
closed = 1;
nodes = (
(404,223,o),
(450.5,223,q),
(497,223,o),
(523,229,q),
(523,397,o),
(515,447,q),
(496,450,o),
(474,450,q),
(452,450,o),
(426,448,q),
(374,229,l)
);
}
);
width = 860;
}
);
unicode = 64;
},
{
category = Letter;
glyphname = A;
layers = (
{
layerId = "36f52ca2-ef18-4734-b79f-232be43107ca";
name = Fore;
shapes = (
{
closed = 1;
nodes = (
(469,459,o),
(469,295,q),
(469,131,o),
(482,35,q),
(535,30,o),
(592,16,q),
(589,-8,l),
(515,0,o),
(428.5,0,q),
(342,0,o),
(289,-8,q),
(285,17,l),
(330,31,o),
(381,38,q),
(389,104,o),
(392,251,q),
(340,257,o),
(277.5,257,q),
(215,257,o),
(172,251,q),
(148,153,o),
(148,94,q),
(148,35,o),
(191,10,q),
(187,-4,l),
(156,0,o),
(82.5,0,q),
(9,0,o),
(-50,-8,q),
(-54,17,l),
(-9,31,o),
(42,38,q),
(200,598,l),
(82,598,o),
(49,566,q),
(42,552,o),
(42,522,q),
(42,492,o),
(52,481,q),
(51,474,l),
(26,459,o),
(1,432,q),
(-11,433,o),
(-18.5,442,q),
(-26,451,o),
(-26,463,q),
(-26,512,o),
(33,580,q),
(92,648,o),
(143,666,q),
(294,649,o),
(449,637,q),
(463,655,o),
(472,683,q),
(493,677,l),
(479,607,o),
(474,533,q)
);
},
{
closed = 1;
nodes = (
(228,294,o),
(289.5,294,q),
(351,294,o),
(392,301,q),
(392,478,o),
(387,590,q),
(384,593,l),
(332,598,o),
(255,598,q),
(183,301,l)
);
}
);
width = 599;
}
);
unicode = 65;
},
{
category = Letter;
glyphname = B;
layers = (
{
layerId = "36f52ca2-ef18-4734-b79f-232be43107ca";
name = Fore;
shapes = (
{
closed = 1;
nodes = (
(138,651,o),
(237.5,651,q),
(337,651,o),
(361.5,649.5,q),
(386,648,o),
(415,642,q),
(444,636,o),
(460,624,q),
(500,597,o),
(500,541.5,q),
(500,486,o),
(461,440.5,q),
(422,395,o),
(366,372,q),
(366,368,l),
(438,368,o),
(483,334.5,q),
(528,301,o),
(528,236,q),
(528,156,o),
(453,82,q),
(378,8,o),
(291,-15,q),
(229,-15,o),
(145,23,q),
(128,-3,o),
(122,-22,q),
(101,-17,l),
(125,92,o),
(125,325,q),
(125,414,o),
(117,598,q),
(6,596,o),
(-25,566,q),
(-32,552,o),
(-32,522,q),
(-32,492,o),
(-22,481,q),
(-23,474,l),
(-48,459,o),
(-73,432,q),
(-85,433,o),
(-92.5,442,q),
(-100,451,o),
(-100,463,q),
(-100,509,o),
(-47.5,572,q),
(5,635,o),
(53,659,q)
);
},
{
closed = 1;
nodes = (
(337,382,o),
(370,403,q),
(406,443,o),
(406,504.5,q),
(406,566,o),
(372.5,583.5,q),
(339,601,o),
(285.5,601,q),
(232,601,o),
(210,598,q),
(202,497,o),
(202,335,q),
(202,173,o),
(207,85,q),
(259,57,o),
(318.5,57,q),
(378,57,o),
(413,81,q),
(436,130,o),
(436,191,q),
(436,345,o),
(246,345,q),
(251,382,l),
(263,382,l)
);
}
);
width = 576;
}
);
unicode = 66;
},
{
category = Letter;
glyphname = C;
layers = (
{
layerId = "36f52ca2-ef18-4734-b79f-232be43107ca";
name = Fore;
shapes = (
{
closed = 1;
nodes = (
(261,-34,o),
(304.5,-34,q),
(348,-34,o),
(392.5,-8.5,q),
(437,17,o),
(467,55,q),
(481,41,l),
(408,-73,o),
(283,-115,q),
(197,-115,o),
(142,-71,q),
(87,-27,o),
(64.5,42,q),
(42,111,o),
(42,212,q),
(42,313,o),
(67.5,403.5,q),
(93,494,o),
(156,566.5,q),
(219,639,o),
(313,666,q),
(414,666,o),
(519,647,q),
(518,625,l),
(492,625,o),
(470,616,q),
(445,557,o),
(437,475,q),
(412,475,l),
(403,522,o),
(403,565,q),
(350,594,o),
(286.5,594,q),
(223,594,o),
(182,556,q),
(131,453,o),
(131,291,q),
(131,110,o),
(178,35,q),
(196,5,o),
(228.5,-14.5,q)
);
}
);
width = 498;
}
);
unicode = 67;
},
{
category = Letter;
glyphname = D;
layers = (
{
layerId = "36f52ca2-ef18-4734-b79f-232be43107ca";
name = Fore;
shapes = (
{
closed = 1;
nodes = (
(126,92,o),
(126,296.5,q),
(126,501,o),
(117,598,q),
(6,596,o),
(-25,566,q),
(-32,552,o),
(-32,522,q),
(-32,492,o),
(-22,481,q),
(-23,474,l),
(-48,459,o),
(-73,432,q),
(-85,433,o),
(-92.5,442,q),
(-100,451,o),
(-100,463,q),
(-100,509,o),
(-47.5,572,q),
(5,635,o),
(53,659,q),
(138,651,o),
(305,651,q),
(578,651,o),
(578,386,q),
(578,247,o),
(505,134,q),
(432,21,o),
(307,-15,q),
(235,-15,o),
(146,23,q),
(129,-3,o),
(123,-22,q),
(102,-17,l)
);
},
{
closed = 1;
nodes = (
(243,604,o),
(212,599,q),
(203,505,o),
(203,339,q),
(203,173,o),
(208,85,q),
(262,57,o),
(331,57,q),
(400,57,o),
(438,91,q),
(489,184,o),
(489,321,q),
(489,458,o),
(446.5,531,q),
(404,604,o),
(289,604,q)
);
}
);
width = 620;
}
);
unicode = 68;
},
{
category = Letter;
glyphname = E;
layers = (
{
layerId = "36f52ca2-ef18-4734-b79f-232be43107ca";
name = Fore;
shapes = (
{
closed = 1;
nodes = (
(346,594,o),
(280,594,q),
(214,594,o),
(173,560,q),
(172,546,o),
(172,533,q),
(172,373,o),
(343,373,q),
(338,336,l),
(326,336,l),
(247,336,o),
(195.5,304.5,q),
(144,273,o),
(144,203,q),
(144,133,o),
(192,94.5,q),
(240,56,o),
(305,56,q),
(370,56,o),
(407,80,q),
(414,94,o),
(414,124,q),
(414,154,o),
(404,165,q),
(405,172,l),
(430,187,o),
(455,214,q),
(467,213,o),
(474.5,204,q),
(482,195,o),
(482,183,q),
(482,122,o),
(424.5,64.5,q),
(367,7,o),
(299,-15,q),
(192,-15,o),
(121,37,q),
(50,89,o),
(50,185,q),
(50,254,o),
(108,300,q),
(166,346,o),
(240,346,q),
(240,350,l),
(172,354,o),
(126.5,388,q),
(81,422,o),
(81,482,q),
(117,546,o),
(176.5,597,q),
(236,648,o),
(304,666,q),
(375,666,o),
(444,647,q),
(460,655,o),
(485,678,q),
(506,664,l),
(440,584,o),
(425,473,q),
(399,473,l),
(399,528,o),
(394,566,q)
);
}
);
width = 513;
}
);
unicode = 69;
},
{
category = Letter;
glyphname = F;
layers = (
{
layerId = "36f52ca2-ef18-4734-b79f-232be43107ca";
name = Fore;
shapes = (
{
closed = 1;
nodes = (
(444,645,o),
(474,676,q),
(493,666,l),
(450,588,o),
(443,484,q),
(418,484,l),
(409,527,o),
(409,593,q),
(383,585,o),
(344,585,q),
(305,585,o),
(215,593,q),
(207,519,o),
(207,366,q),
(250,358,o),
(291,358,q),
(369,358,o),
(390,401,q),
(410,397,l),
(401,365,o),
(401,320.5,q),
(401,276,o),
(407,233,q),
(384,229,l),
(369,267,o),
(364,318,q),
(327,321,o),
(287,321,q),
(247,321,o),
(207,316,q),
(208,112,o),
(220,35,q),
(270,30,o),
(330,16,q),
(327,-8,l),
(253,0,o),
(166.5,0,q),
(80,0,o),
(27,-8,q),
(23,17,l),
(68,31,o),
(119,38,q),
(130,120,o),
(130,296,q),
(130,355,l),
(130,454,o),
(118,598,q),
(116,598,l),
(-2,598,o),
(-35,566,q),
(-42,552,o),
(-42,522,q),
(-42,492,o),
(-32,481,q),
(-33,474,l),
(-58,459,o),
(-83,432,q),
(-95,433,o),
(-102.5,442,q),
(-110,451,o),
(-110,463,q),
(-110,512,o),
(-51,580,q),
(8,648,o),
(59,666,q),
(129,663,o),
(222.5,654,q),
(316,645,o),
(365,645,q)
);
}
);
width = 488;
}
);
unicode = 70;
},
{
category = Letter;
glyphname = G;
layers = (
{
layerId = "36f52ca2-ef18-4734-b79f-232be43107ca";
name = Fore;
shapes = (
{
closed = 1;
nodes = (
(352,66,o),
(403,94,q),
(403,176,l),
(403,199,o),
(399,243,q),
(364,253,o),
(308,263,q),
(311,284,l),
(334,281,o),
(355,281,q),
(443,281,o),
(516,330,q),
(525,312,l),
(502,294,o),
(489,276,q),
(470,102,o),
(469,-49,q),
(440,-102,o),
(373.5,-151,q),
(307,-200,o),
(252,-200,q),
(237,-200,o),
(227,-192,q),
(217,-184,o),
(217,-170,q),
(246,-148,o),
(266,-119,q),
(273,-118,l),
(295,-135,o),
(324,-135,q),
(353,-135,o),
(364,-129,q),
(405,-74,o),
(405,51,q),
(350,8,o),
(283,-15,q),
(163,-15,o),
(102.5,60.5,q),
(42,136,o),
(42,269.5,q),
(42,403,o),
(115.5,517.5,q),
(189,632,o),
(313,666,q),
(417,666,o),
(522,647,q),
(521,625,l),
(496,625,o),
(473,616,q),
(446,553,o),
(440,475,q),
(415,475,l),
(406,516,o),
(406,568,q),
(359,594,o),
(291,594,q),
(223,594,o),
(182,560,q),
(131,473,o),
(131,339,q),
(131,66,o),
(305,66,q)
);
}
);
width = 557;
}
);
unicode = 71;
},
{
category = Letter;
glyphname = H;
layers = (
{
layerId = "36f52ca2-ef18-4734-b79f-232be43107ca";
name = Fore;
shapes = (
{
closed = 1;
nodes = (
(578,296,l),
(578,109,o),
(591,35,q),
(644,30,o),
(701,16,q),
(698,-8,l),
(634,0,o),
(546.5,0,q),
(459,0,o),
(398,-8,q),
(394,17,l),
(439,31,o),
(490,38,q),
(500,139,o),
(501,328,q),
(427,335,o),
(354,335,q),
(281,335,o),
(207,328,q),
(208,114,o),
(220,35,q),
(273,30,o),
(330,16,q),
(327,-8,l),
(253,0,o),
(166.5,0,q),
(80,0,o),
(27,-8,q),
(23,17,l),
(68,31,o),
(119,38,q),
(130,120,o),
(130,296,q),
(130,355,l),
(130,486,o),
(119,596,q),
(118,596,l),
(0,596,o),
(-33,564,q),
(-40,550,o),
(-40,520,q),
(-40,490,o),
(-30,479,q),
(-31,472,l),
(-56,457,o),
(-81,430,q),
(-93,431,o),
(-100.5,440,q),
(-108,449,o),
(-108,461,q),
(-108,510,o),
(-49,578,q),
(10,646,o),
(61,664,q),
(69,664,o),
(133,657.5,q),
(197,651,o),
(233.5,651,q),
(270,651,o),
(301,657,q),
(305,632,l),
(266,617,o),
(216,605,q),
(209,530,o),
(207,382,q),
(283,372,o),
(358,372,q),
(433,372,o),
(501,381,q),
(500,560,o),
(492,653,q),
(511,714,o),
(584.5,786,q),
(658,858,o),
(713,858,q),
(725,858,o),
(734.5,850.5,q),
(744,843,o),
(744,831,q),
(717,806,o),
(702,781,q),
(695,780,l),
(684,790,o),
(654,790,q),
(624,790,o),
(610,783,q),
(578,746,o),
(578,652,q)
);
}
);
width = 708;
}
);
unicode = 72;
},
{
category = Letter;
glyphname = I;
layers = (
{
layerId = "36f52ca2-ef18-4734-b79f-232be43107ca";
name = Fore;
shapes = (
{
closed = 1;
nodes = (
(207,541,o),
(207,336,q),
(207,131,o),
(220,35,q),
(273,30,o),
(330,16,q),
(327,-8,l),
(253,0,o),
(166.5,0,q),
(80,0,o),
(27,-8,q),
(23,17,l),
(68,31,o),
(119,38,q),
(130,120,o),
(130,296,q),
(130,355,l),
(130,517,o),
(117,613,q),
(66,620,o),
(21,634,q),
(25,659,l),
(78,651,o),
(164.5,651,q),
(251,651,o),
(325,659,q),
(328,635,l),
(271,621,o),
(218,616,q)
);
}
);
width = 337;
}
);
unicode = 73;
},
{
category = Letter;
glyphname = J;
layers = (
{
layerId = "36f52ca2-ef18-4734-b79f-232be43107ca";
name = Fore;
shapes = (
{
closed = 1;
nodes = (
(207,296,l),
(207,111,o),
(215,33,q),
(148,-102,o),
(-32,-181,q),
(-44,-160,l),
(51,-95,o),
(90.5,-25.5,q),
(130,44,o),
(130,154,q),
(130,355,l),
(130,506,o),
(121,596,q),
(3,596,o),
(-30,564,q),
(-37,550,o),
(-37,520,q),
(-37,490,o),
(-27,479,q),
(-28,472,l),
(-53,457,o),
(-78,430,q),
(-90,431,o),
(-97.5,440,q),
(-105,449,o),
(-105,461,q),
(-105,510,o),
(-46,578,q),
(13,646,o),
(64,664,q),
(72,664,o),
(136,657.5,q),
(200,651,o),
(236,651,q),
(272,651,o),
(304,657,q),
(308,632,l),
(269,617,o),
(219,605,q),
(207,497,o),
(207,355,q)
);
}
);
width = 337;
}
);
unicode = 74;
},
{
category = Letter;
glyphname = K;
layers = (
{
layerId = "36f52ca2-ef18-4734-b79f-232be43107ca";
name = Fore;
shapes = (
{
closed = 1;
nodes = (
(207,295,l),
(294,387,o),
(341.5,451,q),
(389,515,o),
(399.5,542,q),
(410,569,o),
(410,596.5,q),
(410,624,o),
(393,641,q),
(397,655,l),
(428,651,o),
(485.5,651,q),
(543,651,o),
(602,659,q),
(606,634,l),
(561,620,o),
(510,613,q),
(501,528,o),
(364,397,q),
(538,23,l),
(577,-61,o),
(623,-82,q),
(641,-82,o),
(667,-69,q),
(693,-56,o),
(699,-43,q),
(705,-41,l),
(732,-59,o),
(765,-69,q),
(768,-75,o),
(768,-85.5,q),
(768,-96,o),
(751.5,-105.5,q),
(735,-115,o),
(705,-115,q),
(642,-115,o),
(556.5,-80,q),
(471,-45,o),
(438,-8,q),
(416,89,o),
(389,161,q),
(362,233,o),
(307,344,q),
(251,293,o),
(207,257,q),
(210,105,o),
(220,35,q),
(273,30,o),
(330,16,q),
(327,-8,l),
(253,0,o),
(166.5,0,q),
(80,0,o),
(27,-8,q),
(23,17,l),
(68,31,o),
(119,38,q),
(130,120,o),
(130,296,q),
(130,355,l),
(130,486,o),
(119,596,q),
(118,596,l),
(0,596,o),
(-33,564,q),
(-40,550,o),
(-40,520,q),
(-40,490,o),
(-30,479,q),
(-31,472,l),
(-56,457,o),
(-81,430,q),
(-93,431,o),
(-100.5,440,q),
(-108,449,o),
(-108,461,q),
(-108,510,o),
(-49,578,q),
(10,646,o),
(61,664,q),
(69,664,o),
(133,657.5,q),
(197,651,o),
(233.5,651,q),
(270,651,o),
(301,657,q),
(305,632,l),
(266,617,o),
(216,605,q),
(207,513,o),
(207,350,q)
);
}
);
width = 606;
}
);
unicode = 75;
},
{
category = Letter;
glyphname = L;
layers = (
{
layerId = "36f52ca2-ef18-4734-b79f-232be43107ca";
name = Fore;
shapes = (
{
closed = 1;
nodes = (
(205,528,o),
(205,336.5,q),
(205,145,o),
(213,55,q),
(247,53,o),
(277,53,q),
(395,53,o),
(428,85,q),
(435,99,o),
(435,129,q),
(435,159,o),
(425,170,q),
(426,177,l),
(451,192,o),
(476,219,q),
(488,218,o),
(495.5,209,q),
(503,200,o),
(503,188,q),
(503,139,o),
(444,71,q),
(385,3,o),
(334,-15,q),
(248,-12,o),
(148,14,q),
(134,-4,o),
(125,-32,q),
(104,-26,l),
(125,75,o),
(128,305,q),
(128,355,l),
(128,530,o),
(117,613,q),
(66,620,o),
(21,634,q),
(25,659,l),
(78,651,o),
(164.5,651,q),
(251,651,o),
(325,659,q),
(328,635,l),
(268,621,o),
(218,616,q)
);
}
);
width = 456;
}
);
unicode = 76;
},
{
category = Letter;
glyphname = M;
layers = (
{
layerId = "36f52ca2-ef18-4734-b79f-232be43107ca";
name = Fore;
shapes = (
{
closed = 1;
nodes = (
(325,538,o),
(403,295,q),
(435,195,l),
(442,197,l),
(443,218,o),
(566,609,q),
(566,619,o),
(555,628.5,q),
(544,638,o),
(532,641,q),
(535,655,l),
(585,651,o),
(672,651,q),
(759,651,o),
(811,659,q),
(816,634,l),
(768,619,o),
(719,613,q),
(714,589,o),
(714,527.5,q),
(714,466,o),
(730.5,281,q),
(747,96,o),
(761,35,q),
(814,30,o),
(871,16,q),
(868,-8,l),
(794,0,o),
(708,0,q),
(622,0,o),
(569,-8,q),
(565,17,l),
(610,31,o),
(661,38,q),
(661,133,o),
(650,300,q),
(639,467,o),
(622,586,q),
(619,587,l),
(476,191,o),
(469,105,q),
(404,66,o),
(372,29,q),
(360,37,l),
(362,59,o),
(362,70,q),
(362,187,o),
(231,587,q),
(227,586,l),
(196,367,l),
(176,224,o),
(176,109,q),
(176,72,o),
(184.5,48,q),
(193,24,o),
(219,10,q),
(215,-4,l),
(184,0,o),
(109.5,0,q),
(35,0,o),
(-24,-8,q),
(-28,17,l),
(17,31,o),
(68,38,q),
(180,596,l),
(62,596,o),
(29,564,q),
(22,550,o),
(22,520,q),
(22,490,o),
(32,479,q),
(31,472,l),
(6,457,o),
(-19,430,q),
(-31,431,o),
(-38.5,440,q),
(-46,449,o),
(-46,461,q),
(-46,510,o),
(13,578,q),
(72,646,o),
(123,664,q),
(131,664,o),
(195,657.5,q),
(259,651,o),
(294.5,651,q),
(330,651,o),
(362,657,q),
(366,632,l),
(325,616,o),
(325,601,q)
);
}
);
width = 864;
}
);
unicode = 77;
},
{
category = Letter;
glyphname = N;
layers = (
{
layerId = "36f52ca2-ef18-4734-b79f-232be43107ca";
name = Fore;
shapes = (
{
closed = 1;
nodes = (
(523,467,o),
(508,546.5,q),
(493,626,o),
(451,641,q),
(455,655,l),
(486,651,o),
(556,651,q),
(626,651,o),
(685,659,q),
(688,636,l),
(617,619,o),
(589,616,q),
(576,518,o),
(576,355,q),
(576,296,l),
(576,109,o),
(589,35,q),
(640,29,o),
(685,17,q),
(681,-8,l),
(628,0,o),
(574.5,0,q),
(521,0,o),
(488,-3,q),
(488,30,o),
(423,144,q),
(358,258,o),
(187,525,q),
(183,523,l),
(183,355,l),
(183,110,o),
(220,35,q),
(275,30,o),
(329,16,q),
(327,-8,l),
(253,0,o),
(166.5,0,q),
(80,0,o),
(27,-8,q),
(23,17,l),
(68,31,o),
(119,38,q),
(130,120,o),
(130,296,q),
(130,355,l),
(130,496,o),
(118,596,q),
(0,596,o),
(-33,564,q),
(-40,550,o),
(-40,520,q),
(-40,490,o),
(-30,479,q),
(-31,472,l),
(-56,457,o),
(-81,430,q),
(-93,431,o),
(-100.5,440,q),
(-108,449,o),
(-108,461,q),
(-108,510,o),
(-49,578,q),
(10,646,o),
(61,664,q),
(73,663,o),
(128.5,657,q),
(184,651,o),
(220,651,q),
(256,651,o),
(287,657,q),
(291,632,l),
(250,615,o),
(250,599,q),
(255,572,o),
(307,485.5,q),
(359,399,o),
(519,150,q),
(523,152,l),
(523,296,l)
);
}
);
width = 706;
}
);
unicode = 78;
},
{
category = Letter;
glyphname = O;
layers = (
{
layerId = "36f52ca2-ef18-4734-b79f-232be43107ca";
name = Fore;
shapes = (
{
closed = 1;
nodes = (
(560,520,o),
(560,384.5,q),
(560,249,o),
(491.5,140.5,q),
(423,32,o),
(301,-15,q),
(184,-15,o),
(113,62.5,q),
(42,140,o),
(42,265,q),
(42,469,o),
(190,603,q),
(202,595,l),
(131,492,o),
(131,339,q),
(131,230,o),
(181.5,143.5,q),
(232,57,o),
(322,57,q),
(381,57,o),
(421,92,q),
(471,184,o),
(471,310,q),
(471,475,o),
(408,552,q),
(374,594,o),
(323,594,q),
(297,594,o),
(275,579,q),
(253,564,o),
(244,540,q),
(244,520,o),
(253,493.5,q),
(262,467,o),
(276,460,q),
(278,453,l),
(256,426,o),
(245,396,q),
(243,395,o),
(237,395,q),
(201,395,o),
(201,459,q),
(201,567,o),
(313,666,q),
(435,666,o),
(497.5,593,q)
);
}
);
width = 602;
}
);
unicode = 79;
},
{
category = Letter;
glyphname = P;
layers = (
{
layerId = "36f52ca2-ef18-4734-b79f-232be43107ca";
name = Fore;
shapes = (
{
closed = 1;
nodes = (
(130,120,o),
(130,305,q),
(130,490,o),
(120,598,q),
(11,596,o),
(-20,566,q),
(-27,552,o),
(-27,522,q),
(-27,492,o),
(-17,481,q),
(-18,474,l),
(-43,459,o),
(-68,432,q),
(-80,433,o),
(-87.5,442,q),
(-95,451,o),
(-95,463,q),
(-95,509,o),
(-42.5,572,q),
(10,635,o),
(58,659,q),
(143,651,o),
(324,651,q),
(420,651,o),
(468.5,616,q),
(517,581,o),
(517,493,q),
(517,405,o),
(444,350,q),
(371,295,o),
(274,295,q),
(259,295,o),
(252,296,q),
(256,328,l),
(268,328,l),
(343,328,o),
(383,366,q),
(423,404,o),
(423,475.5,q),
(423,547,o),
(389.5,574,q),
(356,601,o),
(283,601,q),
(245,601,o),
(215,598,q),
(207,509,o),
(207,316.5,q),
(207,124,o),
(219,35,q),
(272,30,o),
(329,16,q),
(326,-8,l),
(252,0,o),
(165.5,0,q),
(79,0,o),
(26,-8,q),
(22,17,l),
(67,31,o),
(118,38,q)
);
}
);
width = 512;
}
);
unicode = 80;
},
{
category = Letter;
glyphname = Q;
layers = (
{
layerId = "36f52ca2-ef18-4734-b79f-232be43107ca";
name = Fore;
shapes = (
{
closed = 1;
nodes = (
(777,-109,o),
(725,-139,q),
(673,-169,o),
(613,-184.5,q),
(553,-200,o),
(516,-200,q),
(311,-56,o),
(211,-56,q),
(148,-56,o),
(104,-90,q),
(87,-74,l),
(115,-49,o),
(161.5,-22.5,q),
(208,4,o),
(245,16,q),
(252,16,o),
(279,11,q),
(471,112,o),
(471,310,q),
(471,427,o),
(430,507,q),
(409,548,o),
(370.5,571,q),
(332,594,o),
(276,594,q),
(220,594,o),
(182,560,q),
(139,486,o),
(139,375,q),
(139,141,o),
(258,141,q),
(284,141,o),
(306,156,q),
(328,171,o),
(337,195,q),
(337,215,o),
(328,241.5,q),
(319,268,o),
(305,275,q),
(303,282,l),
(325,309,o),
(336,339,q),
(338,340,o),
(344,340,q),
(380,340,o),
(380,276,q),
(380,168,o),
(268,69,q),
(164,69,o),
(108.5,130,q),
(53,191,o),
(53,308,q),
(53,425,o),
(124.5,529,q),
(196,633,o),
(313,666,q),
(435,666,o),
(497.5,593,q),
(560,520,o),
(560,388,q),
(560,256,o),
(498.5,154,q),
(437,52,o),
(320,0,q),
(377,-19,o),
(493.5,-83.5,q),
(610,-148,o),
(646,-148,q),
(667,-148,o),
(681.5,-123,q),
(696,-98,o),
(696,-73,q),
(700,-66,l),
(733,-66,o),
(765,-56,q),
(777,-65,o),
(777,-78,q)
);
}
);
width = 602;
}
);
unicode = 81;
},
{
category = Letter;
glyphname = R;
layers = (
{
layerId = "36f52ca2-ef18-4734-b79f-232be43107ca";
name = Fore;
shapes = (
{
closed = 1;
nodes = (
(144,131,o),
(144,310.5,q),
(144,490,o),
(134,598,q),
(25,596,o),
(-6,566,q),
(-13,552,o),
(-13,522,q),
(-13,492,o),
(-3,481,q),
(-4,474,l),
(-29,459,o),
(-54,432,q),
(-66,433,o),
(-73.5,442,q),
(-81,451,o),
(-81,463,q),
(-81,509,o),
(-28.5,572,q),
(24,635,o),
(72,659,q),
(157,651,o),
(318,651,q),
(420,651,o),
(473,620.5,q),
(526,590,o),
(526,504,q),
(526,382,o),
(401,334,q),
(541,38,l),
(592,31,o),
(637,17,q),
(633,-8,l),
(574,0,o),
(505.5,0,q),
(437,0,o),
(406,-4,q),
(402,10,l),
(419,27,o),
(419,67,q),
(419,147,o),
(325,322,q),
(300,327,o),
(267,327,q),
(270,349,l),
(282,349,l),
(354,349,o),
(393,384.5,q),
(432,420,o),
(432,487.5,q),
(432,555,o),
(397,578,q),
(362,601,o),
(287,601,q),
(252,601,o),
(229,598,q),
(221,509,o),
(221,311,q),
(221,113,o),
(232,38,q),
(283,31,o),
(328,17,q),
(324,-8,l),
(271,0,o),
(184.5,0,q),
(98,0,o),
(24,-8,q),
(21,16,l),
(78,30,o),
(131,35,q)
);
}
);
width = 619;
}
);
unicode = 82;
},
{
category = Letter;
glyphname = S;
layers = (
{
layerId = "36f52ca2-ef18-4734-b79f-232be43107ca";
name = Fore;
shapes = (
{
closed = 1;
nodes = (
(11,100,o),
(49.5,164,q),
(88,228,o),
(130,228,q),
(141,228,o),
(152,221,q),
(155,214,l),
(142,189,o),
(139,151,q),
(133,147,l),
(129,149,o),
(118,149,q),
(107,149,o),
(85.5,137,q),
(64,125,o),
(52,113,q),
(45,99,o),
(45,81,q),
(45,34,o),
(108.5,0.5,q),
(172,-33,o),
(231,-33,q),
(354,-33,o),
(354,107,q),
(354,160,o),
(253,240,q),
(211,274,o),
(169,308,q),
(68,388,o),
(68,447,q),
(68,517,o),
(131,577.5,q),
(194,638,o),
(274,666,q),
(360,666,o),
(437,649,q),
(437,629,l),
(385,581,o),
(379,481,q),
(354,481,l),
(354,534,o),
(349,574,q),
(306,594,o),
(255.5,594,q),
(205,594,o),
(170,572.5,q),
(135,551,o),
(135,518,q),
(135,485,o),
(164.5,451.5,q),
(194,418,o),
(236,386.5,q),
(278,355,o),
(319.5,322.5,q),
(361,290,o),
(390.5,252.5,q),
(420,215,o),
(420,180,q),
(420,80,o),
(365,2,q),
(310,-76,o),
(215,-115,q),
(90,-102,o),
(15,-45,q),
(11,-17,o),
(11,12,q)
);
}
);
width = 465;
}
);
unicode = 83;
},
{
category = Letter;
glyphname = T;
layers = (
{
layerId = "36f52ca2-ef18-4734-b79f-232be43107ca";
name = Fore;
shapes = (
{
closed = 1;
nodes = (
(374,645,o),
(412,645,q),
(450,645,o),
(469,651,q),
(515,695,o),
(534,718,q),
(550,706,l),
(497,637,o),
(486,562,q),
(453,571,l),
(387,589,o),
(305,595,q),
(298,486,o),
(298,308.5,q),
(298,131,o),
(311,35,q),
(361,30,o),
(421,16,q),
(418,-8,l),
(344,0,o),
(257.5,0,q),
(171,0,o),
(118,-8,q),
(114,17,l),
(159,31,o),
(210,38,q),
(221,120,o),
(221,296,q),
(221,355,l),
(221,454,o),
(209,598,q),
(183,598,l),
(65,598,o),
(32,566,q),
(25,552,o),
(25,522,q),
(25,492,o),
(35,481,q),
(34,474,l),
(9,459,o),
(-16,432,q),
(-28,433,o),
(-35.5,442,q),
(-43,451,o),
(-43,463,q),
(-43,512,o),
(16,580,q),
(75,648,o),
(126,666,q),
(195,663,o),
(284.5,654,q)
);
}
);
width = 519;
}
);
unicode = 84;
},
{
category = Letter;
glyphname = U;
layers = (
{
layerId = "36f52ca2-ef18-4734-b79f-232be43107ca";
name = Fore;
shapes = (
{
closed = 1;
nodes = (
(183,423,o),
(183,325,q),
(183,227,o),
(188,192.5,q),
(193,158,o),
(208,128,q),
(237,66,o),
(320,66,q),
(403,66,o),
(453,112,q),
(458,242,o),
(458,372,q),
(458,502,o),
(447,616,q),
(396,623,o),
(351,637,q),
(355,659,l),
(416,651,o),
(503.5,651,q),
(591,651,o),
(655,659,q),
(658,638,l),
(601,624,o),
(548,619,q),
(535,545,o),
(535,355,q),
(535,296,l),
(535,109,o),
(548,35,q),
(601,30,o),
(658,16,q),
(655,-8,l),
(591,0,o),
(525,0,q),
(459,0,o),
(441,-1,q),
(438,13,l),
(447,24,o),
(451,84,q),
(393,19,o),
(305,-15,q),
(192,-15,o),
(147.5,50.5,q),
(103,116,o),
(103,241,q),
(103,298,o),
(110,422,q),
(117,546,o),
(117,561,q),
(117,576,o),
(114,596,q),
(-4,596,o),
(-37,564,q),
(-44,550,o),
(-44,520,q),
(-44,490,o),
(-34,479,q),
(-35,472,l),
(-60,457,o),
(-85,430,q),
(-97,431,o),
(-104.5,440,q),
(-112,449,o),
(-112,461,q),
(-112,510,o),
(-53,578,q),
(6,646,o),
(57,664,q),
(80,663,o),
(117.5,657,q),
(155,651,o),
(186,651,q),
(217,651,o),
(245,655,q),
(249,641,l),
(204,616,o),
(197,549,q)
);
}
);
width = 665;
}
);
unicode = 85;
},
{
category = Letter;
glyphname = V;
layers = (
{
layerId = "36f52ca2-ef18-4734-b79f-232be43107ca";
name = Fore;
shapes = (
{
closed = 1;
nodes = (
(364,0,o),
(291.5,0,q),
(219,0,o),
(188,-4,q),
(184,10,l),
(196,14,o),
(207,22.5,q),
(218,31,o),
(218,41,q),
(218,114,o),
(85,529,q),
(73,567,o),
(61,596,q),
(-56,596,o),
(-89,564,q),
(-96,550,o),
(-96,520,q),
(-96,490,o),
(-86,479,q),
(-87,472,l),
(-112,457,o),
(-137,430,q),
(-149,431,o),
(-156.5,440,q),
(-164,449,o),
(-164,461,q),
(-164,510,o),
(-105,578,q),
(-46,646,o),
(5,664,q),
(13,664,o),
(77,657.5,q),
(141,651,o),
(177.5,651,q),
(214,651,o),
(245,657,q),
(249,632,l),
(217,620,o),
(164,606,q),
(174,521,o),
(216.5,362.5,q),
(259,204,o),
(307,69,q),
(391,255,o),
(419.5,351.5,q),
(448,448,o),
(448,518,q),
(448,612,o),
(398,641,q),
(402,655,l),
(433,651,o),
(501.5,651,q),
(570,651,o),
(629,659,q),
(633,634,l),
(588,620,o),
(537,613,q),
(542,578,o),
(542,555,q),
(542,467,o),
(498.5,366,q),
(455,265,o),
(331,35,q),
(382,28,o),
(427,14,q),
(423,-8,l)
);
}
);
width = 599;
}
);
unicode = 86;
},
{
category = Letter;
glyphname = W;
layers = (
{
layerId = "36f52ca2-ef18-4734-b79f-232be43107ca";
name = Fore;
shapes = (
{
closed = 1;
nodes = (
(325,0,o),
(272,0,q),
(219,0,o),
(188,-4,q),
(184,10,l),
(196,14,o),
(207,22.5,q),
(218,31,o),
(218,41,q),
(218,114,o),
(85,529,q),
(73,567,o),
(61,596,q),
(-56,596,o),
(-89,564,q),
(-96,550,o),
(-96,520,q),
(-96,490,o),
(-86,479,q),
(-87,472,l),
(-112,457,o),
(-137,430,q),
(-149,431,o),
(-156.5,440,q),
(-164,449,o),
(-164,461,q),
(-164,510,o),
(-105,578,q),
(-46,646,o),
(5,664,q),
(13,664,o),
(77,657.5,q),
(141,651,o),
(179,651,q),
(296,651,l),
(512,651,o),
(609,661,q),
(613,636,l),
(569,622,o),
(517,613,q),
(522,578,o),
(522,549.5,q),
(522,521,o),
(514,478,q),
(552,308,o),
(634,69,q),
(708,256,o),
(731.5,352.5,q),
(755,449,o),
(755,518,q),
(755,612,o),
(705,641,q),
(709,655,l),
(740,651,o),
(808.5,651,q),
(877,651,o),
(936,659,q),
(940,634,l),
(895,620,o),
(844,613,q),
(849,578,o),
(849,555,q),
(849,471,o),
(807.5,362,q),
(766,253,o),
(657,34,q),
(674,25,o),
(703,17,q),
(700,-4,l),
(652,0,o),
(599,0,q),
(546,0,o),
(515,-4,q),
(511,10,l),
(523,14,o),
(534,22.5,q),
(545,31,o),
(545,41,q),
(545,100,o),
(474,340,q),
(470,340,l),
(423,219,o),
(330,34,q),
(347,25,o),
(376,17,q),
(373,-4,l)
);
},
{
closed = 1;
nodes = (
(428,449,o),
(428,517.5,q),
(428,586,o),
(403,606.5,q),
(378,627,o),
(300.5,627,q),
(223,627,o),
(164,609,q),
(173,527,o),
(215.5,366,q),
(258,205,o),
(307,69,q),
(381,256,o),
(404.5,352.5,q)
);
}
);
width = 906;
}
);
unicode = 87;
},
{
category = Letter;
glyphname = X;
layers = (
{
layerId = "36f52ca2-ef18-4734-b79f-232be43107ca";
name = Fore;
shapes = (
{
closed = 1;
nodes = (
(452,631,o),
(432,641,q),
(436,655,l),
(486,651,o),
(541.5,651,q),
(597,651,o),
(649,659,q),
(654,634,l),
(606,619,o),
(557,613,q),
(504,529,o),
(367,348,q),
(563,38,l),
(614,31,o),
(659,17,q),
(655,-8,l),
(596,0,o),
(527.5,0,q),
(459,0,o),
(428,-4,q),
(424,10,l),
(428,18,o),
(428,32,q),
(428,97,o),
(313,286,q),
(184,71,o),
(184,35,q),
(237,30,o),
(294,16,q),
(291,-8,l),
(211,0,o),
(129.5,0,q),
(48,0,o),
(-9,-8,q),
(-14,17,l),
(34,32,o),
(83,38,q),
(143,133,o),
(287,327,q),
(126,596,l),
(26,596,o),
(-7,564,q),
(-14,550,o),
(-14,520,q),
(-14,490,o),
(-4,479,q),
(-5,472,l),
(-30,457,o),
(-55,430,q),
(-67,431,o),
(-74.5,440,q),
(-82,449,o),
(-82,461,q),
(-82,510,o),
(-23,578,q),
(36,646,o),
(87,664,q),
(95,664,o),
(159,657.5,q),
(223,651,o),
(259.5,651,q),
(296,651,o),
(327,657,q),
(331,632,l),
(292,617,o),
(242,605,q),
(250,540,o),
(342,387,q),
(452,567,o),
(452,609,q)
);
}
);
width = 645;
}
);
unicode = 88;
},
{
category = Letter;
glyphname = Y;
layers = (
{
layerId = "36f52ca2-ef18-4734-b79f-232be43107ca";
name = Fore;
shapes = (
{
closed = 1;
nodes = (
(234,271,l),
(64,635,l),
(25,719,o),
(-21,740,q),
(-39,740,o),
(-65,727,q),
(-91,714,o),
(-97,701,q),
(-103,699,l),
(-130,717,o),
(-163,727,q),
(-166,733,o),
(-166,743.5,q),
(-166,754,o),
(-149.5,763.5,q),
(-133,773,o),
(-103,773,q),
(-40,773,o),
(45.5,738,q),
(131,703,o),
(164,666,q),
(185,576,o),
(210.5,511.5,q),
(236,447,o),
(291,337,q),
(402,554,o),
(402,609,q),
(402,631,o),
(382,641,q),
(386,655,l),
(436,651,o),
(491.5,651,q),
(547,651,o),
(599,659,q),
(604,634,l),
(556,619,o),
(507,613,q),
(311,298,l),
(311,131,o),
(324,35,q),
(377,30,o),
(434,16,q),
(431,-8,l),
(357,0,o),
(270.5,0,q),
(184,0,o),
(131,-8,q),
(127,17,l),
(172,31,o),
(223,38,q),
(234,120,o),
(234,245,q)
);
}
);
width = 545;
}
);
unicode = 89;
},
{
category = Letter;
glyphname = Z;
layers = (
{
layerId = "36f52ca2-ef18-4734-b79f-232be43107ca";
name = Fore;
shapes = (
{
closed = 1;
nodes = (
(59,611,o),
(59,545,q),
(59,532,o),
(62,522,q),
(60,514,l),
(27,505,o),
(0,487,q),
(-18,494,o),
(-18,515,q),
(-18,565,o),
(57.5,615,q),
(133,665,o),
(203,684,q),
(300,648,o),
(332.5,644.5,q),
(365,641,o),
(383,641,q),
(457,641,o),
(489,679,q),
(511,661,l),
(461,615,o),
(420,543,q),
(154,84,l),
(205,61,o),
(259.5,20,q),
(314,-21,o),
(350,-55,q),
(441,-141,o),
(485,-141,q),
(506,-141,o),
(520.5,-116,q),
(535,-91,o),
(535,-66,q),
(539,-59,l),
(572,-59,o),
(604,-49,q),
(616,-58,o),
(616,-71,q),
(616,-102,o),
(564,-132,q),
(512,-162,o),
(452,-177.5,q),
(392,-193,o),
(355,-193,q),
(262,-89,o),
(201.5,-41.5,q),
(141,6,o),
(84.5,6,q),
(28,6,o),
(-15,-35,q),
(-37,-17,l),
(21,37,o),
(86,143,q),
(359,593,l),
(343,585,o),
(325,580,q),
(182,611,o),
(123,611,q)
);
}
);
width = 459;
}
);
unicode = 90;
},
{
category = Letter;
glyphname = bracketleft;
layers = (
{
layerId = "36f52ca2-ef18-4734-b79f-232be43107ca";
name = Fore;
shapes = (
{
closed = 1;
nodes = (
(162,-193,o),
(101,-208,q),
(94,-203,l),
(104,-134,o),
(104,248,q),
(104,630,o),
(94,699,q),
(101,704,l),
(162,689,o),
(270,689,q),
(283,689,o),
(296,689,q),
(296,668,l),
(218,666,o),
(164,651,q),
(164,-155,l),
(218,-170,o),
(296,-172,q),
(296,-193,l),
(283,-193,o),
(270,-193,q)
);
}
);
width = 326;
}
);
unicode = 91;
},
{
category = Letter;
glyphname = backslash;
layers = (
{
layerId = "36f52ca2-ef18-4734-b79f-232be43107ca";
name = Fore;
shapes = (
{
closed = 1;
nodes = (
(277,-45,l),
(99,478,l),
(53,615,o),
(21,696,q),
(53,707,o),
(69,717,q),
(73,717,l),
(99,622,o),
(142,493,q),
(251,175,l),
(283,82,o),
(323,-17,q),
(309,-33,o),
(282,-45,q)
);
}
);
width = 351;
}
);
unicode = 92;
},
{
category = Letter;
glyphname = bracketright;
layers = (
{
layerId = "36f52ca2-ef18-4734-b79f-232be43107ca";
name = Fore;
shapes = (
{
closed = 1;
nodes = (
(164,689,o),
(225,704,q),
(232,699,l),
(222,630,o),
(222,248,q),
(222,-134,o),
(232,-203,q),
(225,-208,l),
(164,-193,o),
(56,-193,q),
(43,-193,o),
(30,-193,q),
(30,-172,l),
(108,-170,o),
(162,-155,q),
(162,651,l),
(108,666,o),
(30,668,q),
(30,689,l),
(43,689,o),
(56,689,q)
);
}
);
width = 326;
}
);
unicode = 93;
},
{
category = Letter;
glyphname = asciicircum;
layers = (
{
layerId = "36f52ca2-ef18-4734-b79f-232be43107ca";
name = Fore;
shapes = (
{
closed = 1;
nodes = (
(79,291,l),
(50,306,l),
(142,464,o),
(231,686,q),
(284,696,l),
(379,458,o),
(468,306,q),
(439,291,l),
(259,580,l)
);
}
);
width = 518;
}
);
unicode = 94;
},
{
category = Letter;
glyphname = underscore;
layers = (
{
layerId = "36f52ca2-ef18-4734-b79f-232be43107ca";
name = Fore;
shapes = (
{
closed = 1;
nodes = (
(175,-143,o),
(374.5,-143,q),
(574,-143,o),
(613,-140,q),
(619,-146,l),
(611,-185,l),
(5,-185,l),
(-3,-178,l),
(5,-134,l)
);
}
);
width = 615;
}
);
unicode = 95;
},
{
category = Letter;
glyphname = grave;
layers = (
{
layerId = "36f52ca2-ef18-4734-b79f-232be43107ca";
name = Fore;
shapes = (
{
closed = 1;
nodes = (
(35,728,o),
(46.5,728,q),
(58,728,o),
(68,727,q),
(92,685,o),
(127.5,643,q),
(163,601,o),
(200,576,q),
(189,558,l),
(0,667,l),
(1,677,o),
(9.5,697.5,q),
(18,718,o),
(25,726,q)
);
}
);
width = 200;
}
);
unicode = 96;
},
{
category = Letter;
glyphname = a;
layers = (
{
layerId = "36f52ca2-ef18-4734-b79f-232be43107ca";
name = Fore;
shapes = (
{
closed = 1;
nodes = (
(202,521,o),
(298,521,q),
(394,521,o),
(487,532,q),
(491,506,l),
(461,494,o),
(429,488,q),
(418,406,o),
(418,260,q),
(418,114,o),
(429,32,q),
(449,29,o),
(503,17,q),
(499,-8,l),
(451,0,o),
(376,0,q),
(301,0,o),
(261,-8,q),
(257,18,l),
(291,29,o),
(334,34,q),
(340,92,o),
(343,195,q),
(296,200,o),
(249,200,q),
(202,200,o),
(167,195,q),
(147,113,o),
(147,81,q),
(147,32,o),
(182,12,q),
(178,-5,l),
(155,0,o),
(91,0,q),
(27,0,o),
(-10,-8,q),
(-14,18,l),
(10,27,o),
(52,34,q),
(182,490,l),
(138,497,o),
(105,506,q),
(108,532,l)
);
},
{
closed = 1;
nodes = (
(214,236,o),
(261.5,236,q),
(309,236,o),
(343,242,q),
(343,427,o),
(335,481,q),
(301,483,o),
(284.5,483,q),
(268,483,o),
(234,481,q),
(175,242,l)
);
}
);
width = 535;
}
);
unicode = 97;
},
{
category = Letter;
glyphname = b;
layers = (
{
layerId = "36f52ca2-ef18-4734-b79f-232be43107ca";
name = Fore;
shapes = (
{
closed = 1;
nodes = (
(277,526,l),
(375,526,o),
(408,502,q),
(440,480,o),
(440,434.5,q),
(440,389,o),
(407.5,352.5,q),
(375,316,o),
(328,298,q),
(328,294,l),
(388,294,o),
(425,268.5,q),
(462,243,o),
(462,185.5,q),
(462,128,o),
(398,67.5,q),
(334,7,o),
(267,-12,q),
(243,-12,o),
(201.5,-2,q),
(160,8,o),
(134,18,q),
(123,5,o),
(114,-19,q),
(93,-14,l),
(112,75,o),
(112,237.5,q),
(112,400,o),
(103,481,q),
(69,494,o),
(38,494,q),
(38,519,l)
);
},
{
closed = 1;
nodes = (
(297,308,o),
(325,325,q),
(350,356,o),
(350,404,q),
(350,491,o),
(255,491,q),
(222,491,o),
(194,480,q),
(187,412,o),
(187,271,q),
(187,130,o),
(191,74,q),
(232,52,o),
(281.5,52,q),
(331,52,o),
(357,71,q),
(374,105,o),
(374,153,q),
(374,219,o),
(335,246,q),
(296,273,o),
(222,273,q),
(226,308,l),
(235,308,l)
);
}
);
width = 524;
}
);
unicode = 98;
},
{
category = Letter;
glyphname = c;
layers = (
{
layerId = "36f52ca2-ef18-4734-b79f-232be43107ca";
name = Fore;
shapes = (
{
closed = 1;
nodes = (
(338,58,o),
(399,119,q),
(413,105,l),
(346,20,o),
(252,-12,q),
(155,-12,o),
(100,49.5,q),
(45,111,o),
(45,215.5,q),
(45,320,o),
(110,412,q),
(175,504,o),
(276,533,q),
(349,533,o),
(441,518,q),
(440,496,l),
(421,496,o),
(404,489,q),
(385,444,o),
(379,382,q),
(354,382,l),
(346,416,o),
(346,452,q),
(308,471,o),
(256,471,q),
(204,471,o),
(170,443,q),
(131,372,o),
(131,271,q),
(131,114,o),
(198,74,q),
(227,58,o),
(269,58,q)
);
}
);
width = 434;
}
);
unicode = 99;
},
{
category = Letter;
glyphname = d;
layers = (
{
layerId = "36f52ca2-ef18-4734-b79f-232be43107ca";
name = Fore;
shapes = (
{
closed = 1;
nodes = (
(266,526,l),
(380,526,o),
(441.5,472,q),
(503,418,o),
(503,310.5,q),
(503,203,o),
(435.5,110,q),
(368,17,o),
(268,-12,q),
(242,-12,o),
(200.5,-2.5,q),
(159,7,o),
(132,18,q),
(121,5,o),
(112,-19,q),
(91,-14,l),
(110,75,o),
(110,237.5,q),
(110,400,o),
(101,481,q),
(67,494,o),
(36,494,q),
(36,519,l)
);
},
{
closed = 1;
nodes = (
(297,491,o),
(258.5,491,q),
(220,491,o),
(192,480,q),
(185,415,o),
(185,272.5,q),
(185,130,o),
(189,75,q),
(239,52,o),
(291.5,52,q),
(344,52,o),
(375,79,q),
(413,151,o),
(413,256,q),
(413,354,o),
(380,419,q),
(362,453,o),
(329.5,472,q)
);
}
);
width = 539;
}
);
unicode = 100;
},
{
category = Letter;
glyphname = e;
layers = (
{
layerId = "36f52ca2-ef18-4734-b79f-232be43107ca";
name = Fore;
shapes = (
{
closed = 1;
nodes = (
(194,58,o),
(266,58,q),
(338,58,o),
(399,119,q),
(413,105,l),
(346,20,o),
(252,-12,q),
(155,-12,o),
(100,49.5,q),
(45,111,o),
(45,215.5,q),
(45,320,o),
(110,412,q),
(175,504,o),
(276,533,q),
(349,533,o),
(441,518,q),
(440,496,l),
(421,496,o),
(404,489,q),
(385,444,o),
(379,382,q),
(354,382,l),
(346,416,o),
(346,452,q),
(308,471,o),
(256,471,q),
(204,471,o),
(170,443,q),
(136,381,o),
(131,295,q),
(173,288,o),
(221,288,q),
(304,288,o),
(321,323,q),
(342,320,l),
(333,290,o),
(333,261,q),
(333,232,o),
(340,190,q),
(316,186,l),
(305,216,o),
(300,248,q),
(260,252,o),
(220.5,252,q),
(181,252,o),
(131,247,q),
(134,158,o),
(164,108,q)
);
}
);
width = 448;
}
);
unicode = 101;
},
{
category = Letter;
glyphname = f;
layers = (
{
layerId = "36f52ca2-ef18-4734-b79f-232be43107ca";
name = Fore;
shapes = (
{
closed = 1;
nodes = (
(316,484,o),
(270,484,q),
(224,484,o),
(200,480,q),
(192,426,o),
(192,295,q),
(227,288,o),
(259,288,q),
(318,288,o),
(335,323,q),
(356,320,l),
(347,290,o),
(347,261,q),
(347,232,o),
(354,190,q),
(330,186,l),
(319,216,o),
(314,248,q),
(274,252,o),
(254,252,q),
(234,252,o),
(192,247,q),
(192,111,o),
(201,33,q),
(245,28,o),
(290,17,q),
(287,-8,l),
(238,0,o),
(169,0,q),
(100,0,o),
(49,-8,q),
(45,18,l),
(75,28,o),
(108,33,q),
(117,105,o),
(117,237,q),
(117,284,l),
(117,376,o),
(107,488,q),
(71,495,o),
(43,506,q),
(46,531,l),
(121,521,o),
(239.5,521,q),
(358,521,o),
(423,532,q),
(428,512,l),
(388,470,o),
(383,387,q),
(358,387,l),
(351,420,o),
(351,467,q)
);
}
);
width = 440;
}
);
unicode = 102;
},
{
category = Letter;
glyphname = g;
layers = (
{
layerId = "36f52ca2-ef18-4734-b79f-232be43107ca";
name = Fore;
shapes = (
{
closed = 1;
nodes = (
(312,58,o),
(354,83,q),
(352,141,l),
(349,188,o),
(349,190,q),
(321,199,o),
(281,206,q),
(284,227,l),
(308,225,o),
(319,225,q),
(388,225,o),
(444,262,q),
(454,244,l),
(442,233,o),
(432,221,q),
(418,85,o),
(414,-3,q),
(393,-3,l),
(385,34,o),
(369,58,q),
(311,7,o),
(252,-12,q),
(155,-12,o),
(100,49.5,q),
(45,111,o),
(45,215.5,q),
(45,320,o),
(110,412,q),
(175,504,o),
(276,533,q),
(349,533,o),
(441,518,q),
(440,496,l),
(421,496,o),
(404,489,q),
(385,444,o),
(379,382,q),
(354,382,l),
(346,416,o),
(346,452,q),
(308,471,o),
(256,471,q),
(204,471,o),
(170,443,q),
(130,370,o),
(130,270.5,q),
(130,171,o),
(159.5,114.5,q),
(189,58,o),
(269,58,q)
);
}
);
width = 492;
}
);
unicode = 103;
},
{
category = Letter;
glyphname = h;
layers = (
{
layerId = "36f52ca2-ef18-4734-b79f-232be43107ca";
name = Fore;
shapes = (
{
closed = 1;
nodes = (
(410,521,o),
(474.5,521,q),
(539,521,o),
(591,528,q),
(594,503,l),
(556,493,o),
(511,488,q),
(501,426,o),
(501,284,q),
(501,237,l),
(501,93,o),
(511,33,q),
(556,28,o),
(594,18,q),
(591,-7,l),
(539,0,o),
(474.5,0,q),
(410,0,o),
(359,-8,q),
(355,18,l),
(383,27,o),
(418,33,q),
(426,146,o),
(427,259,q),
(363,265,o),
(309,265,q),
(255,265,o),
(192,259,q),
(192,94,o),
(201,33,q),
(246,28,o),
(284,18,q),
(281,-7,l),
(229,0,o),
(164.5,0,q),
(100,0,o),
(49,-8,q),
(45,18,l),
(73,27,o),
(108,33,q),
(117,105,o),
(117,237,q),
(117,284,l),
(117,416,o),
(107,488,q),
(72,494,o),
(44,503,q),
(48,529,l),
(99,521,o),
(163.5,521,q),
(228,521,o),
(280,528,q),
(283,503,l),
(245,493,o),
(200,488,q),
(192,430,o),
(192,309,q),
(248,301,o),
(312.5,301,q),
(377,301,o),
(427,308,q),
(426,393,o),
(418,488,q),
(383,494,o),
(355,503,q),
(359,529,l)
);
}
);
width = 618;
}
);
unicode = 104;
},
{
category = Letter;
glyphname = i;
layers = (
{
layerId = "36f52ca2-ef18-4734-b79f-232be43107ca";
name = Fore;
shapes = (
{
closed = 1;
nodes = (
(192,434,o),
(192,267,q),
(192,100,o),
(201,33,q),
(246,28,o),
(284,18,q),
(281,-7,l),
(229,0,o),
(164.5,0,q),
(100,0,o),
(49,-8,q),
(45,18,l),
(73,27,o),
(108,33,q),
(117,105,o),
(117,237,q),
(117,284,l),
(117,416,o),
(107,488,q),
(72,494,o),
(44,503,q),
(48,529,l),
(99,521,o),
(163.5,521,q),
(228,521,o),
(280,528,q),
(283,503,l),
(245,493,o),
(200,488,q)
);
}
);
width = 309;
}
);
unicode = 105;
},
{
category = Letter;
glyphname = j;
layers = (
{
layerId = "36f52ca2-ef18-4734-b79f-232be43107ca";
name = Fore;
shapes = (
{
closed = 1;
nodes = (
(117,283,l),
(117,434,o),
(109,488,q),
(64,493,o),
(26,503,q),
(29,528,l),
(81,521,o),
(145.5,521,q),
(210,521,o),
(261,529,q),
(265,503,l),
(237,494,o),
(202,488,q),
(192,416,o),
(192,284,q),
(192,237,l),
(192,105,o),
(201,33,q),
(177,-20,o),
(131,-67,q),
(85,-114,o),
(29,-146,q),
(12,-127,l),
(71,-82,o),
(94,-22.5,q),
(117,37,o),
(117,123,q)
);
}
);
width = 296;
}
);
unicode = 106;
},
{
category = Letter;
glyphname = k;
layers = (
{
layerId = "36f52ca2-ef18-4734-b79f-232be43107ca";
name = Fore;
shapes = (
{
closed = 1;
nodes = (
(192,242,l),
(294,350,o),
(324.5,397.5,q),
(355,445,o),
(355,471.5,q),
(355,498,o),
(340,509,q),
(345,526,l),
(367,521,o),
(408.5,521,q),
(450,521,o),
(510,529,q),
(514,503,l),
(491,495,o),
(447,487,q),
(438,419,o),
(331,318,q),
(463,34,l),
(505,27,o),
(529,18,q),
(525,-8,l),
(488,0,o),
(428.5,0,q),
(369,0,o),
(345,-5,q),
(340,12,l),
(354,26,o),
(354,54,q),
(354,121,o),
(275,272,q),
(255,255,o),
(192,203,q),
(195,81,o),
(201,33,q),
(246,28,o),
(284,18,q),
(281,-7,l),
(229,0,o),
(164.5,0,q),
(100,0,o),
(49,-8,q),
(45,18,l),
(73,27,o),
(108,33,q),
(117,105,o),
(117,237,q),
(117,284,l),
(117,416,o),
(107,488,q),
(72,494,o),
(44,503,q),
(48,529,l),
(99,521,o),
(163.5,521,q),
(228,521,o),
(280,528,q),
(283,503,l),
(245,493,o),
(200,488,q),
(192,434,o),
(192,283,q)
);
}
);
width = 525;
}
);
unicode = 107;
},
{
category = Letter;
glyphname = l;
layers = (
{
layerId = "36f52ca2-ef18-4734-b79f-232be43107ca";
name = Fore;
shapes = (
{
closed = 1;
nodes = (
(344,0,o),
(232.5,0,q),
(121,0,o),
(46,-10,q),
(43,15,l),
(71,26,o),
(107,33,q),
(117,93,o),
(117,237,q),
(117,284,l),
(117,408,o),
(107,488,q),
(74,493,o),
(44,503,q),
(48,529,l),
(99,521,o),
(168,521,q),
(237,521,o),
(286,529,q),
(289,504,l),
(244,493,o),
(200,488,q),
(192,434,o),
(192,265.5,q),
(192,97,o),
(200,41,q),
(224,37,o),
(268,37,q),
(312,37,o),
(347,54,q),
(361,88,o),
(361,134,q),
(386,134,l),
(390,57,o),
(414,9,q),
(409,-11,l)
);
}
);
width = 407;
}
);
unicode = 108;
},
{
category = Letter;
glyphname = m;
layers = (
{
layerId = "36f52ca2-ef18-4734-b79f-232be43107ca";
name = Fore;
shapes = (
{
closed = 1;
nodes = (
(302,118,o),
(271,241.5,q),
(240,365,o),
(202,481,q),
(198,480,l),
(173,294,l),
(157,179,o),
(157,87,q),
(157,31,o),
(192,12,q),
(188,-5,l),
(158,0,o),
(109.5,0,q),
(61,0,o),
(3,-8,q),
(-1,18,l),
(33,29,o),
(63,34,q),
(156,490,l),
(104,499,o),
(79,506,q),
(82,532,l),
(154,521,o),
(215.5,521,q),
(277,521,o),
(311,528,q),
(313,511,l),
(286,504,o),
(286,488,q),
(286,466,o),
(348,234,q),
(370,159,l),
(377,161,l),
(377,187,o),
(468,487,q),
(468,504,o),
(441,511,q),
(443,528,l),
(477,521,o),
(539.5,521,q),
(602,521,o),
(673,532,q),
(676,506,l),
(649,499,o),
(607,491,q),
(604,467,o),
(604,420.5,q),
(604,374,o),
(617,230,q),
(630,86,o),
(641,32,q),
(678,27,o),
(717,18,q),
(714,-7,l),
(662,0,o),
(598.5,0,q),
(535,0,o),
(484,-8,q),
(480,18,l),
(513,28,o),
(551,33,q),
(548,269,o),
(519,478,q),
(516,478,l),
(413,174,o),
(406,84,q),
(385,77,o),
(357,58.5,q),
(329,40,o),
(314,22,q),
(302,30,l),
(302,56,l)
);
}
);
width = 724;
}
);
unicode = 109;
},
{
category = Letter;
glyphname = n;
layers = (
{
layerId = "36f52ca2-ef18-4734-b79f-232be43107ca";
name = Fore;
shapes = (
{
closed = 1;
nodes = (
(232,0,o),
(167.5,0,q),
(103,0,o),
(52,-8,q),
(48,18,l),
(80,28,o),
(108,33,q),
(117,111,o),
(117,237,q),
(117,284,l),
(117,418,o),
(107,490,q),
(80,493,o),
(42,506,q),
(45,532,l),
(102,521,o),
(164.5,521,q),
(227,521,o),
(254,528,q),
(256,511,l),
(229,504,o),
(229,488,q),
(229,476,o),
(252.5,437.5,q),
(276,399,o),
(298,363,q),
(364,258,o),
(454,105,q),
(457,107,l),
(457,229,l),
(457,363,o),
(443,430.5,q),
(429,498,o),
(395,509,q),
(397,526,l),
(423,521,o),
(475,521,q),
(527,521,o),
(582,532,q),
(585,506,l),
(544,493,o),
(516,490,q),
(506,410,o),
(506,284,q),
(506,237,l),
(506,85,o),
(516,31,q),
(558,24,o),
(583,15,q),
(580,-11,l),
(530,0,o),
(486,0,q),
(442,0,o),
(418,-4,q),
(418,18,o),
(387.5,70,q),
(357,122,o),
(332,162,q),
(251,293,o),
(173,428,q),
(169,426,l),
(169,292,l),
(169,93,o),
(199,33,q),
(244,28,o),
(287,18,q),
(284,-7,l)
);
}
);
width = 623;
}
);
unicode = 110;
},
{
category = Letter;
glyphname = o;
layers = (
{
layerId = "36f52ca2-ef18-4734-b79f-232be43107ca";
name = Fore;
shapes = (
{
closed = 1;
nodes = (
(42,113,o),
(42,218,q),
(42,323,o),
(106,415,q),
(170,507,o),
(273,533,q),
(376,533,o),
(430,474.5,q),
(484,416,o),
(484,308,q),
(484,200,o),
(425.5,113,q),
(367,26,o),
(263,-12,q),
(164,-12,o),
(103,50.5,q)
);
},
{
closed = 1;
nodes = (
(201,472,o),
(168,447,q),
(127,377,o),
(127,271,q),
(127,149,o),
(195,84,q),
(231,49,o),
(280,49,q),
(329,49,o),
(359,75,q),
(399,145,o),
(399,246,q),
(399,347,o),
(363,409.5,q),
(327,472,o),
(246,472,q)
);
}
);
width = 526;
}
);
unicode = 111;
},
{
category = Letter;
glyphname = p;
layers = (
{
layerId = "36f52ca2-ef18-4734-b79f-232be43107ca";
name = Fore;
shapes = (
{
closed = 1;
nodes = (
(275,526,l),
(456,526,o),
(456,395,q),
(456,322,o),
(391.5,277,q),
(327,232,o),
(245,232,q),
(233,232,o),
(228,233,q),
(232,266,l),
(241,266,l),
(303,266,o),
(333.5,293,q),
(364,320,o),
(364,378,q),
(364,436,o),
(339.5,463.5,q),
(315,491,o),
(261,491,q),
(228,491,o),
(199,480,q),
(192,414,o),
(192,256,q),
(192,98,o),
(201,33,q),
(243,28,o),
(289,17,q),
(286,-8,l),
(237,0,o),
(168,0,q),
(99,0,o),
(48,-8,q),
(44,18,l),
(74,28,o),
(107,33,q),
(117,103,o),
(117,251.5,q),
(117,400,o),
(108,481,q),
(73,494,o),
(43,494,q),
(43,519,l)
);
}
);
width = 460;
}
);
unicode = 112;
},
{
category = Letter;
glyphname = q;
layers = (
{
layerId = "36f52ca2-ef18-4734-b79f-232be43107ca";
name = Fore;
shapes = (
{
closed = 1;
nodes = (
(42,117,o),
(42,220,q),
(42,323,o),
(106,415,q),
(170,507,o),
(273,533,q),
(376,533,o),
(430,474.5,q),
(484,416,o),
(484,311.5,q),
(484,207,o),
(431.5,122.5,q),
(379,38,o),
(285,-3,q),
(323,-4,o),
(405,-40,q),
(487,-76,o),
(509,-82,q),
(541,-70,o),
(568,-54,q),
(580,-72,l),
(533,-106,o),
(495,-177,q),
(473,-161,l),
(422,-124,o),
(358.5,-95.5,q),
(295,-67,o),
(246,-67,q),
(197,-67,o),
(159,-96,q),
(142,-80,l),
(184,-36,o),
(245,-11,q),
(154,-5,o),
(98,56,q)
);
},
{
closed = 1;
nodes = (
(201,472,o),
(168,447,q),
(127,377,o),
(127,271,q),
(127,149,o),
(195,84,q),
(231,49,o),
(280,49,q),
(329,49,o),
(359,75,q),
(399,145,o),
(399,246,q),
(399,347,o),
(363,409.5,q),
(327,472,o),
(246,472,q)
);
}
);
width = 526;
}
);
unicode = 113;
},
{
category = Letter;
glyphname = r;
layers = (
{
layerId = "36f52ca2-ef18-4734-b79f-232be43107ca";
name = Fore;
shapes = (
{
closed = 1;
nodes = (
(273,526,l),
(363,526,o),
(408,499.5,q),
(453,473,o),
(453,403,q),
(453,355,o),
(423.5,318,q),
(394,281,o),
(346,263,q),
(458,34,l),
(492,28,o),
(522,20,q),
(518,-7,l),
(476,0,o),
(423.5,0,q),
(371,0,o),
(341,-5,q),
(337,11,l),
(350,24,o),
(350,54,q),
(350,115,o),
(280,250,q),
(259,254,o),
(231,254,q),
(233,283,l),
(243,283,l),
(361,283,o),
(361,391,q),
(361,491,o),
(260,491,q),
(226,491,o),
(199,480,q),
(192,414,o),
(192,254,q),
(192,94,o),
(201,33,q),
(245,28,o),
(283,18,q),
(280,-7,l),
(228,0,o),
(163.5,0,q),
(99,0,o),
(48,-8,q),
(44,18,l),
(72,27,o),
(107,33,q),
(117,108,o),
(117,266.5,q),
(117,425,o),
(108,486,q),
(69,499,o),
(43,499,q),
(43,519,l)
);
}
);
width = 526;
}
);
unicode = 114;
},
{
category = Letter;
glyphname = s;
layers = (
{
layerId = "36f52ca2-ef18-4734-b79f-232be43107ca";
name = Fore;
shapes = (
{
closed = 1;
nodes = (
(247,57,o),
(274,78,q),
(301,99,o),
(301,138,q),
(301,178,o),
(188,237,q),
(145,259,o),
(109.5,290.5,q),
(74,322,o),
(74,353,q),
(74,406,o),
(130,460,q),
(186,514,o),
(245,533,q),
(319,533,o),
(379,518,q),
(379,500,l),
(337,458,o),
(332,385,q),
(307,385,l),
(307,413,o),
(302,455,q),
(267,471,o),
(227,471,q),
(187,471,o),
(160.5,453.5,q),
(134,436,o),
(134,403,q),
(134,380,o),
(169.5,353,q),
(205,326,o),
(247,305,q),
(289,284,o),
(324.5,253,q),
(360,222,o),
(360,191,q),
(360,131,o),
(307,71.5,q),
(254,12,o),
(190,-12,q),
(127,-12,o),
(72,3,q),
(56,-4,o),
(39,-20,q),
(21,-7,l),
(77,54,o),
(83,144,q),
(108,144,l),
(108,109,o),
(111,76,q),
(157,57,o),
(202,57,q)
);
}
);
width = 421;
}
);
unicode = 115;
},
{
category = Letter;
glyphname = t;
layers = (
{
layerId = "36f52ca2-ef18-4734-b79f-232be43107ca";
name = Fore;
shapes = (
{
closed = 1;
nodes = (
(335,484,o),
(303,484,q),
(271,484,o),
(260,480,q),
(252,426,o),
(252,271,q),
(252,116,o),
(263,33,q),
(308,28,o),
(346,18,q),
(343,-7,l),
(291,0,o),
(223.5,0,q),
(156,0,o),
(105,-8,q),
(101,18,l),
(121,24,o),
(170,33,q),
(179,105,o),
(179,237,q),
(179,284,l),
(179,354,o),
(168,480,q),
(157,484,o),
(127,484,q),
(97,484,o),
(63,470,q),
(53,439,o),
(49,387,q),
(23,387,l),
(23,469,o),
(-4,514,q),
(1,531,l),
(78,521,o),
(217,521,q),
(356,521,o),
(441,532,q),
(447,513,l),
(422,485,o),
(413,458.5,q),
(404,432,o),
(402,387,q),
(377,387,l),
(370,420,o),
(370,467,q)
);
}
);
width = 431;
}
);
unicode = 116;
},
{
category = Letter;
glyphname = u;
layers = (
{
layerId = "36f52ca2-ef18-4734-b79f-232be43107ca";
name = Fore;
shapes = (
{
closed = 1;
nodes = (
(461,237,l),
(461,100,o),
(471,32,q),
(517,26,o),
(547,18,q),
(544,-7,l),
(495,0,o),
(443.5,0,q),
(392,0,o),
(373,-3,q),
(369,10,l),
(378,20,o),
(381,67,q),
(329,13,o),
(261,-12,q),
(89,-12,o),
(89,193,q),
(89,238,o),
(96,337,q),
(103,436,o),
(103,453,q),
(103,470,o),
(97,486,q),
(97,487,l),
(55,494,o),
(30,502,q),
(34,529,l),
(92,521,o),
(139,521,q),
(186,521,o),
(216,526,q),
(220,509,l),
(184,490,o),
(178,440,q),
(166,344,o),
(166,243,q),
(166,142,o),
(189.5,99.5,q),
(213,57,o),
(277.5,57,q),
(342,57,o),
(382,94,q),
(386,174,o),
(386,283,q),
(386,392,o),
(378,488,q),
(333,493,o),
(295,503,q),
(298,528,l),
(350,521,o),
(414.5,521,q),
(479,521,o),
(530,529,q),
(534,503,l),
(506,494,o),
(471,488,q),
(461,421,o),
(461,284,q)
);
}
);
width = 578;
}
);
unicode = 117;
},
{
category = Letter;
glyphname = v;
layers = (
{
layerId = "36f52ca2-ef18-4734-b79f-232be43107ca";
name = Fore;
shapes = (
{
closed = 1;
nodes = (
(310,0,o),
(245.5,0,q),
(181,0,o),
(152,-4,q),
(149,12,l),
(158,14,o),
(166.5,22.5,q),
(175,31,o),
(175,38,q),
(175,95,o),
(70,423,q),
(56,467,o),
(46,487,q),
(13,491,o),
(-26,503,q),
(-22,529,l),
(18,521,o),
(93,521,q),
(168,521,o),
(216,529,q),
(220,504,l),
(166,492,o),
(146,489,q),
(153,423,o),
(187.5,294,q),
(222,165,o),
(262,55,q),
(329,204,o),
(351.5,281,q),
(374,358,o),
(374,422,q),
(374,486,o),
(333,508,q),
(337,525,l),
(367,520,o),
(413.5,520,q),
(460,520,o),
(518,528,q),
(522,502,l),
(488,491,o),
(458,486,q),
(462,456,o),
(462,431.5,q),
(462,407,o),
(454.5,372.5,q),
(447,338,o),
(420,278,q),
(385,204,o),
(294,33,q),
(314,31,o),
(358,16,q),
(353,-6,l)
);
}
);
width = 509;
}
);
unicode = 118;
},
{
category = Letter;
glyphname = w;
layers = (
{
layerId = "36f52ca2-ef18-4734-b79f-232be43107ca";
name = Fore;
shapes = (
{
closed = 1;
nodes = (
(291,0,o),
(232.5,0,q),
(174,0,o),
(145,-4,q),
(142,12,l),
(151,14,o),
(159.5,22.5,q),
(168,31,o),
(168,38,q),
(168,95,o),
(63,423,q),
(49,467,o),
(39,487,q),
(18,490,o),
(-26,504,q),
(-22,530,l),
(66,521,o),
(239.5,521,q),
(413,521,o),
(491,529,q),
(495,503,l),
(451,488,o),
(436,486,q),
(438,471,o),
(438,431.5,q),
(438,392,o),
(425,337,q),
(459,204,o),
(513,55,q),
(573,204,o),
(593,281,q),
(613,358,o),
(613,422,q),
(613,486,o),
(572,508,q),
(576,525,l),
(606,520,o),
(649,520,q),
(692,520,o),
(750,528,q),
(754,502,l),
(714,489,o),
(697,486,q),
(701,456,o),
(701,444,q),
(701,371,o),
(668,288,q),
(635,205,o),
(543,33,q),
(562,24,o),
(589,16,q),
(584,-6,l),
(548,0,o),
(491.5,0,q),
(435,0,o),
(406,-4,q),
(403,12,l),
(412,14,o),
(420.5,22.5,q),
(429,31,o),
(429,38,q),
(429,75,o),
(380,240,q),
(318,97,o),
(286,33,q),
(305,24,o),
(332,16,q),
(327,-6,l)
);
},
{
closed = 1;
nodes = (
(353,356,o),
(353,410,q),
(353,464,o),
(333,481,q),
(313,498,o),
(254.5,498,q),
(196,498,o),
(139,487,q),
(146,421,o),
(180.5,293,q),
(215,165,o),
(255,55,q),
(314,202,o),
(333.5,279,q)
);
}
);
width = 743;
}
);
unicode = 119;
},
{
category = Letter;
glyphname = x;
layers = (
{
layerId = "36f52ca2-ef18-4734-b79f-232be43107ca";
name = Fore;
shapes = (
{
closed = 1;
nodes = (
(188,0,o),
(112.5,0,q),
(37,0,o),
(-3,-8,q),
(-7,18,l),
(35,31,o),
(59,34,q),
(78,63,o),
(141.5,147,q),
(205,231,o),
(228,262,q),
(78,487,l),
(49,490,o),
(11,503,q),
(15,529,l),
(55,521,o),
(138,521,q),
(221,521,o),
(269,529,q),
(273,504,l),
(221,492,o),
(198,489,q),
(200,449,o),
(281,316,q),
(365,455,o),
(365,484,q),
(365,502,o),
(338,509,q),
(342,526,l),
(372,521,o),
(420.5,521,q),
(469,521,o),
(527,529,q),
(531,503,l),
(503,494,o),
(461,487,q),
(447,465,o),
(387.5,387.5,q),
(328,310,o),
(304,278,q),
(464,34,l),
(506,27,o),
(534,18,q),
(530,-8,l),
(472,0,o),
(422,0,q),
(372,0,o),
(342,-5,q),
(338,12,l),
(346,17,o),
(346,30,q),
(346,77,o),
(254,229,q),
(158,69,o),
(151,32,q),
(153,32,l),
(206,25,o),
(240,17,q),
(236,-8,l)
);
}
);
width = 527;
}
);
unicode = 120;
},
{
category = Letter;
glyphname = y;
layers = (
{
layerId = "36f52ca2-ef18-4734-b79f-232be43107ca";
name = Fore;
shapes = (
{
closed = 1;
nodes = (
(336,503,o),
(309,509,q),
(313,526,l),
(343,521,o),
(391.5,521,q),
(440,521,o),
(498,529,q),
(502,503,l),
(476,494,o),
(436,488,q),
(270,238,l),
(270,108,o),
(280,33,q),
(324,28,o),
(362,18,q),
(359,-7,l),
(307,0,o),
(239.5,0,q),
(172,0,o),
(121,-8,q),
(117,18,l),
(136,24,o),
(185,33,q),
(194,87,o),
(194,196,q),
(194,217,l),
(78,451,o),
(47,489,q),
(19,492,o),
(-15,503,q),
(-11,529,l),
(29,521,o),
(104,521,q),
(179,521,o),
(227,529,q),
(231,504,l),
(184,493,o),
(152,489,q),
(186,385,o),
(247,270,q),
(336,443,o),
(336,487,q)
);
}
);
width = 465;
}
);
unicode = 121;
},
{
category = Letter;
glyphname = z;
layers = (
{
layerId = "36f52ca2-ef18-4734-b79f-232be43107ca";
name = Fore;
shapes = (
{
closed = 1;
nodes = (
(378,512,o),
(411,542,q),
(432,526,l),
(404,501,o),
(368,439,q),
(151,64,l),
(154,62,l),
(274,62,l),
(319,62,o),
(339,77,q),
(344,110,o),
(344,146,q),
(370,146,l),
(376,55,o),
(432,-2,q),
(412,-16,l),
(408,-10,o),
(396,-2,q),
(282,17,o),
(120,17,q),
(53,17,o),
(25,-16,q),
(4,1,l),
(49,46,o),
(78,94,q),
(305,464,l),
(303,466,l),
(195,466,l),
(146,466,o),
(111,451,q),
(105,416,o),
(91,384,q),
(67,387,l),
(69,417,o),
(69,442,q),
(69,467,o),
(61,498,q),
(45,507,o),
(27,511,q),
(29,533,l),
(46,533,o),
(156.5,522.5,q),
(267,512,o),
(334,512,q)
);
}
);
width = 440;
}
);
unicode = 122;
},
{
category = Letter;
glyphname = braceleft;
layers = (
{
layerId = "36f52ca2-ef18-4734-b79f-232be43107ca";
name = Fore;
shapes = (
{
closed = 1;
nodes = (
(89,-117,o),
(89,-71,q),
(89,-25,o),
(102.5,57.5,q),
(116,140,o),
(116,187,q),
(116,223,o),
(48,236,q),
(44,255,l),
(116,271,o),
(116,309,q),
(116,356,o),
(102.5,439,q),
(89,522,o),
(89,567.5,q),
(89,613,o),
(132.5,655,q),
(176,697,o),
(224,711,q),
(228,697,l),
(201,683,o),
(177,657,q),
(153,631,o),
(144,604,q),
(144,557,o),
(166.5,463,q),
(189,369,o),
(189,329,q),
(175,295,o),
(98,250,q),
(98,246,l),
(175,201,o),
(189,167,q),
(189,127,o),
(166.5,33,q),
(144,-61,o),
(144,-108,q),
(153,-135,o),
(177,-161,q),
(201,-187,o),
(228,-201,q),
(224,-215,l),
(176,-201,o),
(132.5,-159,q)
);
}
);
width = 300;
}
);
unicode = 123;
},
{
category = Letter;
glyphname = bar;
layers = (
{
layerId = "36f52ca2-ef18-4734-b79f-232be43107ca";
name = Fore;
shapes = (
{
closed = 1;
nodes = (
(126,-209,o),
(103,-216,q),
(96,-213,l),
(96,476,o),
(89,723,q),
(123,737,o),
(141,750,q),
(146,749,l),
(144,607,o),
(144,-199,q)
);
}
);
width = 238;
}
);
unicode = 124;
},
{
category = Letter;
glyphname = braceright;
layers = (
{
layerId = "36f52ca2-ef18-4734-b79f-232be43107ca";
name = Fore;
shapes = (
{
closed = 1;
nodes = (
(211,613,o),
(211,567.5,q),
(211,522,o),
(197.5,439,q),
(184,356,o),
(184,309,q),
(184,271,o),
(256,255,q),
(252,236,l),
(184,223,o),
(184,187,q),
(184,140,o),
(197.5,57.5,q),
(211,-25,o),
(211,-71,q),
(211,-117,o),
(167.5,-159,q),
(124,-201,o),
(76,-215,q),
(72,-201,l),
(99,-187,o),
(123,-161,q),
(147,-135,o),
(156,-108,q),
(156,-61,o),
(133.5,33,q),
(111,127,o),
(111,167,q),
(125,201,o),
(202,246,q),
(202,250,l),
(125,295,o),
(111,329,q),
(111,369,o),
(133.5,463,q),
(156,557,o),
(156,604,q),
(147,631,o),
(123,657,q),
(99,683,o),
(72,697,q),
(76,711,l),
(124,697,o),
(167.5,655,q)
);
}
);
width = 288;
}
);
unicode = 125;
},
{
category = Letter;
glyphname = asciitilde;
layers = (
{
layerId = "36f52ca2-ef18-4734-b79f-232be43107ca";
name = Fore;
shapes = (
{
closed = 1;
nodes = (
(473,258,o),
(522,316,q),
(540,305,l),
(520,267,o),
(476,233.5,q),
(432,200,o),
(389,188,q),
(356,188,o),
(279,221,q),
(202,254,o),
(169,254,q),
(103,254,o),
(68,200,q),
(50,211,l),
(72,252,o),
(119.5,287.5,q),
(167,323,o),
(211,328,q),
(254,299,o),
(307,278.5,q),
(360,258,o),
(404,258,q)
);
}
);
width = 590;
}
);
unicode = 126;
},
{
category = Letter;
glyphname = exclamdown;
layers = (
{
layerId = "36f52ca2-ef18-4734-b79f-232be43107ca";
name = Fore;
shapes = (
{
closed = 1;
nodes = (
(73,447,o),
(90,462.5,q),
(107,478,o),
(120,486,q),
(134,479,o),
(151,463.5,q),
(168,448,o),
(174,436,q),
(167,423,o),
(149.5,403,q),
(132,383,o),
(120,375,q),
(108,383,o),
(90.5,403,q),
(73,423,o),
(66,436,q)
);
},
{
closed = 1;
nodes = (
(142,-189,o),
(118,-194.5,q),
(94,-200,o),
(86.5,-200,q),
(79,-200,o),
(77,-200,q),
(66,-190,o),
(45,-160,q),
(92,-3,o),
(107,299,q),
(133,301,l),
(154,-183,l)
);
}
);
width = 226;
}
);
unicode = 161;
},
{
category = Letter;
glyphname = cent;
layers = (
{
layerId = "36f52ca2-ef18-4734-b79f-232be43107ca";
name = Fore;
shapes = (
{
closed = 1;
nodes = (
(319,72,o),
(378,125,q),
(388,115,l),
(336,41,o),
(261,6,q),
(260,-92,l),
(255,-92,l),
(239,-87,o),
(228,-77,q),
(234,0,l),
(153,4,o),
(114.5,58.5,q),
(76,113,o),
(76,206,q),
(76,299,o),
(123.5,378.5,q),
(171,458,o),
(250,490,q),
(254,588,l),
(269,590,o),
(282,594,q),
(286,591,l),
(281,557,o),
(278,500,q),
(339,500,o),
(399,484,q),
(399,470,l),
(360,422,o),
(356,365,q),
(334,365,l),
(334,404,o),
(332,426,q),
(294,436,o),
(276,437,q),
(263,72,l),
(264,72,l)
);
},
{
closed = 1;
nodes = (
(211,81,o),
(236,75,q),
(248,438,l),
(210,436,o),
(185,414,q),
(156,353,o),
(156,244.5,q),
(156,136,o),
(194,98,q)
);
}
);
width = 450;
}
);
unicode = 162;
},
{
category = Letter;
glyphname = sterling;
layers = (
{
layerId = "36f52ca2-ef18-4734-b79f-232be43107ca";
name = Fore;
shapes = (
{
closed = 1;
nodes = (
(99,241,l),
(99,242,l),
(60,239,l),
(51,245,l),
(57,291,l),
(103,291,l),
(117,377,o),
(173,446.5,q),
(229,516,o),
(312,538,q),
(381,538,o),
(440,522,q),
(440,508,l),
(403,462,o),
(397,395,q),
(375,395,l),
(375,436,o),
(372,459,q),
(330,473,o),
(286,473,q),
(242,473,o),
(212,447,q),
(181,382,o),
(181,293,q),
(238,295,o),
(325,305,q),
(333,300,l),
(327,258,l),
(179,247,l),
(172,150,o),
(130,88,q),
(133,85,l),
(148,92,o),
(160,95,q),
(168,95,o),
(176,95,q),
(269,95,o),
(364,74,q),
(374,96,o),
(387,132,q),
(408,125,l),
(397,86,o),
(397,53.5,q),
(397,21,o),
(404,-8,q),
(392,-16,l),
(238,30,o),
(103,30,q),
(72,13,o),
(43,-16,q),
(26,-1,l),
(63,36,o),
(98,88,q),
(104,109,o),
(104,136,q)
);
}
);
width = 450;
}
);
unicode = 163;
},
{
category = Letter;
glyphname = currency;
layers = (
{
layerId = "36f52ca2-ef18-4734-b79f-232be43107ca";
name = Fore;
shapes = (
{
closed = 1;
nodes = (
(507,568,l),
(549,554,o),
(560,552,q),
(562,548,l),
(463,455,l),
(496,413,o),
(496,350,q),
(496,261,o),
(439,198,q),
(524,117,o),
(562,83,q),
(560,79,l),
(549,77,o),
(507,63,q),
(406,168,l),
(355,129,o),
(289,116,q),
(207,116,o),
(152,152,q),
(61,63,l),
(56,63,l),
(37,84,o),
(32,110,q),
(57,131,o),
(115,185,q),
(81,227,o),
(81,286,q),
(81,370,o),
(133,431,q),
(78,481,o),
(32,521,q),
(37,547,o),
(56,568,q),
(61,568,l),
(166,464,l),
(222,509,o),
(301,523,q),
(377,523,o),
(430,487,q)
);
},
{
closed = 1;
nodes = (
(347,469,o),
(281,469,q),
(215,469,o),
(186,443,q),
(154,398,o),
(154,327,q),
(154,256,o),
(192,213,q),
(230,170,o),
(296,170,q),
(362,170,o),
(391,196,q),
(423,241,o),
(423,312.5,q),
(423,384,o),
(385,426.5,q)
);
}
);
width = 567;
}
);
unicode = 164;
},
{
category = Letter;
glyphname = yen;
layers = (
{
layerId = "36f52ca2-ef18-4734-b79f-232be43107ca";
name = Fore;
shapes = (
{
closed = 1;
nodes = (
(41,523,o),
(91,523,q),
(141,523,o),
(201,534,q),
(206,514,l),
(174,504,o),
(156,493,q),
(169,434,o),
(249,271,q),
(335,439,o),
(335,491,q),
(335,510,o),
(322,523,q),
(325,530,l),
(354,523,o),
(395.5,523,q),
(437,523,o),
(465,527,q),
(467,505,l),
(432,501,o),
(413,492,q),
(269,246,l),
(269,245,l),
(313,247,l),
(376,250,o),
(397,252,q),
(401,232,o),
(406,221,q),
(406,216,l),
(269,214,l),
(269,180,o),
(270,165,q),
(313,167,l),
(376,170,o),
(397,172,q),
(401,152,o),
(406,141,q),
(406,136,l),
(271,134,l),
(272,85,o),
(280,30,q),
(308,24,o),
(343,11,q),
(341,-8,l),
(285,0,o),
(235,0,q),
(185,0,o),
(134,-6,q),
(131,13,l),
(161,26,o),
(190,33,q),
(194,67,o),
(197,132,q),
(186,132,l),
(114,130,o),
(68,123,q),
(65,127,l),
(71,147,o),
(72,159,q),
(198,163,l),
(199,212,l),
(186,212,l),
(114,210,o),
(68,203,q),
(65,207,l),
(71,227,o),
(72,239,q),
(190,243,l),
(104,421,o),
(59,487,q),
(11,496,o),
(-21,509,q),
(-19,529,l)
);
}
);
width = 450;
}
);
unicode = 165;
},
{
category = Letter;
glyphname = brokenbar;
layers = (
{
layerId = "36f52ca2-ef18-4734-b79f-232be43107ca";
name = Fore;
shapes = (
{
closed = 1;
nodes = (
(131,330,o),
(108,323,q),
(101,326,l),
(100,508,o),
(94,725,q),
(128,739,o),
(146,752,q),
(151,751,l),
(149,609,o),
(149,340,q)
);
},
{
closed = 1;
nodes = (
(131,-208,o),
(108,-215,q),
(101,-212,l),
(100,-30,o),
(94,187,q),
(128,201,o),
(146,214,q),
(151,213,l),
(149,71,o),
(149,-198,q)
);
}
);
width = 245;
}
);
unicode = 166;
},
{
category = Letter;
glyphname = section;
layers = (
{
layerId = "36f52ca2-ef18-4734-b79f-232be43107ca";
name = Fore;
shapes = (
{
closed = 1;
nodes = (
(365,168,o),
(365,201.5,q),
(365,235,o),
(336,267.5,q),
(307,300,o),
(266,330.5,q),
(225,361,o),
(184,393,q),
(85,470,o),
(85,535,q),
(108,572,o),
(164.5,613.5,q),
(221,655,o),
(263,666,q),
(327,666,o),
(387,650,q),
(387,636,l),
(348,588,o),
(344,531,q),
(322,531,l),
(322,570,o),
(320,592,q),
(281,604,o),
(241.5,604,q),
(202,604,o),
(179,581,q),
(172,569,o),
(172,547,q),
(172,512,o),
(211.5,472,q),
(251,432,o),
(299.5,401.5,q),
(348,371,o),
(392,330.5,q),
(436,290,o),
(443,256,q),
(435,231,o),
(408.5,192,q),
(382,153,o),
(361,131,q),
(347,144,l)
);
},
{
closed = 1;
nodes = (
(127,-32,l),
(127,-36,l),
(173,-53,o),
(216,-53,q),
(259,-53,o),
(282,-30,q),
(289,-18,o),
(289,4,q),
(289,39,o),
(249.5,79,q),
(210,119,o),
(161.5,149.5,q),
(113,180,o),
(69,220.5,q),
(25,261,o),
(18,295,q),
(26,320,o),
(52.5,359,q),
(79,398,o),
(100,420,q),
(114,407,l),
(96,383,o),
(96,349.5,q),
(96,316,o),
(125,283.5,q),
(154,251,o),
(195,220.5,q),
(236,190,o),
(277,158,q),
(376,81,o),
(376,16,q),
(353,-21,o),
(296.5,-62.5,q),
(240,-104,o),
(198,-115,q),
(126,-115,o),
(60,-94,q),
(60,-80,l),
(99,-32,o),
(103,25,q),
(125,25,l),
(125,25,o),
(125,10,q)
);
}
);
width = 467;
}
);
unicode = 167;
},
{
category = Letter;
glyphname = dieresis;
layers = (
{
layerId = "36f52ca2-ef18-4734-b79f-232be43107ca";
name = Fore;
shapes = (
{
closed = 1;
nodes = (
(101,648,o),
(83.5,628,q),
(66,608,o),
(54,600,q),
(42,608,o),
(24.5,628,q),
(7,648,o),
(0,661,q),
(6,673,o),
(23,688.5,q),
(40,704,o),
(54,711,q),
(67,703,o),
(84,687.5,q),
(101,672,o),
(108,661,q)
);
},
{
closed = 1;
nodes = (
(286,648,o),
(268.5,628,q),
(251,608,o),
(239,600,q),
(227,608,o),
(209.5,628,q),
(192,648,o),
(185,661,q),
(191,673,o),
(208,688.5,q),
(225,704,o),
(239,711,q),
(252,703,o),
(269,687.5,q),
(286,672,o),
(293,661,q)
);
}
);
width = 293;
}
);
unicode = 168;
},
{
category = Letter;
glyphname = copyright;
layers = (
{
layerId = "36f52ca2-ef18-4734-b79f-232be43107ca";
name = Fore;
shapes = (
{
closed = 1;
nodes = (
(333,177,o),
(384.5,177,q),
(436,177,o),
(484,221,q),
(496,208,l),
(452,153,o),
(374,119,q),
(299,119,o),
(261,164,q),
(223,209,o),
(223,287.5,q),
(223,366,o),
(271.5,436,q),
(320,506,o),
(392,531,q),
(455,531,o),
(512,518,q),
(511,501,l),
(494,499,o),
(487,494,q),
(471,459,o),
(466,411,q),
(448,411,l),
(441,441,o),
(441,464,q),
(413,479,o),
(379,479,q),
(345,479,o),
(322,463,q),
(294,409,o),
(294,335,q),
(294,261,o),
(313.5,219,q)
);
},
{
closed = 1;
nodes = (
(42,466,o),
(141.5,566,q),
(241,666,o),
(382,666,q),
(523,666,o),
(623,566,q),
(723,466,o),
(723,325,q),
(723,184,o),
(623,84.5,q),
(523,-15,o),
(382,-15,q),
(241,-15,o),
(141.5,84.5,q),
(42,184,o),
(42,325,q)
);
},
{
closed = 1;
nodes = (
(86,202,o),
(172.5,114.5,q),
(259,27,o),
(382,27,q),
(505,27,o),
(592,114.5,q),
(679,202,o),
(679,325,q),
(679,448,o),
(592,536,q),
(505,624,o),
(382,624,q),
(259,624,o),
(172.5,536,q),
(86,448,o),
(86,325,q)
);
}
);
width = 765;
}
);
unicode = 169;
},
{
category = Letter;
glyphname = ordfeminine;
layers = (
{
layerId = "36f52ca2-ef18-4734-b79f-232be43107ca";
name = Fore;
shapes = (
{
closed = 1;
nodes = (
(38,498,o),
(85,568.5,q),
(132,639,o),
(210,666,q),
(266,666,o),
(327,649,q),
(340,669,o),
(347,692,q),
(364,687,l),
(346,601,o),
(346,474.5,q),
(346,348,o),
(352,300,q),
(367,293,o),
(392,293,q),
(392,275,l),
(345,273,o),
(280,259,q),
(274,262,l),
(283,315,o),
(283,389,q),
(280,389,l),
(251,349,o),
(212.5,311,q),
(174,273,o),
(140,259,q),
(93,259,o),
(65.5,308,q),
(38,357,o),
(38,414,q)
);
},
{
closed = 1;
nodes = (
(109,412,o),
(122.5,370,q),
(136,328,o),
(162,328,q),
(190,328,o),
(230,367.5,q),
(270,407,o),
(283,439,q),
(283,558,o),
(277,594,q),
(240,614,o),
(198,614,q),
(156,614,o),
(135,594,q),
(109,533,o),
(109,451,q)
);
}
);
width = 410;
}
);
unicode = 170;
},
{
category = Letter;
glyphname = guillemotleft;
layers = (
{
layerId = "36f52ca2-ef18-4734-b79f-232be43107ca";
name = Fore;
shapes = (
{
closed = 1;
nodes = (
(219,125,l),
(199,111,l),
(106,218,o),
(21,269,q),
(21,289,l),
(116,341,o),
(199,439,q),
(218,426,l),
(111,283,l)
);
},
{
closed = 1;
nodes = (
(385,142,l),
(365,128,l),
(274,224,o),
(197,271,q),
(197,291,l),
(297,346,o),
(365,426,q),
(384,413,l),
(287,285,l)
);
}
);
width = 413;
}
);
unicode = 171;
},
{
category = Letter;
glyphname = logicalnot;
layers = (
{
layerId = "36f52ca2-ef18-4734-b79f-232be43107ca";
name = Fore;
shapes = (
{
closed = 1;
nodes = (
(59,238,l),
(51,245,l),
(60,296,l),
(229,287,o),
(339,287,q),
(449,287,o),
(488,290,q),
(494,284,l),
(494,220,o),
(499,88,q),
(494,82,l),
(447,91,l),
(447,238,l)
);
}
);
width = 550;
}
);
unicode = 172;
},
{
category = Letter;
glyphname = registered;
layers = (
{
layerId = "36f52ca2-ef18-4734-b79f-232be43107ca";
name = Fore;
shapes = (
{
closed = 1;
nodes = (
(21,582,o),
(78,639,q),
(135,696,o),
(217,696,q),
(299,696,o),
(356,639,q),
(413,582,o),
(413,500,q),
(413,418,o),
(356,361,q),
(299,304,o),
(217,304,q),
(135,304,o),
(78,361,q),
(21,418,o),
(21,500,q)
);
},
{
closed = 1;
nodes = (
(57,432,o),
(103.5,385,q),
(150,338,o),
(217,338,q),
(284,338,o),
(329.5,385,q),
(375,432,o),
(375,500,q),
(375,568,o),
(329.5,614,q),
(284,660,o),
(217,660,q),
(150,660,o),
(103.5,614,q),
(57,568,o),
(57,500,q)
);
},
{
closed = 1;
nodes = (
(219,608,l),
(255,608,o),
(274,598.5,q),
(293,589,o),
(293,556,q),
(293,523,o),
(256,508,q),
(299,420,l),
(319,415,l),
(319,404,l),
(298,407,o),
(277,407,q),
(256,407,o),
(240,405,q),
(238,412,l),
(244,417,o),
(244,434,q),
(244,451,o),
(218,503,q),
(210,506,o),
(203,506,q),
(204,517,l),
(208,517,l),
(247,517,o),
(247,556,q),
(247,590,o),
(214,590,q),
(205,590,o),
(197,587,q),
(196,568,o),
(196,501,q),
(196,434,o),
(199,420,q),
(221,415,l),
(220,404,l),
(197,407,o),
(173,407,q),
(149,407,o),
(125,404,q),
(125,415,l),
(137,418,o),
(150,420,q),
(154,460,o),
(154,514,q),
(154,568,o),
(151,589,q),
(139,593,o),
(129,593,q),
(129,605,l)
);
}
);
width = 434;
}
);
unicode = 174;
},
{
category = Letter;
glyphname = macron;
layers = (
{
layerId = "36f52ca2-ef18-4734-b79f-232be43107ca";
name = Fore;
shapes = (
{
closed = 1;
nodes = (
(103,668,o),
(162,668,q),
(221,668,o),
(266,672,q),
(274,667,l),
(265,621,l),
(9,618,l),
(0,624,l),
(9,674,l),
(54,671,l)
);
}
);
width = 274;
}
);
unicode = 175;
},
{
category = Letter;
glyphname = degree;
layers = (
{
layerId = "36f52ca2-ef18-4734-b79f-232be43107ca";
name = Fore;
shapes = (
{
closed = 1;
nodes = (
(45,455,o),
(45,512.5,q),
(45,570,o),
(86.5,613,q),
(128,656,o),
(192,667,q),
(250,667,o),
(286,637,q),
(322,607,o),
(322,549.5,q),
(322,492,o),
(284,450.5,q),
(246,409,o),
(184,396,q),
(125,396,o),
(85,425.5,q)
);
},
{
closed = 1;
nodes = (
(219,628,o),
(179,628,q),
(139,628,o),
(121,611,q),
(102,582,o),
(102,536.5,q),
(102,491,o),
(125.5,463,q),
(149,435,o),
(188.5,435,q),
(228,435,o),
(246,452,q),
(265,481,o),
(265,527,q),
(265,573,o),
(242,600.5,q)
);
}
);
width = 367;
}
);
unicode = 176;
},
{
category = Letter;
glyphname = plusminus;
layers = (
{
layerId = "36f52ca2-ef18-4734-b79f-232be43107ca";
name = Fore;
shapes = (
{
closed = 1;
nodes = (
(299,185,o),
(308,90,q),
(262,81,l),
(252,88,l),
(252,267,l),
(66,267,l),
(58,274,l),
(67,325,l),
(189,319,o),
(252,318,q),
(252,476,l),
(299,485,l),
(304,479,l),
(299,391,o),
(299,318,q),
(299,317,l),
(336,316,o),
(396,316,q),
(456,316,o),
(495,319,q),
(501,313,l),
(492,267,l),
(299,267,l)
);
},
{
closed = 1;
nodes = (
(229,49,o),
(338.5,49,q),
(448,49,o),
(487,52,q),
(493,46,l),
(484,0,l),
(58,0,l),
(50,7,l),
(59,58,l)
);
}
);
width = 550;
}
);
unicode = 177;
},
{
category = Letter;
glyphname = twosuperior;
layers = (
{
layerId = "36f52ca2-ef18-4734-b79f-232be43107ca";
name = Fore;
shapes = (
{
closed = 1;
nodes = (
(157,423,o),
(192.5,423,q),
(228,423,o),
(293,414,q),
(303,433,o),
(313,461,q),
(330,455,l),
(321,425,o),
(321,399,q),
(321,373,o),
(327,346,q),
(317,339,l),
(173,369,o),
(75,369,q),
(61,355,o),
(49,339,q),
(32,347,l),
(50,384,o),
(102,438.5,q),
(154,493,o),
(192.5,543,q),
(231,593,o),
(231,628,q),
(231,694,o),
(161,694,q),
(133,694,o),
(110,683,q),
(105,671,o),
(105,655.5,q),
(105,640,o),
(113,635,q),
(113,629,l),
(101,622,o),
(73,596,q),
(50,598,o),
(50,620,q),
(50,657,o),
(94.5,694.5,q),
(139,732,o),
(184,746,q),
(250,746,o),
(281,714,q),
(312,682,o),
(312,616,q),
(236,517,o),
(122,418,q),
(124,415,l),
(135,420,o),
(143,422,q)
);
}
);
width = 372;
}
);
unicode = 178;
},
{
category = Letter;
glyphname = threesuperior;
layers = (
{
layerId = "36f52ca2-ef18-4734-b79f-232be43107ca";
name = Fore;
shapes = (
{
closed = 1;
nodes = (
(78,433,o),
(79,418,q),
(127,391,o),
(163,391,q),
(199,391,o),
(209,403,q),
(218,426,o),
(218,464,q),
(218,502,o),
(194.5,528.5,q),
(171,555,o),
(125,555,q),
(122,559,l),
(207,678,l),
(205,681,l),
(194,676,o),
(186,674,q),
(141,674,o),
(91,679,q),
(81,661,o),
(75,637,q),
(58,643,l),
(63,671,o),
(63,694,q),
(63,717,o),
(56,739,q),
(65,745,l),
(151,727,o),
(268,727,q),
(282,735,o),
(291,745,q),
(304,734,l),
(283,715,o),
(185,600,q),
(289,581,o),
(289,462,q),
(276,425,o),
(238,389,q),
(200,353,o),
(160,339,q),
(89,339,o),
(30,365,q),
(30,377,l),
(53,409,o),
(60,460,q),
(78,460,l)
);
}
);
width = 334;
}
);
unicode = 179;
},
{
category = Letter;
glyphname = acute;
layers = (
{
layerId = "36f52ca2-ef18-4734-b79f-232be43107ca";
name = Fore;
shapes = (
{
closed = 1;
nodes = (
(142,728,o),
(153.5,728,q),
(165,728,o),
(175,726,q),
(182,718,o),
(190.5,697.5,q),
(199,677,o),
(200,667,q),
(11,558,l),
(0,576,l),
(37,601,o),
(72.5,643,q),
(108,685,o),
(132,727,q)
);
}
);
width = 200;
}
);
unicode = 180;
},
{
category = Letter;
glyphname = mu;
layers = (
{
layerId = "36f52ca2-ef18-4734-b79f-232be43107ca";
name = Fore;
shapes = (
{
closed = 1;
nodes = (
(431,411,o),
(431,257.5,q),
(431,104,o),
(438,33,q),
(462,25,o),
(492,25,q),
(492,4,l),
(428,1,o),
(357,-15,q),
(350,-13,l),
(361,56,o),
(361,145,q),
(357,146,l),
(323,98,o),
(270,48.5,q),
(217,-1,o),
(173,-15,q),
(148,-15,o),
(136,-1,q),
(136,-106,o),
(157,-196,q),
(154,-199,l),
(110,-207,o),
(78,-219,q),
(69,-212,l),
(78,-149,o),
(88,143,q),
(92,331,l),
(92,342,o),
(92,383.5,q),
(92,425,o),
(86,467,q),
(90,470,l),
(147,476,o),
(182,485,q),
(188,480,l),
(153,337,o),
(153,172,q),
(153,92,o),
(174,76,q),
(184,67,o),
(201,67,q),
(239,67,o),
(291,115.5,q),
(343,164,o),
(361,207,q),
(361,396,o),
(347,470,q),
(407,476,o),
(445,485,q),
(451,480,l)
);
}
);
width = 529;
}
);
unicode = (181,956);
},
{
category = Letter;
glyphname = paragraph;
layers = (
{
layerId = "36f52ca2-ef18-4734-b79f-232be43107ca";
name = Fore;
shapes = (
{
closed = 1;
nodes = (
(491,649,l),
(491,624,l),
(441,624,o),
(393,608,q),
(382,514,o),
(382,325,q),
(382,126,l),
(371,39,o),
(310.5,-38,q),
(250,-115,o),
(174,-115,q),
(162,-115,o),
(153,-107.5,q),
(144,-100,o),
(143,-88,q),
(170,-63,o),
(185,-38,q),
(192,-37,l),
(203,-47,o),
(233,-47,q),
(263,-47,o),
(277,-40,q),
(305,29,o),
(305,114,q),
(305,119,o),
(305,125,q),
(305,325,l),
(305,523,o),
(296,617,q),
(285,620,o),
(271.5,620,q),
(258,620,o),
(248,617,q),
(240,560,o),
(240,454.5,q),
(240,349,o),
(262,310,q),
(260,296,l),
(253,295,o),
(238,295,q),
(141,295,o),
(68,350,q),
(-5,405,o),
(-5,494,q),
(-5,658,o),
(201,658,q)
);
}
);
width = 512;
}
);
unicode = 182;
},
{
category = Letter;
glyphname = periodcentered;
layers = (
{
layerId = "36f52ca2-ef18-4734-b79f-232be43107ca";
name = Fore;
shapes = (
{
closed = 1;
nodes = (
(153,271,o),
(135.5,251,q),
(118,231,o),
(106,223,q),
(94,231,o),
(76.5,251,q),
(59,271,o),
(52,284,q),
(58,296,o),
(75,311.5,q),
(92,327,o),
(106,334,q),
(119,326,o),
(136,310.5,q),
(153,295,o),
(160,284,q)
);
}
);
width = 212;
}
);
unicode = 183;
},
{
category = Letter;
glyphname = cedilla;
layers = (
{
layerId = "36f52ca2-ef18-4734-b79f-232be43107ca";
name = Fore;
shapes = (
{
closed = 1;
nodes = (
(106,-178,o),
(114,-173,q),
(123,-160,o),
(123,-142,q),
(123,-97,o),
(40,-97,q),
(34,-93,l),
(72,14,l),
(101,16,l),
(77,-46,l),
(81,-49,l),
(127,-49,o),
(155.5,-70,q),
(184,-91,o),
(184,-133,q),
(170,-160,o),
(143.5,-182.5,q),
(117,-205,o),
(88,-215,q),
(44,-215,o),
(0,-194,q),
(10,-175,o),
(16,-155,q),
(20,-153,l),
(52,-178,o),
(88,-178,q)
);
}
);
width = 184;
}
);
unicode = 184;
},
{
category = Letter;
glyphname = onesuperior;
layers = (
{
layerId = "36f52ca2-ef18-4734-b79f-232be43107ca";
name = Fore;
shapes = (
{
closed = 1;
nodes = (
(133,574,l),
(133,618,o),
(130,665,q),
(70,665,l),
(68,667,l),
(68,678,o),
(70,684,q),
(142,704,o),
(180,744,q),
(192,746,o),
(206,746,q),
(209,744,l),
(198,663,o),
(198,574,q),
(198,507,l),
(198,426,o),
(204,380,q),
(229,372,o),
(249,363,q),
(246,346,l),
(206,352,o),
(161,352,q),
(116,352,o),
(77,345,q),
(75,362,l),
(100,373,o),
(125,378,q),
(133,447,o),
(133,507,q)
);
}
);
width = 303;
}
);
unicode = 185;
},
{
category = Letter;
glyphname = ordmasculine;
layers = (
{
layerId = "36f52ca2-ef18-4734-b79f-232be43107ca";
name = Fore;
shapes = (
{
closed = 1;
nodes = (
(32,355,o),
(32,432,q),
(32,509,o),
(80,577.5,q),
(128,646,o),
(206,666,q),
(283,666,o),
(323,622,q),
(363,578,o),
(363,501,q),
(363,424,o),
(316.5,356,q),
(270,288,o),
(198,259,q),
(126,259,o),
(79,307,q)
);
},
{
closed = 1;
nodes = (
(150,613,o),
(130,594,q),
(103,541,o),
(103,476,q),
(103,411,o),
(132.5,362,q),
(162,313,o),
(212,313,q),
(244,313,o),
(266,333,q),
(292,380,o),
(292,450.5,q),
(292,521,o),
(265,567,q),
(238,613,o),
(184,613,q)
);
}
);
width = 395;
}
);
unicode = 186;
},
{
category = Letter;
glyphname = guillemotright;
layers = (
{
layerId = "36f52ca2-ef18-4734-b79f-232be43107ca";
name = Fore;
shapes = (
{
closed = 1;
nodes = (
(302,283,l),
(197,426,l),
(214,439,l),
(297,341,o),
(392,289,q),
(392,269,l),
(307,218,o),
(214,111,q),
(194,125,l)
);
},
{
closed = 1;
nodes = (
(126,285,l),
(31,413,l),
(48,426,l),
(116,346,o),
(216,291,q),
(216,271,l),
(139,224,o),
(48,128,q),
(28,142,l)
);
}
);
width = 413;
}
);
unicode = 187;
},
{
category = Letter;
glyphname = onequarter;
layers = (
{
layerId = "36f52ca2-ef18-4734-b79f-232be43107ca";
name = Fore;
shapes = (
{
closed = 1;
nodes = (
(729,156,l),
(784,156,o),
(795,188,q),
(809,184,l),
(804,159,o),
(804,139.5,q),
(804,120,o),
(804,111,q),
(800,109,l),
(776,111,o),
(730,111,q),
(730,66,o),
(735,41,q),
(748,34,o),
(780,25,q),
(777,7,l),
(737,13,o),
(688,13,q),
(639,13,o),
(606,5,q),
(604,22,l),
(631,34,o),
(658,39,q),
(663,68,o),
(663,111,q),
(474,111,l),
(470,123,l),
(607,283,o),
(661,389,q),
(697,393,o),
(732,406,q),
(738,404,l),
(729,356,o),
(729,263,q)
);
},
{
closed = 1;
nodes = (
(146,-41,l),
(129,-27,o),
(117,-1,q),
(210,117,o),
(242,160,q),
(496,511,l),
(555,593,o),
(628,704,q),
(650,699,o),
(681,697,q),
(685,694,l),
(653,654,o),
(549,510,q),
(151,-42,l)
);
},
{
closed = 1;
nodes = (
(133,494,l),
(133,538,o),
(130,585,q),
(70,585,l),
(68,587,l),
(68,598,o),
(70,604,q),
(142,624,o),
(180,664,q),
(192,666,o),
(206,666,q),
(209,664,l),
(198,583,o),
(198,494,q),
(198,427,l),
(198,346,o),
(204,300,q),
(229,292,o),
(249,283,q),
(246,266,l),
(206,272,o),
(161,272,q),
(116,272,o),
(77,265,q),
(75,282,l),
(100,293,o),
(125,298,q),
(133,367,o),
(133,427,q)
);
},
{
closed = 1;
nodes = (
(627,261,o),
(555,163,q),
(599,157,o),
(663,157,q),
(665,331,l),
(660,331,l)
);
}
);
width = 830;
}
);
unicode = 188;
},
{
category = Letter;
glyphname = onehalf;
layers = (
{
layerId = "36f52ca2-ef18-4734-b79f-232be43107ca";
name = Fore;
shapes = (
{
closed = 1;
nodes = (
(146,-41,l),
(129,-27,o),
(117,-1,q),
(210,117,o),
(242,160,q),
(496,511,l),
(555,593,o),
(628,704,q),
(650,699,o),
(681,697,q),
(685,694,l),
(653,654,o),
(549,510,q),
(151,-42,l)
);
},
{
closed = 1;
nodes = (
(133,494,l),
(133,538,o),
(130,585,q),
(70,585,l),
(68,587,l),
(68,598,o),
(70,604,q),
(142,624,o),
(180,664,q),
(192,666,o),
(206,666,q),
(209,664,l),
(198,583,o),
(198,494,q),
(198,427,l),
(198,346,o),
(204,300,q),
(229,292,o),
(249,283,q),
(246,266,l),
(206,272,o),
(161,272,q),
(116,272,o),
(77,265,q),
(75,282,l),
(100,293,o),
(125,298,q),
(133,367,o),
(133,427,q)
);
},
{
closed = 1;
nodes = (
(615,84,o),
(650.5,84,q),
(686,84,o),
(750,75,q),
(760,94,o),
(770,122,q),
(787,116,l),
(778,86,o),
(778,60,q),
(778,34,o),
(784,7,q),
(774,0,l),
(630,30,o),
(532,30,q),
(518,16,o),
(506,0,q),
(489,8,l),
(507,45,o),
(559,99.5,q),
(611,154,o),
(649.5,204,q),
(688,254,o),
(688,290,q),
(688,355,o),
(618,355,q),
(590,355,o),
(567,344,q),
(562,332,o),
(562,316.5,q),
(562,301,o),
(570,296,q),
(570,290,l),
(558,283,o),
(530,257,q),
(507,259,o),
(507,281,q),
(507,318,o),
(551.5,355.5,q),
(596,393,o),
(641,407,q),
(707,407,o),
(738,375,q),
(769,343,o),
(769,277,q),
(693,178,o),
(579,79,q),
(581,76,l),
(592,81,o),
(600,83,q)
);
}
);
width = 830;
}
);
unicode = 189;
},
{
category = Letter;
glyphname = threequarters;
layers = (
{
layerId = "36f52ca2-ef18-4734-b79f-232be43107ca";
name = Fore;
shapes = (
{
closed = 1;
nodes = (
(729,156,l),
(784,156,o),
(795,188,q),
(809,184,l),
(804,159,o),
(804,139.5,q),
(804,120,o),
(804,111,q),
(800,109,l),
(776,111,o),
(730,111,q),
(730,66,o),
(735,41,q),
(748,34,o),
(780,25,q),
(777,7,l),
(737,13,o),
(688,13,q),
(639,13,o),
(606,5,q),
(604,22,l),
(631,34,o),
(658,39,q),
(663,68,o),
(663,111,q),
(474,111,l),
(470,123,l),
(607,283,o),
(661,389,q),
(697,393,o),
(732,406,q),
(738,404,l),
(729,356,o),
(729,263,q)
);
},
{
closed = 1;
nodes = (
(78,353,o),
(79,338,q),
(127,311,o),
(163,311,q),
(199,311,o),
(209,323,q),
(218,346,o),
(218,384,q),
(218,422,o),
(194.5,448.5,q),
(171,475,o),
(125,475,q),
(122,479,l),
(207,598,l),
(205,601,l),
(194,596,o),
(186,594,q),
(141,594,o),
(91,599,q),
(81,581,o),
(75,557,q),
(58,563,l),
(63,591,o),
(63,614,q),
(63,637,o),
(56,659,q),
(65,665,l),
(151,647,o),
(268,647,q),
(282,655,o),
(291,665,q),
(304,654,l),
(283,635,o),
(185,520,q),
(289,501,o),
(289,382,q),
(276,345,o),
(238,309,q),
(200,273,o),
(160,259,q),
(89,259,o),
(30,285,q),
(30,297,l),
(53,329,o),
(60,380,q),
(78,380,l)
);
},
{
closed = 1;
nodes = (
(146,-41,l),
(129,-27,o),
(117,-1,q),
(210,117,o),
(242,160,q),
(496,511,l),
(555,593,o),
(628,704,q),
(650,699,o),
(681,697,q),
(685,694,l),
(653,654,o),
(549,510,q),
(151,-42,l)
);
},
{
closed = 1;
nodes = (
(627,261,o),
(555,163,q),
(599,157,o),
(663,157,q),
(665,331,l),
(660,331,l)
);
}
);
width = 830;
}
);
unicode = 190;
},
{
category = Letter;
glyphname = questiondown;
layers = (
{
layerId = "36f52ca2-ef18-4734-b79f-232be43107ca";
name = Fore;
shapes = (
{
closed = 1;
nodes = (
(135,447,o),
(152,462.5,q),
(169,478,o),
(182,486,q),
(196,479,o),
(213,463.5,q),
(230,448,o),
(236,436,q),
(229,423,o),
(211.5,403,q),
(194,383,o),
(182,375,q),
(170,383,o),
(152.5,403,q),
(135,423,o),
(128,436,q)
);
},
{
closed = 1;
nodes = (
(96,-116,o),
(120,-134.5,q),
(144,-153,o),
(181,-153,q),
(218,-153,o),
(246,-139,q),
(253,-127,o),
(253,-107,q),
(253,-87,o),
(243,-78,q),
(244,-71,l),
(270,-55,o),
(292,-31,q),
(304,-32,o),
(311,-40.5,q),
(318,-49,o),
(318,-60,q),
(318,-106,o),
(264.5,-152.5,q),
(211,-199,o),
(156,-215,q),
(75,-215,o),
(37.5,-176,q),
(0,-137,o),
(0,-56,q),
(63,34,o),
(158,129,q),
(165,218,o),
(169,299,q),
(195,301,l),
(216,162,l),
(216,143,l),
(96,23,o),
(96,-79,q)
);
}
);
width = 335;
}
);
unicode = 191;
},
{
category = Letter;
glyphname = Agrave;
layers = (
{
layerId = "36f52ca2-ef18-4734-b79f-232be43107ca";
name = Fore;
shapes = (
{
closed = 1;
nodes = (
(164,806,l),
(163,816,o),
(168.5,837.5,q),
(174,859,o),
(179,868,q),
(199,875,o),
(221,877,q),
(296,787,o),
(378,751,q),
(370,731,l)
);
},
{
closed = 1;
nodes = (
(469,459,o),
(469,295,q),
(469,131,o),
(482,35,q),
(535,30,o),
(592,16,q),
(589,-8,l),
(515,0,o),
(428.5,0,q),
(342,0,o),
(289,-8,q),
(285,17,l),
(330,31,o),
(381,38,q),
(389,104,o),
(392,251,q),
(340,257,o),
(277.5,257,q),
(215,257,o),
(172,251,q),
(148,153,o),
(148,94,q),
(148,35,o),
(191,10,q),
(187,-4,l),
(156,0,o),
(82.5,0,q),
(9,0,o),
(-50,-8,q),
(-54,17,l),
(-9,31,o),
(42,38,q),
(200,598,l),
(82,598,o),
(49,566,q),
(42,552,o),
(42,522,q),
(42,492,o),
(52,481,q),
(51,474,l),
(26,459,o),
(1,432,q),
(-11,433,o),
(-18.5,442,q),
(-26,451,o),
(-26,463,q),
(-26,512,o),
(33,580,q),
(92,648,o),
(143,666,q),
(294,649,o),
(449,637,q),
(463,655,o),
(472,683,q),
(493,677,l),
(479,607,o),
(474,533,q)
);
},
{
closed = 1;
nodes = (
(228,294,o),
(289.5,294,q),
(351,294,o),
(392,301,q),
(392,478,o),
(387,590,q),
(384,593,l),
(332,598,o),
(255,598,q),
(183,301,l)
);
}
);
width = 599;
}
);
unicode = 192;
},
{
category = Letter;
glyphname = Aacute;
layers = (
{
layerId = "36f52ca2-ef18-4734-b79f-232be43107ca";
name = Fore;
shapes = (
{
closed = 1;
nodes = (
(323,722,l),
(315,742,l),
(397,778,o),
(472,868,q),
(494,866,o),
(514,859,q),
(519,850,o),
(524.5,828.5,q),
(530,807,o),
(529,797,q)
);
},
{
closed = 1;
nodes = (
(469,459,o),
(469,295,q),
(469,131,o),
(482,35,q),
(535,30,o),
(592,16,q),
(589,-8,l),
(515,0,o),
(428.5,0,q),
(342,0,o),
(289,-8,q),
(285,17,l),
(330,31,o),
(381,38,q),
(389,104,o),
(392,251,q),
(340,257,o),
(277.5,257,q),
(215,257,o),
(172,251,q),
(148,153,o),
(148,94,q),
(148,35,o),
(191,10,q),
(187,-4,l),
(156,0,o),
(82.5,0,q),
(9,0,o),
(-50,-8,q),
(-54,17,l),
(-9,31,o),
(42,38,q),
(200,598,l),
(82,598,o),
(49,566,q),
(42,552,o),
(42,522,q),
(42,492,o),
(52,481,q),
(51,474,l),
(26,459,o),
(1,432,q),
(-11,433,o),
(-18.5,442,q),
(-26,451,o),
(-26,463,q),
(-26,512,o),
(33,580,q),
(92,648,o),
(143,666,q),
(294,649,o),
(449,637,q),
(463,655,o),
(472,683,q),
(493,677,l),
(479,607,o),
(474,533,q)
);
},
{
closed = 1;
nodes = (
(228,294,o),
(289.5,294,q),
(351,294,o),
(392,301,q),
(392,478,o),
(387,590,q),
(384,593,l),
(332,598,o),
(255,598,q),
(183,301,l)
);
}
);
width = 599;
}
);
unicode = 193;
},
{
category = Letter;
glyphname = Acircumflex;
layers = (
{
layerId = "36f52ca2-ef18-4734-b79f-232be43107ca";
name = Fore;
shapes = (
{
closed = 1;
nodes = (
(348,790,l),
(187,715,l),
(177,734,l),
(269,792,o),
(338,885,q),
(358,885,l),
(427,792,o),
(519,734,q),
(509,715,l)
);
},
{
closed = 1;
nodes = (
(469,459,o),
(469,295,q),
(469,131,o),
(482,35,q),
(535,30,o),
(592,16,q),
(589,-8,l),
(515,0,o),
(428.5,0,q),
(342,0,o),
(289,-8,q),
(285,17,l),
(330,31,o),
(381,38,q),
(389,104,o),
(392,251,q),
(340,257,o),
(277.5,257,q),
(215,257,o),
(172,251,q),
(148,153,o),
(148,94,q),
(148,35,o),
(191,10,q),
(187,-4,l),
(156,0,o),
(82.5,0,q),
(9,0,o),
(-50,-8,q),
(-54,17,l),
(-9,31,o),
(42,38,q),
(200,598,l),
(82,598,o),
(49,566,q),
(42,552,o),
(42,522,q),
(42,492,o),
(52,481,q),
(51,474,l),
(26,459,o),
(1,432,q),
(-11,433,o),
(-18.5,442,q),
(-26,451,o),
(-26,463,q),
(-26,512,o),
(33,580,q),
(92,648,o),
(143,666,q),
(294,649,o),
(449,637,q),
(463,655,o),
(472,683,q),
(493,677,l),
(479,607,o),
(474,533,q)
);
},
{
closed = 1;
nodes = (
(228,294,o),
(289.5,294,q),
(351,294,o),
(392,301,q),
(392,478,o),
(387,590,q),
(384,593,l),
(332,598,o),
(255,598,q),
(183,301,l)
);
}
);
width = 599;
}
);
unicode = 194;
},
{
category = Letter;
glyphname = Atilde;
layers = (
{
layerId = "36f52ca2-ef18-4734-b79f-232be43107ca";
name = Fore;
shapes = (
{
closed = 1;
nodes = (
(370,806,o),
(422.5,806,q),
(475,806,o),
(495,830,q),
(513,819,l),
(457,758,o),
(409,737,q),
(388,737,o),
(336.5,752.5,q),
(285,768,o),
(264,768,q),
(221,768,o),
(201,744,q),
(183,755,l),
(239,816,o),
(311,837,q)
);
},
{
closed = 1;
nodes = (
(469,459,o),
(469,295,q),
(469,131,o),
(482,35,q),
(535,30,o),
(592,16,q),
(589,-8,l),
(515,0,o),
(428.5,0,q),
(342,0,o),
(289,-8,q),
(285,17,l),
(330,31,o),
(381,38,q),
(389,104,o),
(392,251,q),
(340,257,o),
(277.5,257,q),
(215,257,o),
(172,251,q),
(148,153,o),
(148,94,q),
(148,35,o),
(191,10,q),
(187,-4,l),
(156,0,o),
(82.5,0,q),
(9,0,o),
(-50,-8,q),
(-54,17,l),
(-9,31,o),
(42,38,q),
(200,598,l),
(82,598,o),
(49,566,q),
(42,552,o),
(42,522,q),
(42,492,o),
(52,481,q),
(51,474,l),
(26,459,o),
(1,432,q),
(-11,433,o),
(-18.5,442,q),
(-26,451,o),
(-26,463,q),
(-26,512,o),
(33,580,q),
(92,648,o),
(143,666,q),
(294,649,o),
(449,637,q),
(463,655,o),
(472,683,q),
(493,677,l),
(479,607,o),
(474,533,q)
);
},
{
closed = 1;
nodes = (
(228,294,o),
(289.5,294,q),
(351,294,o),
(392,301,q),
(392,478,o),
(387,590,q),
(384,593,l),
(332,598,o),
(255,598,q),
(183,301,l)
);
}
);
width = 599;
}
);
unicode = 195;
},
{
category = Letter;
glyphname = Adieresis;
layers = (
{
layerId = "36f52ca2-ef18-4734-b79f-232be43107ca";
name = Fore;
shapes = (
{
closed = 1;
nodes = (
(303,790,o),
(285.5,770,q),
(268,750,o),
(256,742,q),
(244,750,o),
(226.5,770,q),
(209,790,o),
(202,803,q),
(208,815,o),
(225,830.5,q),
(242,846,o),
(256,853,q),
(269,845,o),
(286,829.5,q),
(303,814,o),
(310,803,q)
);
},
{
closed = 1;
nodes = (
(488,790,o),
(470.5,770,q),
(453,750,o),
(441,742,q),
(429,750,o),
(411.5,770,q),
(394,790,o),
(387,803,q),
(393,815,o),
(410,830.5,q),
(427,846,o),
(441,853,q),
(454,845,o),
(471,829.5,q),
(488,814,o),
(495,803,q)
);
},
{
closed = 1;
nodes = (
(469,459,o),
(469,295,q),
(469,131,o),
(482,35,q),
(535,30,o),
(592,16,q),
(589,-8,l),
(515,0,o),
(428.5,0,q),
(342,0,o),
(289,-8,q),
(285,17,l),
(330,31,o),
(381,38,q),
(389,104,o),
(392,251,q),
(340,257,o),
(277.5,257,q),
(215,257,o),
(172,251,q),
(148,153,o),
(148,94,q),
(148,35,o),
(191,10,q),
(187,-4,l),
(156,0,o),
(82.5,0,q),
(9,0,o),
(-50,-8,q),
(-54,17,l),
(-9,31,o),
(42,38,q),
(200,598,l),
(82,598,o),
(49,566,q),
(42,552,o),
(42,522,q),
(42,492,o),
(52,481,q),
(51,474,l),
(26,459,o),
(1,432,q),
(-11,433,o),
(-18.5,442,q),
(-26,451,o),
(-26,463,q),
(-26,512,o),
(33,580,q),
(92,648,o),
(143,666,q),
(294,649,o),
(449,637,q),
(463,655,o),
(472,683,q),
(493,677,l),
(479,607,o),
(474,533,q)
);
},
{
closed = 1;
nodes = (
(228,294,o),
(289.5,294,q),
(351,294,o),
(392,301,q),
(392,478,o),
(387,590,q),
(384,593,l),
(332,598,o),
(255,598,q),
(183,301,l)
);
}
);
width = 599;
}
);
unicode = 196;
},
{
category = Letter;
glyphname = Aring;
layers = (
{
layerId = "36f52ca2-ef18-4734-b79f-232be43107ca";
name = Fore;
shapes = (
{
closed = 1;
nodes = (
(469,459,o),
(469,295,q),
(469,131,o),
(482,35,q),
(535,30,o),
(592,16,q),
(589,-8,l),
(515,0,o),
(428.5,0,q),
(342,0,o),
(289,-8,q),
(285,17,l),
(330,31,o),
(381,38,q),
(389,104,o),
(392,251,q),
(340,257,o),
(277.5,257,q),
(215,257,o),
(172,251,q),
(148,153,o),
(148,94,q),
(148,35,o),
(191,10,q),
(187,-4,l),
(156,0,o),
(82.5,0,q),
(9,0,o),
(-50,-8,q),
(-54,17,l),
(-9,31,o),
(42,38,q),
(200,598,l),
(82,598,o),
(49,566,q),
(42,552,o),
(42,522,q),
(42,492,o),
(52,481,q),
(51,474,l),
(26,459,o),
(1,432,q),
(-11,433,o),
(-18.5,442,q),
(-26,451,o),
(-26,463,q),
(-26,512,o),
(33,580,q),
(92,648,o),
(143,666,q),
(294,649,o),
(449,637,q),
(463,655,o),
(472,683,q),
(493,677,l),
(479,607,o),
(474,533,q)
);
},
{
closed = 1;
nodes = (
(228,294,o),
(289.5,294,q),
(351,294,o),
(392,301,q),
(392,478,o),
(387,590,q),
(384,593,l),
(332,598,o),
(255,598,q),
(183,301,l)
);
},
{
closed = 1;
nodes = (
(243,742,o),
(243,779.5,q),
(243,817,o),
(272.5,846.5,q),
(302,876,o),
(345,885,q),
(436,885,o),
(436,811,q),
(436,772,o),
(409.5,744.5,q),
(383,717,o),
(340,704,q),
(299,704,o),
(271,723,q)
);
},
{
closed = 1;
nodes = (
(358,850,o),
(335,850,q),
(312,850,o),
(301,841,q),
(290,824,o),
(290,798,q),
(290,772,o),
(306,755.5,q),
(322,739,o),
(345,739,q),
(368,739,o),
(378,748,q),
(389,764,o),
(389,791,q),
(389,818,o),
(373.5,834,q)
);
}
);
width = 599;
}
);
unicode = 197;
},
{
category = Letter;
glyphname = AE;
layers = (
{
layerId = "36f52ca2-ef18-4734-b79f-232be43107ca";
name = Fore;
shapes = (
{
closed = 1;
nodes = (
(331,651,o),
(467,651,q),
(603,651,o),
(733,662,q),
(737,642,l),
(685,589,o),
(678,484,q),
(653,484,l),
(644,527,o),
(644,593,q),
(601,614,o),
(544.5,614,q),
(488,614,o),
(460,609,q),
(443,557,o),
(435,365,q),
(466,358,o),
(512,358,q),
(601,358,o),
(621,401,q),
(641,397,l),
(632,365,o),
(632,320.5,q),
(632,276,o),
(638,233,q),
(615,229,l),
(600,267,o),
(595,318,q),
(558,321,o),
(513,321,q),
(468,321,o),
(434,316,q),
(434,273,l),
(434,178,o),
(458,124,q),
(484,64,o),
(570,64,q),
(642,64,o),
(718,142,q),
(732,129,l),
(649,19,o),
(549,-15,q),
(438,-15,o),
(395,53,q),
(352,121,o),
(352,241,q),
(352,246,o),
(352,252,q),
(353,315,l),
(322,321,o),
(276,321,q),
(230,321,o),
(205,315,q),
(191,269,l),
(153,143,o),
(153,87.5,q),
(153,32,o),
(191,10,q),
(187,-4,l),
(156,0,o),
(82.5,0,q),
(9,0,o),
(-50,-8,q),
(-54,17,l),
(-9,31,o),
(42,38,q),
(250,614,l),
(132,614,o),
(99,582,q),
(92,568,o),
(92,538,q),
(92,508,o),
(102,497,q),
(101,490,l),
(76,475,o),
(51,448,q),
(39,449,o),
(31.5,458,q),
(24,467,o),
(24,479,q),
(24,528,o),
(83,596,q),
(142,664,o),
(193,682,q)
);
},
{
closed = 1;
nodes = (
(246,358,o),
(288,358,q),
(330,358,o),
(355,365,q),
(361,475,o),
(363.5,511,q),
(366,547,o),
(366,571,q),
(366,595,o),
(363,611,q),
(349,614,o),
(330.5,614,q),
(312,614,o),
(295,611,q),
(223,364,l)
);
}
);
width = 744;
}
);
unicode = 198;
},
{
category = Letter;
glyphname = Ccedilla;
layers = (
{
layerId = "36f52ca2-ef18-4734-b79f-232be43107ca";
name = Fore;
shapes = (
{
closed = 1;
nodes = (
(42,17,o),
(42,276,q),
(42,403,o),
(115.5,517.5,q),
(189,632,o),
(313,666,q),
(414,666,o),
(519,647,q),
(518,625,l),
(492,625,o),
(470,616,q),
(445,557,o),
(437,478,q),
(412,478,l),
(403,518,o),
(403,571,q),
(356,596,o),
(290.5,596,q),
(225,596,o),
(182,560,q),
(131,473,o),
(131,339,q),
(131,139,o),
(217,86,q),
(253,64,o),
(304,64,q),
(385,64,o),
(467,142,q),
(481,129,l),
(398,23,o),
(283,-15,q),
(270,-15,o),
(264,-14,q),
(252,-46,l),
(256,-49,l),
(302,-49,o),
(330.5,-70,q),
(359,-91,o),
(359,-133,q),
(345,-160,o),
(318.5,-182.5,q),
(292,-205,o),
(263,-215,q),
(219,-215,o),
(175,-194,q),
(185,-175,o),
(191,-155,q),
(195,-153,l),
(227,-178,o),
(263,-178,q),
(281,-178,o),
(289,-173,q),
(298,-160,o),
(298,-142,q),
(298,-97,o),
(215,-97,q),
(209,-93,l),
(238,-11,l)
);
}
);
width = 498;
}
);
unicode = 199;
},
{
category = Letter;
glyphname = Egrave;
layers = (
{
layerId = "36f52ca2-ef18-4734-b79f-232be43107ca";
name = Fore;
shapes = (
{
closed = 1;
nodes = (
(129,806,l),
(128,816,o),
(133.5,837.5,q),
(139,859,o),
(144,868,q),
(164,875,o),
(186,877,q),
(261,787,o),
(343,751,q),
(335,731,l)
);
},
{
closed = 1;
nodes = (
(347,594,o),
(281,594,q),
(215,594,o),
(174,560,q),
(173,546,o),
(173,533,q),
(173,373,o),
(344,373,q),
(339,336,l),
(327,336,l),
(248,336,o),
(196.5,304.5,q),
(145,273,o),
(145,203,q),
(145,133,o),
(193,94.5,q),
(241,56,o),
(306,56,q),
(371,56,o),
(408,80,q),
(415,94,o),
(415,124,q),
(415,154,o),
(405,165,q),
(406,172,l),
(431,187,o),
(456,214,q),
(468,213,o),
(475.5,204,q),
(483,195,o),
(483,183,q),
(483,122,o),
(425.5,64.5,q),
(368,7,o),
(300,-15,q),
(193,-15,o),
(122,37,q),
(51,89,o),
(51,185,q),
(51,254,o),
(109,300,q),
(167,346,o),
(241,346,q),
(241,350,l),
(173,354,o),
(127.5,388,q),
(82,422,o),
(82,482,q),
(118,546,o),
(177.5,597,q),
(237,648,o),
(305,666,q),
(376,666,o),
(445,647,q),
(461,655,o),
(486,678,q),
(507,664,l),
(441,584,o),
(426,473,q),
(400,473,l),
(400,528,o),
(395,566,q)
);
}
);
width = 513;
}
);
unicode = 200;
},
{
category = Letter;
glyphname = Eacute;
layers = (
{
layerId = "36f52ca2-ef18-4734-b79f-232be43107ca";
name = Fore;
shapes = (
{
closed = 1;
nodes = (
(271,722,l),
(263,742,l),
(345,778,o),
(420,868,q),
(442,866,o),
(462,859,q),
(467,850,o),
(472.5,828.5,q),
(478,807,o),
(477,797,q)
);
},
{
closed = 1;
nodes = (
(346,594,o),
(280,594,q),
(214,594,o),
(173,560,q),
(172,546,o),
(172,533,q),
(172,373,o),
(343,373,q),
(338,336,l),
(326,336,l),
(247,336,o),
(195.5,304.5,q),
(144,273,o),
(144,203,q),
(144,133,o),
(192,94.5,q),
(240,56,o),
(305,56,q),
(370,56,o),
(407,80,q),
(414,94,o),
(414,124,q),
(414,154,o),
(404,165,q),
(405,172,l),
(430,187,o),
(455,214,q),
(467,213,o),
(474.5,204,q),
(482,195,o),
(482,183,q),
(482,122,o),
(424.5,64.5,q),
(367,7,o),
(299,-15,q),
(192,-15,o),
(121,37,q),
(50,89,o),
(50,185,q),
(50,254,o),
(108,300,q),
(166,346,o),
(240,346,q),
(240,350,l),
(172,354,o),
(126.5,388,q),
(81,422,o),
(81,482,q),
(117,546,o),
(176.5,597,q),
(236,648,o),
(304,666,q),
(375,666,o),
(444,647,q),
(460,655,o),
(485,678,q),
(506,664,l),
(440,584,o),
(425,473,q),
(399,473,l),
(399,528,o),
(394,566,q)
);
}
);
width = 513;
}
);
unicode = 201;
},
{
category = Letter;
glyphname = Ecircumflex;
layers = (
{
layerId = "36f52ca2-ef18-4734-b79f-232be43107ca";
name = Fore;
shapes = (
{
closed = 1;
nodes = (
(303,790,l),
(142,715,l),
(132,734,l),
(224,792,o),
(293,885,q),
(313,885,l),
(382,792,o),
(474,734,q),
(464,715,l)
);
},
{
closed = 1;
nodes = (
(346,594,o),
(280,594,q),
(214,594,o),
(173,560,q),
(172,546,o),
(172,533,q),
(172,373,o),
(343,373,q),
(338,336,l),
(326,336,l),
(247,336,o),
(195.5,304.5,q),
(144,273,o),
(144,203,q),
(144,133,o),
(192,94.5,q),
(240,56,o),
(305,56,q),
(370,56,o),
(407,80,q),
(414,94,o),
(414,124,q),
(414,154,o),
(404,165,q),
(405,172,l),
(430,187,o),
(455,214,q),
(467,213,o),
(474.5,204,q),
(482,195,o),
(482,183,q),
(482,122,o),
(424.5,64.5,q),
(367,7,o),
(299,-15,q),
(192,-15,o),
(121,37,q),
(50,89,o),
(50,185,q),
(50,254,o),
(108,300,q),
(166,346,o),
(240,346,q),
(240,350,l),
(172,354,o),
(126.5,388,q),
(81,422,o),
(81,482,q),
(117,546,o),
(176.5,597,q),
(236,648,o),
(304,666,q),
(375,666,o),
(444,647,q),
(460,655,o),
(485,678,q),
(506,664,l),
(440,584,o),
(425,473,q),
(399,473,l),
(399,528,o),
(394,566,q)
);
}
);
width = 513;
}
);
unicode = 202;
},
{
category = Letter;
glyphname = Edieresis;
layers = (
{
layerId = "36f52ca2-ef18-4734-b79f-232be43107ca";
name = Fore;
shapes = (
{
closed = 1;
nodes = (
(259,790,o),
(241.5,770,q),
(224,750,o),
(212,742,q),
(200,750,o),
(182.5,770,q),
(165,790,o),
(158,803,q),
(164,815,o),
(181,830.5,q),
(198,846,o),
(212,853,q),
(225,845,o),
(242,829.5,q),
(259,814,o),
(266,803,q)
);
},
{
closed = 1;
nodes = (
(444,790,o),
(426.5,770,q),
(409,750,o),
(397,742,q),
(385,750,o),
(367.5,770,q),
(350,790,o),
(343,803,q),
(349,815,o),
(366,830.5,q),
(383,846,o),
(397,853,q),
(410,845,o),
(427,829.5,q),
(444,814,o),
(451,803,q)
);
},
{
closed = 1;
nodes = (
(346,594,o),
(280,594,q),
(214,594,o),
(173,560,q),
(172,546,o),
(172,533,q),
(172,373,o),
(343,373,q),
(338,336,l),
(326,336,l),
(247,336,o),
(195.5,304.5,q),
(144,273,o),
(144,203,q),
(144,133,o),
(192,94.5,q),
(240,56,o),
(305,56,q),
(370,56,o),
(407,80,q),
(414,94,o),
(414,124,q),
(414,154,o),
(404,165,q),
(405,172,l),
(430,187,o),
(455,214,q),
(467,213,o),
(474.5,204,q),
(482,195,o),
(482,183,q),
(482,122,o),
(424.5,64.5,q),
(367,7,o),
(299,-15,q),
(192,-15,o),
(121,37,q),
(50,89,o),
(50,185,q),
(50,254,o),
(108,300,q),
(166,346,o),
(240,346,q),
(240,350,l),
(172,354,o),
(126.5,388,q),
(81,422,o),
(81,482,q),
(117,546,o),
(176.5,597,q),
(236,648,o),
(304,666,q),
(375,666,o),
(444,647,q),
(460,655,o),
(485,678,q),
(506,664,l),
(440,584,o),
(425,473,q),
(399,473,l),
(399,528,o),
(394,566,q)
);
}
);
width = 513;
}
);
unicode = 203;
},
{
category = Letter;
glyphname = Igrave;
layers = (
{
layerId = "36f52ca2-ef18-4734-b79f-232be43107ca";
name = Fore;
shapes = (
{
closed = 1;
nodes = (
(23,806,l),
(22,816,o),
(27.5,837.5,q),
(33,859,o),
(38,868,q),
(58,875,o),
(80,877,q),
(155,787,o),
(237,751,q),
(229,731,l)
);
},
{
closed = 1;
nodes = (
(207,541,o),
(207,336,q),
(207,131,o),
(220,35,q),
(273,30,o),
(330,16,q),
(327,-8,l),
(253,0,o),
(166.5,0,q),
(80,0,o),
(27,-8,q),
(23,17,l),
(68,31,o),
(119,38,q),
(130,120,o),
(130,296,q),
(130,355,l),
(130,517,o),
(117,613,q),
(66,620,o),
(21,634,q),
(25,659,l),
(78,651,o),
(164.5,651,q),
(251,651,o),
(325,659,q),
(328,635,l),
(271,621,o),
(218,616,q)
);
}
);
width = 337;
}
);
unicode = 204;
},
{
category = Letter;
glyphname = Iacute;
layers = (
{
layerId = "36f52ca2-ef18-4734-b79f-232be43107ca";
name = Fore;
shapes = (
{
closed = 1;
nodes = (
(109,722,l),
(101,742,l),
(183,778,o),
(258,868,q),
(280,866,o),
(300,859,q),
(305,850,o),
(310.5,828.5,q),
(316,807,o),
(315,797,q)
);
},
{
closed = 1;
nodes = (
(207,541,o),
(207,336,q),
(207,131,o),
(220,35,q),
(273,30,o),
(330,16,q),
(327,-8,l),
(253,0,o),
(166.5,0,q),
(80,0,o),
(27,-8,q),
(23,17,l),
(68,31,o),
(119,38,q),
(130,120,o),
(130,296,q),
(130,355,l),
(130,517,o),
(117,613,q),
(66,620,o),
(21,634,q),
(25,659,l),
(78,651,o),
(164.5,651,q),
(251,651,o),
(325,659,q),
(328,635,l),
(271,621,o),
(218,616,q)
);
}
);
width = 337;
}
);
unicode = 205;
},
{
category = Letter;
glyphname = Icircumflex;
layers = (
{
layerId = "36f52ca2-ef18-4734-b79f-232be43107ca";
name = Fore;
shapes = (
{
closed = 1;
nodes = (
(174,790,l),
(13,715,l),
(3,734,l),
(95,792,o),
(164,885,q),
(184,885,l),
(253,792,o),
(345,734,q),
(335,715,l)
);
},
{
closed = 1;
nodes = (
(207,541,o),
(207,336,q),
(207,131,o),
(220,35,q),
(273,30,o),
(330,16,q),
(327,-8,l),
(253,0,o),
(166.5,0,q),
(80,0,o),
(27,-8,q),
(23,17,l),
(68,31,o),
(119,38,q),
(130,120,o),
(130,296,q),
(130,355,l),
(130,517,o),
(117,613,q),
(66,620,o),
(21,634,q),
(25,659,l),
(78,651,o),
(164.5,651,q),
(251,651,o),
(325,659,q),
(328,635,l),
(271,621,o),
(218,616,q)
);
},
{
closed = 1;
nodes = (
(271,621,o),
(328,635,q),
(325,659,l),
(251,651,o),
(164.5,651,q),
(78,651,o),
(25,659,q),
(21,634,l),
(66,620,o),
(117,613,q),
(130,517,o),
(130,355,q),
(130,296,l),
(130,120,o),
(119,38,q),
(68,31,o),
(23,17,q),
(27,-8,l),
(80,0,o),
(166.5,0,q),
(253,0,o),
(327,-8,q),
(330,16,l),
(273,30,o),
(220,35,q),
(207,131,o),
(207,336,q),
(207,541,o),
(218,616,q)
);
}
);
width = 337;
}
);
unicode = 206;
},
{
category = Letter;
glyphname = Idieresis;
layers = (
{
layerId = "36f52ca2-ef18-4734-b79f-232be43107ca";
name = Fore;
shapes = (
{
closed = 1;
nodes = (
(128,790,o),
(110.5,770,q),
(93,750,o),
(81,742,q),
(69,750,o),
(51.5,770,q),
(34,790,o),
(27,803,q),
(33,815,o),
(50,830.5,q),
(67,846,o),
(81,853,q),
(94,845,o),
(111,829.5,q),
(128,814,o),
(135,803,q)
);
},
{
closed = 1;
nodes = (
(313,790,o),
(295.5,770,q),
(278,750,o),
(266,742,q),
(254,750,o),
(236.5,770,q),
(219,790,o),
(212,803,q),
(218,815,o),
(235,830.5,q),
(252,846,o),
(266,853,q),
(279,845,o),
(296,829.5,q),
(313,814,o),
(320,803,q)
);
},
{
closed = 1;
nodes = (
(207,541,o),
(207,336,q),
(207,131,o),
(220,35,q),
(273,30,o),
(330,16,q),
(327,-8,l),
(253,0,o),
(166.5,0,q),
(80,0,o),
(27,-8,q),
(23,17,l),
(68,31,o),
(119,38,q),
(130,120,o),
(130,296,q),
(130,355,l),
(130,517,o),
(117,613,q),
(66,620,o),
(21,634,q),
(25,659,l),
(78,651,o),
(164.5,651,q),
(251,651,o),
(325,659,q),
(328,635,l),
(271,621,o),
(218,616,q)
);
}
);
width = 337;
}
);
unicode = 207;
},
{
category = Letter;
glyphname = Eth;
layers = (
{
layerId = "36f52ca2-ef18-4734-b79f-232be43107ca";
name = Fore;
shapes = (
{
closed = 1;
nodes = (
(-32,552,o),
(-32,522,q),
(-32,492,o),
(-22,481,q),
(-23,474,l),
(-48,459,o),
(-73,432,q),
(-85,433,o),
(-92.5,442,q),
(-100,451,o),
(-100,463,q),
(-100,509,o),
(-47.5,572,q),
(5,635,o),
(53,659,q),
(138,651,o),
(305,651,q),
(578,651,o),
(578,386,q),
(578,247,o),
(505,134,q),
(432,21,o),
(307,-15,q),
(235,-15,o),
(146,23,q),
(129,-3,o),
(123,-22,q),
(102,-17,l),
(126,91,o),
(126,324,q),
(65,321,o),
(19,315,q),
(16,319,l),
(22,339,o),
(23,351,q),
(126,354,l),
(125,495,o),
(117,598,q),
(6,596,o),
(-25,566,q)
);
},
{
closed = 1;
nodes = (
(262,57,o),
(331,57,q),
(400,57,o),
(438,91,q),
(489,184,o),
(489,321,q),
(489,458,o),
(446.5,531,q),
(404,604,o),
(289,604,q),
(243,604,o),
(212,599,q),
(203,512,o),
(203,357,q),
(264,359,l),
(328,362,o),
(348,364,q),
(352,344,o),
(357,333,q),
(357,328,l),
(235,326,l),
(203,325,l),
(203,173,o),
(208,85,q)
);
}
);
width = 620;
}
);
unicode = 208;
},
{
category = Letter;
glyphname = Ntilde;
layers = (
{
layerId = "36f52ca2-ef18-4734-b79f-232be43107ca";
name = Fore;
shapes = (
{
closed = 1;
nodes = (
(388,806,o),
(440.5,806,q),
(493,806,o),
(513,830,q),
(531,819,l),
(475,758,o),
(427,737,q),
(406,737,o),
(354.5,752.5,q),
(303,768,o),
(282,768,q),
(239,768,o),
(219,744,q),
(201,755,l),
(257,816,o),
(329,837,q)
);
},
{
closed = 1;
nodes = (
(523,467,o),
(508,546.5,q),
(493,626,o),
(451,641,q),
(455,655,l),
(486,651,o),
(556,651,q),
(626,651,o),
(685,659,q),
(688,636,l),
(617,619,o),
(589,616,q),
(576,518,o),
(576,355,q),
(576,296,l),
(576,109,o),
(589,35,q),
(640,29,o),
(685,17,q),
(681,-8,l),
(628,0,o),
(574.5,0,q),
(521,0,o),
(488,-3,q),
(488,30,o),
(423,144,q),
(358,258,o),
(187,525,q),
(183,523,l),
(183,355,l),
(183,110,o),
(220,35,q),
(275,30,o),
(329,16,q),
(327,-8,l),
(253,0,o),
(166.5,0,q),
(80,0,o),
(27,-8,q),
(23,17,l),
(68,31,o),
(119,38,q),
(130,120,o),
(130,296,q),
(130,355,l),
(130,496,o),
(118,596,q),
(0,596,o),
(-33,564,q),
(-40,550,o),
(-40,520,q),
(-40,490,o),
(-30,479,q),
(-31,472,l),
(-56,457,o),
(-81,430,q),
(-93,431,o),
(-100.5,440,q),
(-108,449,o),
(-108,461,q),
(-108,510,o),
(-49,578,q),
(10,646,o),
(61,664,q),
(73,663,o),
(128.5,657,q),
(184,651,o),
(220,651,q),
(256,651,o),
(287,657,q),
(291,632,l),
(250,615,o),
(250,599,q),
(255,572,o),
(307,485.5,q),
(359,399,o),
(519,150,q),
(523,152,l),
(523,296,l)
);
}
);
width = 706;
}
);
unicode = 209;
},
{
category = Letter;
glyphname = Ograve;
layers = (
{
layerId = "36f52ca2-ef18-4734-b79f-232be43107ca";
name = Fore;
shapes = (
{
closed = 1;
nodes = (
(169,806,l),
(168,816,o),
(173.5,837.5,q),
(179,859,o),
(184,868,q),
(204,875,o),
(226,877,q),
(301,787,o),
(383,751,q),
(375,731,l)
);
},
{
closed = 1;
nodes = (
(560,520,o),
(560,384.5,q),
(560,249,o),
(491.5,140.5,q),
(423,32,o),
(301,-15,q),
(184,-15,o),
(113,62.5,q),
(42,140,o),
(42,265,q),
(42,469,o),
(190,603,q),
(202,595,l),
(131,492,o),
(131,339,q),
(131,230,o),
(181.5,143.5,q),
(232,57,o),
(322,57,q),
(381,57,o),
(421,92,q),
(471,184,o),
(471,310,q),
(471,475,o),
(408,552,q),
(374,594,o),
(323,594,q),
(297,594,o),
(275,579,q),
(253,564,o),
(244,540,q),
(244,520,o),
(253,493.5,q),
(262,467,o),
(276,460,q),
(278,453,l),
(256,426,o),
(245,396,q),
(243,395,o),
(237,395,q),
(201,395,o),
(201,459,q),
(201,567,o),
(313,666,q),
(435,666,o),
(497.5,593,q)
);
}
);
width = 602;
}
);
unicode = 210;
},
{
category = Letter;
glyphname = Oacute;
layers = (
{
layerId = "36f52ca2-ef18-4734-b79f-232be43107ca";
name = Fore;
shapes = (
{
closed = 1;
nodes = (
(279,722,l),
(271,742,l),
(353,778,o),
(428,868,q),
(450,866,o),
(470,859,q),
(475,850,o),
(480.5,828.5,q),
(486,807,o),
(485,797,q)
);
},
{
closed = 1;
nodes = (
(560,520,o),
(560,384.5,q),
(560,249,o),
(491.5,140.5,q),
(423,32,o),
(301,-15,q),
(184,-15,o),
(113,62.5,q),
(42,140,o),
(42,265,q),
(42,469,o),
(190,603,q),
(202,595,l),
(131,492,o),
(131,339,q),
(131,230,o),
(181.5,143.5,q),
(232,57,o),
(322,57,q),
(381,57,o),
(421,92,q),
(471,184,o),
(471,310,q),
(471,475,o),
(408,552,q),
(374,594,o),
(323,594,q),
(297,594,o),
(275,579,q),
(253,564,o),
(244,540,q),
(244,520,o),
(253,493.5,q),
(262,467,o),
(276,460,q),
(278,453,l),
(256,426,o),
(245,396,q),
(243,395,o),
(237,395,q),
(201,395,o),
(201,459,q),
(201,567,o),
(313,666,q),
(435,666,o),
(497.5,593,q)
);
}
);
width = 602;
}
);
unicode = 211;
},
{
category = Letter;
glyphname = Ocircumflex;
layers = (
{
layerId = "36f52ca2-ef18-4734-b79f-232be43107ca";
name = Fore;
shapes = (
{
closed = 1;
nodes = (
(321,790,l),
(160,715,l),
(150,734,l),
(242,792,o),
(311,885,q),
(331,885,l),
(400,792,o),
(492,734,q),
(482,715,l)
);
},
{
closed = 1;
nodes = (
(560,520,o),
(560,384.5,q),
(560,249,o),
(491.5,140.5,q),
(423,32,o),
(301,-15,q),
(184,-15,o),
(113,62.5,q),
(42,140,o),
(42,265,q),
(42,469,o),
(190,603,q),
(202,595,l),
(131,492,o),
(131,339,q),
(131,230,o),
(181.5,143.5,q),
(232,57,o),
(322,57,q),
(381,57,o),
(421,92,q),
(471,184,o),
(471,310,q),
(471,475,o),
(408,552,q),
(374,594,o),
(323,594,q),
(297,594,o),
(275,579,q),
(253,564,o),
(244,540,q),
(244,520,o),
(253,493.5,q),
(262,467,o),
(276,460,q),
(278,453,l),
(256,426,o),
(245,396,q),
(243,395,o),
(237,395,q),
(201,395,o),
(201,459,q),
(201,567,o),
(313,666,q),
(435,666,o),
(497.5,593,q)
);
}
);
width = 602;
}
);
unicode = 212;
},
{
category = Letter;
glyphname = Otilde;
layers = (
{
layerId = "36f52ca2-ef18-4734-b79f-232be43107ca";
name = Fore;
shapes = (
{
closed = 1;
nodes = (
(344,806,o),
(396.5,806,q),
(449,806,o),
(469,830,q),
(487,819,l),
(431,758,o),
(383,737,q),
(362,737,o),
(310.5,752.5,q),
(259,768,o),
(238,768,q),
(195,768,o),
(175,744,q),
(157,755,l),
(213,816,o),
(285,837,q)
);
},
{
closed = 1;
nodes = (
(560,520,o),
(560,384.5,q),
(560,249,o),
(491.5,140.5,q),
(423,32,o),
(301,-15,q),
(184,-15,o),
(113,62.5,q),
(42,140,o),
(42,265,q),
(42,469,o),
(190,603,q),
(202,595,l),
(131,492,o),
(131,339,q),
(131,230,o),
(181.5,143.5,q),
(232,57,o),
(322,57,q),
(381,57,o),
(421,92,q),
(471,184,o),
(471,310,q),
(471,475,o),
(408,552,q),
(374,594,o),
(323,594,q),
(297,594,o),
(275,579,q),
(253,564,o),
(244,540,q),
(244,520,o),
(253,493.5,q),
(262,467,o),
(276,460,q),
(278,453,l),
(256,426,o),
(245,396,q),
(243,395,o),
(237,395,q),
(201,395,o),
(201,459,q),
(201,567,o),
(313,666,q),
(435,666,o),
(497.5,593,q)
);
}
);
width = 602;
}
);
unicode = 213;
},
{
category = Letter;
glyphname = Odieresis;
layers = (
{
layerId = "36f52ca2-ef18-4734-b79f-232be43107ca";
name = Fore;
shapes = (
{
closed = 1;
nodes = (
(276,790,o),
(258.5,770,q),
(241,750,o),
(229,742,q),
(217,750,o),
(199.5,770,q),
(182,790,o),
(175,803,q),
(181,815,o),
(198,830.5,q),
(215,846,o),
(229,853,q),
(242,845,o),
(259,829.5,q),
(276,814,o),
(283,803,q)
);
},
{
closed = 1;
nodes = (
(461,790,o),
(443.5,770,q),
(426,750,o),
(414,742,q),
(402,750,o),
(384.5,770,q),
(367,790,o),
(360,803,q),
(366,815,o),
(383,830.5,q),
(400,846,o),
(414,853,q),
(427,845,o),
(444,829.5,q),
(461,814,o),
(468,803,q)
);
},
{
closed = 1;
nodes = (
(560,520,o),
(560,384.5,q),
(560,249,o),
(491.5,140.5,q),
(423,32,o),
(301,-15,q),
(184,-15,o),
(113,62.5,q),
(42,140,o),
(42,265,q),
(42,469,o),
(190,603,q),
(202,595,l),
(131,492,o),
(131,339,q),
(131,230,o),
(181.5,143.5,q),
(232,57,o),
(322,57,q),
(381,57,o),
(421,92,q),
(471,184,o),
(471,310,q),
(471,475,o),
(408,552,q),
(374,594,o),
(323,594,q),
(297,594,o),
(275,579,q),
(253,564,o),
(244,540,q),
(244,520,o),
(253,493.5,q),
(262,467,o),
(276,460,q),
(278,453,l),
(256,426,o),
(245,396,q),
(243,395,o),
(237,395,q),
(201,395,o),
(201,459,q),
(201,567,o),
(313,666,q),
(435,666,o),
(497.5,593,q)
);
}
);
width = 602;
}
);
unicode = 214;
},
{
category = Letter;
glyphname = multiply;
layers = (
{
layerId = "36f52ca2-ef18-4734-b79f-232be43107ca";
name = Fore;
shapes = (
{
closed = 1;
nodes = (
(465,390,l),
(311,239,l),
(348,201,o),
(405.5,150,q),
(463,99,o),
(475,89,q),
(447,50,l),
(436,50,l),
(278,205,l),
(120,50,l),
(109,50,l),
(81,89,l),
(211,205,o),
(244,239,q),
(91,390,l),
(129,425,l),
(137,424,l),
(180,376,o),
(278,273,q),
(419,424,l),
(427,425,l)
);
}
);
width = 550;
}
);
unicode = 215;
},
{
category = Letter;
glyphname = Oslash;
layers = (
{
layerId = "36f52ca2-ef18-4734-b79f-232be43107ca";
name = Fore;
shapes = (
{
closed = 1;
nodes = (
(153,-87,l),
(137,-78,o),
(127,-63,q),
(175,44,o),
(213,143,q),
(353,511,l),
(393,615,o),
(431,732,q),
(454,734,o),
(469,739,q),
(473,736,l),
(460,706,o),
(390,524,q),
(158,-87,l)
);
},
{
closed = 1;
nodes = (
(560,520,o),
(560,384.5,q),
(560,249,o),
(491.5,140.5,q),
(423,32,o),
(301,-15,q),
(184,-15,o),
(113,62.5,q),
(42,140,o),
(42,265,q),
(42,469,o),
(190,603,q),
(202,595,l),
(131,492,o),
(131,339,q),
(131,230,o),
(181.5,143.5,q),
(232,57,o),
(322,57,q),
(381,57,o),
(421,92,q),
(471,184,o),
(471,310,q),
(471,475,o),
(408,552,q),
(374,594,o),
(323,594,q),
(297,594,o),
(275,579,q),
(253,564,o),
(244,540,q),
(244,520,o),
(253,493.5,q),
(262,467,o),
(276,460,q),
(278,453,l),
(256,426,o),
(245,396,q),
(243,395,o),
(237,395,q),
(201,395,o),
(201,459,q),
(201,567,o),
(313,666,q),
(435,666,o),
(497.5,593,q)
);
}
);
width = 602;
}
);
unicode = 216;
},
{
category = Letter;
glyphname = Ugrave;
layers = (
{
layerId = "36f52ca2-ef18-4734-b79f-232be43107ca";
name = Fore;
shapes = (
{
closed = 1;
nodes = (
(186,806,l),
(185,816,o),
(190.5,837.5,q),
(196,859,o),
(201,868,q),
(221,875,o),
(243,877,q),
(318,787,o),
(400,751,q),
(392,731,l)
);
},
{
closed = 1;
nodes = (
(183,423,o),
(183,325,q),
(183,227,o),
(188,192.5,q),
(193,158,o),
(208,128,q),
(237,66,o),
(320,66,q),
(403,66,o),
(453,112,q),
(458,242,o),
(458,372,q),
(458,502,o),
(447,616,q),
(396,623,o),
(351,637,q),
(355,659,l),
(416,651,o),
(503.5,651,q),
(591,651,o),
(655,659,q),
(658,638,l),
(601,624,o),
(548,619,q),
(535,545,o),
(535,355,q),
(535,296,l),
(535,109,o),
(548,35,q),
(601,30,o),
(658,16,q),
(655,-8,l),
(591,0,o),
(525,0,q),
(459,0,o),
(441,-1,q),
(438,13,l),
(447,24,o),
(451,84,q),
(393,19,o),
(305,-15,q),
(192,-15,o),
(147.5,50.5,q),
(103,116,o),
(103,241,q),
(103,298,o),
(110,422,q),
(117,546,o),
(117,561,q),
(117,576,o),
(114,596,q),
(-4,596,o),
(-37,564,q),
(-44,550,o),
(-44,520,q),
(-44,490,o),
(-34,479,q),
(-35,472,l),
(-60,457,o),
(-85,430,q),
(-97,431,o),
(-104.5,440,q),
(-112,449,o),
(-112,461,q),
(-112,510,o),
(-53,578,q),
(6,646,o),
(57,664,q),
(80,663,o),
(117.5,657,q),
(155,651,o),
(186,651,q),
(217,651,o),
(245,655,q),
(249,641,l),
(204,616,o),
(197,549,q)
);
}
);
width = 665;
}
);
unicode = 217;
},
{
category = Letter;
glyphname = Uacute;
layers = (
{
layerId = "36f52ca2-ef18-4734-b79f-232be43107ca";
name = Fore;
shapes = (
{
closed = 1;
nodes = (
(332,722,l),
(324,742,l),
(406,778,o),
(481,868,q),
(503,866,o),
(523,859,q),
(528,850,o),
(533.5,828.5,q),
(539,807,o),
(538,797,q)
);
},
{
closed = 1;
nodes = (
(183,423,o),
(183,325,q),
(183,227,o),
(188,192.5,q),
(193,158,o),
(208,128,q),
(237,66,o),
(320,66,q),
(403,66,o),
(453,112,q),
(458,242,o),
(458,372,q),
(458,502,o),
(447,616,q),
(396,623,o),
(351,637,q),
(355,659,l),
(416,651,o),
(503.5,651,q),
(591,651,o),
(655,659,q),
(658,638,l),
(601,624,o),
(548,619,q),
(535,545,o),
(535,355,q),
(535,296,l),
(535,109,o),
(548,35,q),
(601,30,o),
(658,16,q),
(655,-8,l),
(591,0,o),
(525,0,q),
(459,0,o),
(441,-1,q),
(438,13,l),
(447,24,o),
(451,84,q),
(393,19,o),
(305,-15,q),
(192,-15,o),
(147.5,50.5,q),
(103,116,o),
(103,241,q),
(103,298,o),
(110,422,q),
(117,546,o),
(117,561,q),
(117,576,o),
(114,596,q),
(-4,596,o),
(-37,564,q),
(-44,550,o),
(-44,520,q),
(-44,490,o),
(-34,479,q),
(-35,472,l),
(-60,457,o),
(-85,430,q),
(-97,431,o),
(-104.5,440,q),
(-112,449,o),
(-112,461,q),
(-112,510,o),
(-53,578,q),
(6,646,o),
(57,664,q),
(80,663,o),
(117.5,657,q),
(155,651,o),
(186,651,q),
(217,651,o),
(245,655,q),
(249,641,l),
(204,616,o),
(197,549,q)
);
}
);
width = 665;
}
);
unicode = 218;
},
{
category = Letter;
glyphname = Ucircumflex;
layers = (
{
layerId = "36f52ca2-ef18-4734-b79f-232be43107ca";
name = Fore;
shapes = (
{
closed = 1;
nodes = (
(355,790,l),
(194,715,l),
(184,734,l),
(276,792,o),
(345,885,q),
(365,885,l),
(434,792,o),
(526,734,q),
(516,715,l)
);
},
{
closed = 1;
nodes = (
(183,423,o),
(183,325,q),
(183,227,o),
(188,192.5,q),
(193,158,o),
(208,128,q),
(237,66,o),
(320,66,q),
(403,66,o),
(453,112,q),
(458,242,o),
(458,372,q),
(458,502,o),
(447,616,q),
(396,623,o),
(351,637,q),
(355,659,l),
(416,651,o),
(503.5,651,q),
(591,651,o),
(655,659,q),
(658,638,l),
(601,624,o),
(548,619,q),
(535,545,o),
(535,355,q),
(535,296,l),
(535,109,o),
(548,35,q),
(601,30,o),
(658,16,q),
(655,-8,l),
(591,0,o),
(525,0,q),
(459,0,o),
(441,-1,q),
(438,13,l),
(447,24,o),
(451,84,q),
(393,19,o),
(305,-15,q),
(192,-15,o),
(147.5,50.5,q),
(103,116,o),
(103,241,q),
(103,298,o),
(110,422,q),
(117,546,o),
(117,561,q),
(117,576,o),
(114,596,q),
(-4,596,o),
(-37,564,q),
(-44,550,o),
(-44,520,q),
(-44,490,o),
(-34,479,q),
(-35,472,l),
(-60,457,o),
(-85,430,q),
(-97,431,o),
(-104.5,440,q),
(-112,449,o),
(-112,461,q),
(-112,510,o),
(-53,578,q),
(6,646,o),
(57,664,q),
(80,663,o),
(117.5,657,q),
(155,651,o),
(186,651,q),
(217,651,o),
(245,655,q),
(249,641,l),
(204,616,o),
(197,549,q)
);
}
);
width = 665;
}
);
unicode = 219;
},
{
category = Letter;
glyphname = Udieresis;
layers = (
{
layerId = "36f52ca2-ef18-4734-b79f-232be43107ca";
name = Fore;
shapes = (
{
closed = 1;
nodes = (
(310,790,o),
(292.5,770,q),
(275,750,o),
(263,742,q),
(251,750,o),
(233.5,770,q),
(216,790,o),
(209,803,q),
(215,815,o),
(232,830.5,q),
(249,846,o),
(263,853,q),
(276,845,o),
(293,829.5,q),
(310,814,o),
(317,803,q)
);
},
{
closed = 1;
nodes = (
(495,790,o),
(477.5,770,q),
(460,750,o),
(448,742,q),
(436,750,o),
(418.5,770,q),
(401,790,o),
(394,803,q),
(400,815,o),
(417,830.5,q),
(434,846,o),
(448,853,q),
(461,845,o),
(478,829.5,q),
(495,814,o),
(502,803,q)
);
},
{
closed = 1;
nodes = (
(183,423,o),
(183,325,q),
(183,227,o),
(188,192.5,q),
(193,158,o),
(208,128,q),
(237,66,o),
(320,66,q),
(403,66,o),
(453,112,q),
(458,242,o),
(458,372,q),
(458,502,o),
(447,616,q),
(396,623,o),
(351,637,q),
(355,659,l),
(416,651,o),
(503.5,651,q),
(591,651,o),
(655,659,q),
(658,638,l),
(601,624,o),
(548,619,q),
(535,545,o),
(535,355,q),
(535,296,l),
(535,109,o),
(548,35,q),
(601,30,o),
(658,16,q),
(655,-8,l),
(591,0,o),
(525,0,q),
(459,0,o),
(441,-1,q),
(438,13,l),
(447,24,o),
(451,84,q),
(393,19,o),
(305,-15,q),
(192,-15,o),
(147.5,50.5,q),
(103,116,o),
(103,241,q),
(103,298,o),
(110,422,q),
(117,546,o),
(117,561,q),
(117,576,o),
(114,596,q),
(-4,596,o),
(-37,564,q),
(-44,550,o),
(-44,520,q),
(-44,490,o),
(-34,479,q),
(-35,472,l),
(-60,457,o),
(-85,430,q),
(-97,431,o),
(-104.5,440,q),
(-112,449,o),
(-112,461,q),
(-112,510,o),
(-53,578,q),
(6,646,o),
(57,664,q),
(80,663,o),
(117.5,657,q),
(155,651,o),
(186,651,q),
(217,651,o),
(245,655,q),
(249,641,l),
(204,616,o),
(197,549,q)
);
}
);
width = 665;
}
);
unicode = 220;
},
{
category = Letter;
glyphname = Yacute;
layers = (
{
layerId = "36f52ca2-ef18-4734-b79f-232be43107ca";
name = Fore;
shapes = (
{
closed = 1;
nodes = (
(287,722,l),
(279,742,l),
(361,778,o),
(436,868,q),
(458,866,o),
(478,859,q),
(483,850,o),
(488.5,828.5,q),
(494,807,o),
(493,797,q)
);
},
{
closed = 1;
nodes = (
(234,271,l),
(64,635,l),
(25,719,o),
(-21,740,q),
(-39,740,o),
(-65,727,q),
(-91,714,o),
(-97,701,q),
(-103,699,l),
(-130,717,o),
(-163,727,q),
(-166,733,o),
(-166,743.5,q),
(-166,754,o),
(-149.5,763.5,q),
(-133,773,o),
(-103,773,q),
(-40,773,o),
(45.5,738,q),
(131,703,o),
(164,666,q),
(185,576,o),
(210.5,511.5,q),
(236,447,o),
(291,337,q),
(402,554,o),
(402,609,q),
(402,631,o),
(382,641,q),
(386,655,l),
(436,651,o),
(491.5,651,q),
(547,651,o),
(599,659,q),
(604,634,l),
(556,619,o),
(507,613,q),
(311,298,l),
(311,131,o),
(324,35,q),
(377,30,o),
(434,16,q),
(431,-8,l),
(357,0,o),
(270.5,0,q),
(184,0,o),
(131,-8,q),
(127,17,l),
(172,31,o),
(223,38,q),
(234,120,o),
(234,245,q)
);
}
);
width = 545;
}
);
unicode = 221;
},
{
category = Letter;
glyphname = Thorn;
layers = (
{
layerId = "36f52ca2-ef18-4734-b79f-232be43107ca";
name = Fore;
shapes = (
{
closed = 1;
nodes = (
(305,528,l),
(511,528,o),
(511,364,q),
(511,275,o),
(438,220,q),
(365,165,o),
(268,165,q),
(253,165,o),
(246,166,q),
(250,198,l),
(262,198,l),
(337,198,o),
(377,236,q),
(417,274,o),
(417,347,q),
(417,420,o),
(386,455.5,q),
(355,491,o),
(288,491,q),
(248,491,o),
(210,478,q),
(209,478,l),
(207,438,o),
(207,284.5,q),
(207,131,o),
(220,35,q),
(273,30,o),
(330,16,q),
(327,-8,l),
(253,0,o),
(166.5,0,q),
(80,0,o),
(27,-8,q),
(23,17,l),
(68,31,o),
(119,38,q),
(130,120,o),
(130,296,q),
(130,355,l),
(130,517,o),
(117,613,q),
(66,620,o),
(21,634,q),
(25,659,l),
(78,651,o),
(164.5,651,q),
(251,651,o),
(325,659,q),
(328,635,l),
(271,621,o),
(218,616,q),
(214,597,o),
(211,525,q)
);
}
);
width = 517;
}
);
unicode = 222;
},
{
category = Letter;
glyphname = germandbls;
layers = (
{
layerId = "36f52ca2-ef18-4734-b79f-232be43107ca";
name = Fore;
shapes = (
{
closed = 1;
nodes = (
(247,57,o),
(274,78,q),
(301,99,o),
(301,138,q),
(301,178,o),
(188,237,q),
(145,259,o),
(109.5,290.5,q),
(74,322,o),
(74,353,q),
(74,406,o),
(130,460,q),
(186,514,o),
(245,533,q),
(319,533,o),
(379,518,q),
(379,500,l),
(337,458,o),
(332,385,q),
(307,385,l),
(307,413,o),
(302,455,q),
(267,471,o),
(227,471,q),
(187,471,o),
(160.5,453.5,q),
(134,436,o),
(134,403,q),
(134,380,o),
(169.5,353,q),
(205,326,o),
(247,305,q),
(289,284,o),
(324.5,253,q),
(360,222,o),
(360,191,q),
(360,131,o),
(307,71.5,q),
(254,12,o),
(190,-12,q),
(127,-12,o),
(72,3,q),
(56,-4,o),
(39,-20,q),
(21,-7,l),
(77,54,o),
(83,144,q),
(108,144,l),
(108,109,o),
(111,76,q),
(157,57,o),
(202,57,q)
);
},
{
closed = 1;
nodes = (
(668,57,o),
(695,78,q),
(722,99,o),
(722,138,q),
(722,178,o),
(608,237,q),
(566,259,o),
(530.5,290.5,q),
(495,322,o),
(495,353,q),
(495,406,o),
(551,460,q),
(607,514,o),
(666,533,q),
(740,533,o),
(800,518,q),
(800,500,l),
(758,458,o),
(753,385,q),
(728,385,l),
(728,413,o),
(723,455,q),
(688,471,o),
(648,471,q),
(608,471,o),
(581.5,453.5,q),
(555,436,o),
(555,403,q),
(555,380,o),
(590.5,353,q),
(626,326,o),
(668,305,q),
(710,284,o),
(745.5,253,q),
(781,222,o),
(781,191,q),
(781,131,o),
(728,71.5,q),
(675,12,o),
(611,-12,q),
(548,-12,o),
(493,3,q),
(477,-4,o),
(460,-20,q),
(442,-7,l),
(498,54,o),
(504,144,q),
(529,144,l),
(529,109,o),
(532,76,q),
(578,57,o),
(623,57,q)
);
}
);
width = 833;
}
);
unicode = 223;
},
{
category = Letter;
glyphname = agrave;
layers = (
{
layerId = "36f52ca2-ef18-4734-b79f-232be43107ca";
name = Fore;
shapes = (
{
closed = 1;
nodes = (
(202,521,o),
(298,521,q),
(394,521,o),
(487,532,q),
(491,506,l),
(461,494,o),
(429,488,q),
(418,406,o),
(418,260,q),
(418,114,o),
(429,32,q),
(449,29,o),
(503,17,q),
(499,-8,l),
(451,0,o),
(376,0,q),
(301,0,o),
(261,-8,q),
(257,18,l),
(291,29,o),
(334,34,q),
(340,92,o),
(343,195,q),
(296,200,o),
(249,200,q),
(202,200,o),
(167,195,q),
(147,113,o),
(147,81,q),
(147,32,o),
(182,12,q),
(178,-5,l),
(155,0,o),
(91,0,q),
(27,0,o),
(-10,-8,q),
(-14,18,l),
(10,27,o),
(52,34,q),
(182,490,l),
(138,497,o),
(105,506,q),
(108,532,l)
);
},
{
closed = 1;
nodes = (
(214,236,o),
(261.5,236,q),
(309,236,o),
(343,242,q),
(343,427,o),
(335,481,q),
(301,483,o),
(284.5,483,q),
(268,483,o),
(234,481,q),
(175,242,l)
);
},
{
closed = 1;
nodes = (
(168,728,o),
(179.5,728,q),
(191,728,o),
(201,727,q),
(225,685,o),
(260.5,643,q),
(296,601,o),
(333,576,q),
(322,558,l),
(133,667,l),
(134,677,o),
(142.5,697.5,q),
(151,718,o),
(158,726,q)
);
}
);
width = 535;
}
);
unicode = 224;
},
{
category = Letter;
glyphname = aacute;
layers = (
{
layerId = "36f52ca2-ef18-4734-b79f-232be43107ca";
name = Fore;
shapes = (
{
closed = 1;
nodes = (
(202,521,o),
(298,521,q),
(394,521,o),
(487,532,q),
(491,506,l),
(461,494,o),
(429,488,q),
(418,406,o),
(418,260,q),
(418,114,o),
(429,32,q),
(449,29,o),
(503,17,q),
(499,-8,l),
(451,0,o),
(376,0,q),
(301,0,o),
(261,-8,q),
(257,18,l),
(291,29,o),
(334,34,q),
(340,92,o),
(343,195,q),
(296,200,o),
(249,200,q),
(202,200,o),
(167,195,q),
(147,113,o),
(147,81,q),
(147,32,o),
(182,12,q),
(178,-5,l),
(155,0,o),
(91,0,q),
(27,0,o),
(-10,-8,q),
(-14,18,l),
(10,27,o),
(52,34,q),
(182,490,l),
(138,497,o),
(105,506,q),
(108,532,l)
);
},
{
closed = 1;
nodes = (
(214,236,o),
(261.5,236,q),
(309,236,o),
(343,242,q),
(343,427,o),
(335,481,q),
(301,483,o),
(284.5,483,q),
(268,483,o),
(234,481,q),
(175,242,l)
);
},
{
closed = 1;
nodes = (
(413,728,o),
(424.5,728,q),
(436,728,o),
(446,726,q),
(453,718,o),
(461.5,697.5,q),
(470,677,o),
(471,667,q),
(282,558,l),
(271,576,l),
(308,601,o),
(343.5,643,q),
(379,685,o),
(403,727,q)
);
}
);
width = 535;
}
);
unicode = 225;
},
{
category = Letter;
glyphname = acircumflex;
layers = (
{
layerId = "36f52ca2-ef18-4734-b79f-232be43107ca";
name = Fore;
shapes = (
{
closed = 1;
nodes = (
(202,521,o),
(298,521,q),
(394,521,o),
(487,532,q),
(491,506,l),
(461,494,o),
(429,488,q),
(418,406,o),
(418,260,q),
(418,114,o),
(429,32,q),
(449,29,o),
(503,17,q),
(499,-8,l),
(451,0,o),
(376,0,q),
(301,0,o),
(261,-8,q),
(257,18,l),
(291,29,o),
(334,34,q),
(340,92,o),
(343,195,q),
(296,200,o),
(249,200,q),
(202,200,o),
(167,195,q),
(147,113,o),
(147,81,q),
(147,32,o),
(182,12,q),
(178,-5,l),
(155,0,o),
(91,0,q),
(27,0,o),
(-10,-8,q),
(-14,18,l),
(10,27,o),
(52,34,q),
(182,490,l),
(138,497,o),
(105,506,q),
(108,532,l)
);
},
{
closed = 1;
nodes = (
(214,236,o),
(261.5,236,q),
(309,236,o),
(343,242,q),
(343,427,o),
(335,481,q),
(301,483,o),
(284.5,483,q),
(268,483,o),
(234,481,q),
(175,242,l)
);
},
{
closed = 1;
nodes = (
(170,554,l),
(157,571,l),
(241,642,o),
(294,739,q),
(314,739,l),
(367,642,o),
(451,571,q),
(438,554,l),
(304,644,l)
);
}
);
width = 535;
}
);
unicode = 226;
},
{
category = Letter;
glyphname = atilde;
layers = (
{
layerId = "36f52ca2-ef18-4734-b79f-232be43107ca";
name = Fore;
shapes = (
{
closed = 1;
nodes = (
(202,521,o),
(298,521,q),
(394,521,o),
(487,532,q),
(491,506,l),
(461,494,o),
(429,488,q),
(418,406,o),
(418,260,q),
(418,114,o),
(429,32,q),
(449,29,o),
(503,17,q),
(499,-8,l),
(451,0,o),
(376,0,q),
(301,0,o),
(261,-8,q),
(257,18,l),
(291,29,o),
(334,34,q),
(340,92,o),
(343,195,q),
(296,200,o),
(249,200,q),
(202,200,o),
(167,195,q),
(147,113,o),
(147,81,q),
(147,32,o),
(182,12,q),
(178,-5,l),
(155,0,o),
(91,0,q),
(27,0,o),
(-10,-8,q),
(-14,18,l),
(10,27,o),
(52,34,q),
(182,490,l),
(138,497,o),
(105,506,q),
(108,532,l)
);
},
{
closed = 1;
nodes = (
(214,236,o),
(261.5,236,q),
(309,236,o),
(343,242,q),
(343,427,o),
(335,481,q),
(301,483,o),
(284.5,483,q),
(268,483,o),
(234,481,q),
(175,242,l)
);
},
{
closed = 1;
nodes = (
(335,665,o),
(387.5,665,q),
(440,665,o),
(460,689,q),
(478,678,l),
(422,617,o),
(374,596,q),
(353,596,o),
(301.5,611.5,q),
(250,627,o),
(229,627,q),
(186,627,o),
(166,603,q),
(148,614,l),
(204,675,o),
(276,696,q)
);
}
);
width = 535;
}
);
unicode = 227;
},
{
category = Letter;
glyphname = adieresis;
layers = (
{
layerId = "36f52ca2-ef18-4734-b79f-232be43107ca";
name = Fore;
shapes = (
{
closed = 1;
nodes = (
(202,521,o),
(298,521,q),
(394,521,o),
(487,532,q),
(491,506,l),
(461,494,o),
(429,488,q),
(418,406,o),
(418,260,q),
(418,114,o),
(429,32,q),
(449,29,o),
(503,17,q),
(499,-8,l),
(451,0,o),
(376,0,q),
(301,0,o),
(261,-8,q),
(257,18,l),
(291,29,o),
(334,34,q),
(340,92,o),
(343,195,q),
(296,200,o),
(249,200,q),
(202,200,o),
(167,195,q),
(147,113,o),
(147,81,q),
(147,32,o),
(182,12,q),
(178,-5,l),
(155,0,o),
(91,0,q),
(27,0,o),
(-10,-8,q),
(-14,18,l),
(10,27,o),
(52,34,q),
(182,490,l),
(138,497,o),
(105,506,q),
(108,532,l)
);
},
{
closed = 1;
nodes = (
(214,236,o),
(261.5,236,q),
(309,236,o),
(343,242,q),
(343,427,o),
(335,481,q),
(301,483,o),
(284.5,483,q),
(268,483,o),
(234,481,q),
(175,242,l)
);
},
{
closed = 1;
nodes = (
(252,648,o),
(234.5,628,q),
(217,608,o),
(205,600,q),
(193,608,o),
(175.5,628,q),
(158,648,o),
(151,661,q),
(157,673,o),
(174,688.5,q),
(191,704,o),
(205,711,q),
(218,703,o),
(235,687.5,q),
(252,672,o),
(259,661,q)
);
},
{
closed = 1;
nodes = (
(437,648,o),
(419.5,628,q),
(402,608,o),
(390,600,q),
(378,608,o),
(360.5,628,q),
(343,648,o),
(336,661,q),
(342,673,o),
(359,688.5,q),
(376,704,o),
(390,711,q),
(403,703,o),
(420,687.5,q),
(437,672,o),
(444,661,q)
);
}
);
width = 535;
}
);
unicode = 228;
},
{
category = Letter;
glyphname = aring;
layers = (
{
layerId = "36f52ca2-ef18-4734-b79f-232be43107ca";
name = Fore;
shapes = (
{
closed = 1;
nodes = (
(202,521,o),
(298,521,q),
(394,521,o),
(487,532,q),
(491,506,l),
(461,494,o),
(429,488,q),
(418,406,o),
(418,260,q),
(418,114,o),
(429,32,q),
(449,29,o),
(503,17,q),
(499,-8,l),
(451,0,o),
(376,0,q),
(301,0,o),
(261,-8,q),
(257,18,l),
(291,29,o),
(334,34,q),
(340,92,o),
(343,195,q),
(296,200,o),
(249,200,q),
(202,200,o),
(167,195,q),
(147,113,o),
(147,81,q),
(147,32,o),
(182,12,q),
(178,-5,l),
(155,0,o),
(91,0,q),
(27,0,o),
(-10,-8,q),
(-14,18,l),
(10,27,o),
(52,34,q),
(182,490,l),
(138,497,o),
(105,506,q),
(108,532,l)
);
},
{
closed = 1;
nodes = (
(214,236,o),
(261.5,236,q),
(309,236,o),
(343,242,q),
(343,427,o),
(335,481,q),
(301,483,o),
(284.5,483,q),
(268,483,o),
(234,481,q),
(175,242,l)
);
},
{
closed = 1;
nodes = (
(214,596,o),
(214,633.5,q),
(214,671,o),
(243.5,700.5,q),
(273,730,o),
(316,739,q),
(407,739,o),
(407,665,q),
(407,626,o),
(380.5,598.5,q),
(354,571,o),
(311,558,q),
(270,558,o),
(242,577,q)
);
},
{
closed = 1;
nodes = (
(329,704,o),
(305.5,704,q),
(282,704,o),
(272,695,q),
(261,678,o),
(261,652,q),
(261,626,o),
(277,609.5,q),
(293,593,o),
(315.5,593,q),
(338,593,o),
(349,602,q),
(360,618,o),
(360,645,q),
(360,672,o),
(344.5,688,q)
);
}
);
width = 514;
}
);
unicode = 229;
},
{
category = Letter;
glyphname = ae;
layers = (
{
layerId = "36f52ca2-ef18-4734-b79f-232be43107ca";
name = Fore;
shapes = (
{
closed = 1;
nodes = (
(231,521,o),
(365,521,q),
(499,521,o),
(621,533,q),
(626,513,l),
(586,471,o),
(581,391,q),
(556,391,l),
(549,424,o),
(549,471,q),
(514,488,o),
(466.5,488,q),
(419,488,o),
(401,484,q),
(388,450,o),
(380,298,q),
(415,291,o),
(449,291,q),
(510,291,o),
(527,326,q),
(548,323,l),
(539,293,o),
(539,264,q),
(539,235,o),
(546,193,q),
(522,189,l),
(511,219,o),
(506,251,q),
(466,255,o),
(444,255,q),
(422,255,o),
(380,250,q),
(380,220,l),
(380,141,o),
(402.5,99.5,q),
(425,58,o),
(489,58,q),
(553,58,o),
(609,114,q),
(620,104,l),
(552,16,o),
(472,-12,q),
(303,-12,o),
(303,188,q),
(303,194,o),
(303,200,q),
(304,250,l),
(276,255,o),
(242,255,q),
(208,255,o),
(187,250,q),
(178,218,l),
(148,110,o),
(148,69.5,q),
(148,29,o),
(178,12,q),
(174,-5,l),
(151,0,o),
(88,0,q),
(25,0,o),
(-12,-8,q),
(-16,18,l),
(8,27,o),
(50,34,q),
(208,490,l),
(161,498,o),
(134,506,q),
(137,532,l)
);
},
{
closed = 1;
nodes = (
(221,291,o),
(253,291,q),
(285,291,o),
(305,297,q),
(307,337,o),
(310.5,384,q),
(314,431,o),
(314,450,q),
(314,469,o),
(312,482,q),
(300,485,o),
(286,485,q),
(272,485,o),
(259,482,q),
(202,296,l)
);
}
);
width = 633;
}
);
unicode = 230;
},
{
category = Letter;
glyphname = ccedilla;
layers = (
{
layerId = "36f52ca2-ef18-4734-b79f-232be43107ca";
name = Fore;
shapes = (
{
closed = 1;
nodes = (
(227,58,o),
(198,74,q),
(131,114,o),
(131,271,q),
(131,372,o),
(170,443,q),
(204,471,o),
(256,471,q),
(308,471,o),
(346,452,q),
(346,416,o),
(354,382,q),
(379,382,l),
(385,444,o),
(404,489,q),
(421,496,o),
(440,496,q),
(441,518,l),
(349,533,o),
(276,533,q),
(175,504,o),
(110,412,q),
(45,320,o),
(45,215.5,q),
(45,111,o),
(100,49.5,q),
(155,-12,o),
(252,-12,q),
(346,20,o),
(413,105,q),
(399,119,l),
(338,58,o),
(269,58,q)
);
},
{
closed = 1;
nodes = (
(252,-178,o),
(260,-173,q),
(269,-160,o),
(269,-142,q),
(269,-97,o),
(186,-97,q),
(180,-93,l),
(218,14,l),
(247,16,l),
(223,-46,l),
(227,-49,l),
(273,-49,o),
(301.5,-70,q),
(330,-91,o),
(330,-133,q),
(316,-160,o),
(289.5,-182.5,q),
(263,-205,o),
(234,-215,q),
(190,-215,o),
(146,-194,q),
(156,-175,o),
(162,-155,q),
(166,-153,l),
(198,-178,o),
(234,-178,q)
);
}
);
width = 387;
}
);
unicode = 231;
},
{
category = Letter;
glyphname = egrave;
layers = (
{
layerId = "36f52ca2-ef18-4734-b79f-232be43107ca";
name = Fore;
shapes = (
{
closed = 1;
nodes = (
(194,58,o),
(266,58,q),
(338,58,o),
(399,119,q),
(413,105,l),
(346,20,o),
(252,-12,q),
(155,-12,o),
(100,49.5,q),
(45,111,o),
(45,215.5,q),
(45,320,o),
(110,412,q),
(175,504,o),
(276,533,q),
(349,533,o),
(441,518,q),
(440,496,l),
(421,496,o),
(404,489,q),
(385,444,o),
(379,382,q),
(354,382,l),
(346,416,o),
(346,452,q),
(308,471,o),
(256,471,q),
(204,471,o),
(170,443,q),
(136,381,o),
(131,295,q),
(173,288,o),
(221,288,q),
(304,288,o),
(321,323,q),
(342,320,l),
(333,290,o),
(333,261,q),
(333,232,o),
(340,190,q),
(316,186,l),
(305,216,o),
(300,248,q),
(260,252,o),
(220.5,252,q),
(181,252,o),
(131,247,q),
(134,158,o),
(164,108,q)
);
},
{
closed = 1;
nodes = (
(154,728,o),
(165.5,728,q),
(177,728,o),
(187,727,q),
(211,685,o),
(246.5,643,q),
(282,601,o),
(319,576,q),
(308,558,l),
(119,667,l),
(120,677,o),
(128.5,697.5,q),
(137,718,o),
(144,726,q)
);
}
);
width = 448;
}
);
unicode = 232;
},
{
category = Letter;
glyphname = eacute;
layers = (
{
layerId = "36f52ca2-ef18-4734-b79f-232be43107ca";
name = Fore;
shapes = (
{
closed = 1;
nodes = (
(357,728,o),
(368.5,728,q),
(380,728,o),
(390,726,q),
(397,718,o),
(405.5,697.5,q),
(414,677,o),
(415,667,q),
(226,558,l),
(215,576,l),
(252,601,o),
(287.5,643,q),
(323,685,o),
(347,727,q)
);
},
{
closed = 1;
nodes = (
(194,58,o),
(266,58,q),
(338,58,o),
(399,119,q),
(413,105,l),
(346,20,o),
(252,-12,q),
(155,-12,o),
(100,49.5,q),
(45,111,o),
(45,215.5,q),
(45,320,o),
(110,412,q),
(175,504,o),
(276,533,q),
(349,533,o),
(441,518,q),
(440,496,l),
(421,496,o),
(404,489,q),
(385,444,o),
(379,382,q),
(354,382,l),
(346,416,o),
(346,452,q),
(308,471,o),
(256,471,q),
(204,471,o),
(170,443,q),
(136,381,o),
(131,295,q),
(173,288,o),
(221,288,q),
(304,288,o),
(321,323,q),
(342,320,l),
(333,290,o),
(333,261,q),
(333,232,o),
(340,190,q),
(316,186,l),
(305,216,o),
(300,248,q),
(260,252,o),
(220.5,252,q),
(181,252,o),
(131,247,q),
(134,158,o),
(164,108,q)
);
}
);
width = 448;
}
);
unicode = 233;
},
{
category = Letter;
glyphname = ecircumflex;
layers = (
{
layerId = "36f52ca2-ef18-4734-b79f-232be43107ca";
name = Fore;
shapes = (
{
closed = 1;
nodes = (
(194,58,o),
(266,58,q),
(338,58,o),
(399,119,q),
(413,105,l),
(346,20,o),
(252,-12,q),
(155,-12,o),
(100,49.5,q),
(45,111,o),
(45,215.5,q),
(45,320,o),
(110,412,q),
(175,504,o),
(276,533,q),
(349,533,o),
(441,518,q),
(440,496,l),
(421,496,o),
(404,489,q),
(385,444,o),
(379,382,q),
(354,382,l),
(346,416,o),
(346,452,q),
(308,471,o),
(256,471,q),
(204,471,o),
(170,443,q),
(136,381,o),
(131,295,q),
(173,288,o),
(221,288,q),
(304,288,o),
(321,323,q),
(342,320,l),
(333,290,o),
(333,261,q),
(333,232,o),
(340,190,q),
(316,186,l),
(305,216,o),
(300,248,q),
(260,252,o),
(220.5,252,q),
(181,252,o),
(131,247,q),
(134,158,o),
(164,108,q)
);
},
{
closed = 1;
nodes = (
(134,554,l),
(121,571,l),
(205,642,o),
(258,739,q),
(278,739,l),
(331,642,o),
(415,571,q),
(402,554,l),
(268,644,l)
);
}
);
width = 448;
}
);
unicode = 234;
},
{
category = Letter;
glyphname = edieresis;
layers = (
{
layerId = "36f52ca2-ef18-4734-b79f-232be43107ca";
name = Fore;
shapes = (
{
closed = 1;
nodes = (
(194,58,o),
(266,58,q),
(338,58,o),
(399,119,q),
(413,105,l),
(346,20,o),
(252,-12,q),
(155,-12,o),
(100,49.5,q),
(45,111,o),
(45,215.5,q),
(45,320,o),
(110,412,q),
(175,504,o),
(276,533,q),
(349,533,o),
(441,518,q),
(440,496,l),
(421,496,o),
(404,489,q),
(385,444,o),
(379,382,q),
(354,382,l),
(346,416,o),
(346,452,q),
(308,471,o),
(256,471,q),
(204,471,o),
(170,443,q),
(136,381,o),
(131,295,q),
(173,288,o),
(221,288,q),
(304,288,o),
(321,323,q),
(342,320,l),
(333,290,o),
(333,261,q),
(333,232,o),
(340,190,q),
(316,186,l),
(305,216,o),
(300,248,q),
(260,252,o),
(220.5,252,q),
(181,252,o),
(131,247,q),
(134,158,o),
(164,108,q)
);
},
{
closed = 1;
nodes = (
(223,648,o),
(205.5,628,q),
(188,608,o),
(176,600,q),
(164,608,o),
(146.5,628,q),
(129,648,o),
(122,661,q),
(128,673,o),
(145,688.5,q),
(162,704,o),
(176,711,q),
(189,703,o),
(206,687.5,q),
(223,672,o),
(230,661,q)
);
},
{
closed = 1;
nodes = (
(408,648,o),
(390.5,628,q),
(373,608,o),
(361,600,q),
(349,608,o),
(331.5,628,q),
(314,648,o),
(307,661,q),
(313,673,o),
(330,688.5,q),
(347,704,o),
(361,711,q),
(374,703,o),
(391,687.5,q),
(408,672,o),
(415,661,q)
);
}
);
width = 448;
}
);
unicode = 235;
},
{
category = Letter;
glyphname = igrave;
layers = (
{
layerId = "36f52ca2-ef18-4734-b79f-232be43107ca";
name = Fore;
shapes = (
{
closed = 1;
nodes = (
(192,434,o),
(192,267,q),
(192,100,o),
(201,33,q),
(246,28,o),
(284,18,q),
(281,-7,l),
(229,0,o),
(164.5,0,q),
(100,0,o),
(49,-8,q),
(45,18,l),
(73,27,o),
(108,33,q),
(117,105,o),
(117,237,q),
(117,284,l),
(117,416,o),
(107,488,q),
(72,494,o),
(44,503,q),
(48,529,l),
(99,521,o),
(163.5,521,q),
(228,521,o),
(280,528,q),
(283,503,l),
(245,493,o),
(200,488,q)
);
},
{
closed = 1;
nodes = (
(65,728,o),
(76.5,728,q),
(88,728,o),
(98,727,q),
(122,685,o),
(157.5,643,q),
(193,601,o),
(230,576,q),
(219,558,l),
(30,667,l),
(31,677,o),
(39.5,697.5,q),
(48,718,o),
(55,726,q)
);
}
);
width = 309;
}
);
unicode = 236;
},
{
category = Letter;
glyphname = iacute;
layers = (
{
layerId = "36f52ca2-ef18-4734-b79f-232be43107ca";
name = Fore;
shapes = (
{
closed = 1;
nodes = (
(232,728,o),
(243.5,728,q),
(255,728,o),
(265,726,q),
(272,718,o),
(280.5,697.5,q),
(289,677,o),
(290,667,q),
(101,558,l),
(90,576,l),
(127,601,o),
(162.5,643,q),
(198,685,o),
(222,727,q)
);
},
{
closed = 1;
nodes = (
(192,434,o),
(192,267,q),
(192,100,o),
(201,33,q),
(246,28,o),
(284,18,q),
(281,-7,l),
(229,0,o),
(164.5,0,q),
(100,0,o),
(49,-8,q),
(45,18,l),
(73,27,o),
(108,33,q),
(117,105,o),
(117,237,q),
(117,284,l),
(117,416,o),
(107,488,q),
(72,494,o),
(44,503,q),
(48,529,l),
(99,521,o),
(163.5,521,q),
(228,521,o),
(280,528,q),
(283,503,l),
(245,493,o),
(200,488,q)
);
}
);
width = 309;
}
);
unicode = 237;
},
{
category = Letter;
glyphname = icircumflex;
layers = (
{
layerId = "36f52ca2-ef18-4734-b79f-232be43107ca";
name = Fore;
shapes = (
{
closed = 1;
nodes = (
(192,434,o),
(192,267,q),
(192,100,o),
(201,33,q),
(246,28,o),
(284,18,q),
(281,-7,l),
(229,0,o),
(164.5,0,q),
(100,0,o),
(49,-8,q),
(45,18,l),
(73,27,o),
(108,33,q),
(117,105,o),
(117,237,q),
(117,284,l),
(117,416,o),
(107,488,q),
(72,494,o),
(44,503,q),
(48,529,l),
(99,521,o),
(163.5,521,q),
(228,521,o),
(280,528,q),
(283,503,l),
(245,493,o),
(200,488,q)
);
},
{
closed = 1;
nodes = (
(27,554,l),
(14,571,l),
(98,642,o),
(151,739,q),
(171,739,l),
(224,642,o),
(308,571,q),
(295,554,l),
(161,644,l)
);
}
);
width = 309;
}
);
unicode = 238;
},
{
category = Letter;
glyphname = idieresis;
layers = (
{
layerId = "36f52ca2-ef18-4734-b79f-232be43107ca";
name = Fore;
shapes = (
{
closed = 1;
nodes = (
(123,648,o),
(105.5,628,q),
(88,608,o),
(76,600,q),
(64,608,o),
(46.5,628,q),
(29,648,o),
(22,661,q),
(28,673,o),
(45,688.5,q),
(62,704,o),
(76,711,q),
(89,703,o),
(106,687.5,q),
(123,672,o),
(130,661,q)
);
},
{
closed = 1;
nodes = (
(294,648,o),
(276.5,628,q),
(259,608,o),
(247,600,q),
(235,608,o),
(217.5,628,q),
(200,648,o),
(193,661,q),
(199,673,o),
(216,688.5,q),
(233,704,o),
(247,711,q),
(260,703,o),
(277,687.5,q),
(294,672,o),
(301,661,q)
);
},
{
closed = 1;
nodes = (
(192,434,o),
(192,267,q),
(192,100,o),
(201,33,q),
(246,28,o),
(284,18,q),
(281,-7,l),
(229,0,o),
(164.5,0,q),
(100,0,o),
(49,-8,q),
(45,18,l),
(73,27,o),
(108,33,q),
(117,105,o),
(117,237,q),
(117,284,l),
(117,416,o),
(107,488,q),
(72,494,o),
(44,503,q),
(48,529,l),
(99,521,o),
(163.5,521,q),
(228,521,o),
(280,528,q),
(283,503,l),
(245,493,o),
(200,488,q)
);
}
);
width = 309;
}
);
unicode = 239;
},
{
category = Letter;
glyphname = eth;
layers = (
{
layerId = "36f52ca2-ef18-4734-b79f-232be43107ca";
name = Fore;
shapes = (
{
closed = 1;
nodes = (
(266,526,l),
(380,526,o),
(441.5,472,q),
(503,418,o),
(503,310.5,q),
(503,203,o),
(435.5,110,q),
(368,17,o),
(268,-12,q),
(242,-12,o),
(200.5,-2.5,q),
(159,7,o),
(132,18,q),
(121,5,o),
(112,-19,q),
(91,-14,l),
(110,79,o),
(110,254,q),
(79,253,o),
(32,246,q),
(29,250,l),
(35,270,o),
(36,282,q),
(110,285,l),
(109,418,o),
(101,481,q),
(67,494,o),
(36,494,q),
(36,519,l)
);
},
{
closed = 1;
nodes = (
(297,491,o),
(258.5,491,q),
(220,491,o),
(192,480,q),
(185,419,o),
(185,289,q),
(207,290,l),
(271,293,o),
(291,295,q),
(295,275,o),
(300,264,q),
(300,259,l),
(185,258,l),
(185,129,o),
(189,75,q),
(239,52,o),
(291.5,52,q),
(344,52,o),
(375,79,q),
(413,151,o),
(413,256,q),
(413,354,o),
(380,419,q),
(362,453,o),
(329.5,472,q)
);
}
);
width = 539;
}
);
unicode = 240;
},
{
category = Letter;
glyphname = ntilde;
layers = (
{
layerId = "36f52ca2-ef18-4734-b79f-232be43107ca";
name = Fore;
shapes = (
{
closed = 1;
nodes = (
(335,665,o),
(387.5,665,q),
(440,665,o),
(460,689,q),
(478,678,l),
(422,617,o),
(374,596,q),
(353,596,o),
(301.5,611.5,q),
(250,627,o),
(229,627,q),
(186,627,o),
(166,603,q),
(148,614,l),
(204,675,o),
(276,696,q)
);
},
{
closed = 1;
nodes = (
(232,0,o),
(167.5,0,q),
(103,0,o),
(52,-8,q),
(48,18,l),
(80,28,o),
(108,33,q),
(117,111,o),
(117,237,q),
(117,284,l),
(117,418,o),
(107,490,q),
(80,493,o),
(42,506,q),
(45,532,l),
(102,521,o),
(164.5,521,q),
(227,521,o),
(254,528,q),
(256,511,l),
(229,504,o),
(229,488,q),
(229,476,o),
(252.5,437.5,q),
(276,399,o),
(298,363,q),
(364,258,o),
(454,105,q),
(457,107,l),
(457,229,l),
(457,363,o),
(443,430.5,q),
(429,498,o),
(395,509,q),
(397,526,l),
(423,521,o),
(475,521,q),
(527,521,o),
(582,532,q),
(585,506,l),
(544,493,o),
(516,490,q),
(506,410,o),
(506,284,q),
(506,237,l),
(506,85,o),
(516,31,q),
(558,24,o),
(583,15,q),
(580,-11,l),
(530,0,o),
(486,0,q),
(442,0,o),
(418,-4,q),
(418,18,o),
(387.5,70,q),
(357,122,o),
(332,162,q),
(251,293,o),
(173,428,q),
(169,426,l),
(169,292,l),
(169,93,o),
(199,33,q),
(244,28,o),
(287,18,q),
(284,-7,l)
);
}
);
width = 623;
}
);
unicode = 241;
},
{
category = Letter;
glyphname = ograve;
layers = (
{
layerId = "36f52ca2-ef18-4734-b79f-232be43107ca";
name = Fore;
shapes = (
{
closed = 1;
nodes = (
(42,113,o),
(42,218,q),
(42,323,o),
(106,415,q),
(170,507,o),
(273,533,q),
(376,533,o),
(430,474.5,q),
(484,416,o),
(484,308,q),
(484,200,o),
(425.5,113,q),
(367,26,o),
(263,-12,q),
(164,-12,o),
(103,50.5,q)
);
},
{
closed = 1;
nodes = (
(201,472,o),
(168,447,q),
(127,377,o),
(127,271,q),
(127,149,o),
(195,84,q),
(231,49,o),
(280,49,q),
(329,49,o),
(359,75,q),
(399,145,o),
(399,246,q),
(399,347,o),
(363,409.5,q),
(327,472,o),
(246,472,q)
);
},
{
closed = 1;
nodes = (
(148,728,o),
(159.5,728,q),
(171,728,o),
(181,727,q),
(205,685,o),
(240.5,643,q),
(276,601,o),
(313,576,q),
(302,558,l),
(113,667,l),
(114,677,o),
(122.5,697.5,q),
(131,718,o),
(138,726,q)
);
}
);
width = 526;
}
);
unicode = 242;
},
{
category = Letter;
glyphname = oacute;
layers = (
{
layerId = "36f52ca2-ef18-4734-b79f-232be43107ca";
name = Fore;
shapes = (
{
closed = 1;
nodes = (
(42,113,o),
(42,218,q),
(42,323,o),
(106,415,q),
(170,507,o),
(273,533,q),
(376,533,o),
(430,474.5,q),
(484,416,o),
(484,308,q),
(484,200,o),
(425.5,113,q),
(367,26,o),
(263,-12,q),
(164,-12,o),
(103,50.5,q)
);
},
{
closed = 1;
nodes = (
(201,472,o),
(168,447,q),
(127,377,o),
(127,271,q),
(127,149,o),
(195,84,q),
(231,49,o),
(280,49,q),
(329,49,o),
(359,75,q),
(399,145,o),
(399,246,q),
(399,347,o),
(363,409.5,q),
(327,472,o),
(246,472,q)
);
},
{
closed = 1;
nodes = (
(361,728,o),
(372.5,728,q),
(384,728,o),
(394,726,q),
(401,718,o),
(409.5,697.5,q),
(418,677,o),
(419,667,q),
(230,558,l),
(219,576,l),
(256,601,o),
(291.5,643,q),
(327,685,o),
(351,727,q)
);
}
);
width = 526;
}
);
unicode = 243;
},
{
category = Letter;
glyphname = ocircumflex;
layers = (
{
layerId = "36f52ca2-ef18-4734-b79f-232be43107ca";
name = Fore;
shapes = (
{
closed = 1;
nodes = (
(42,113,o),
(42,218,q),
(42,323,o),
(106,415,q),
(170,507,o),
(273,533,q),
(376,533,o),
(430,474.5,q),
(484,416,o),
(484,308,q),
(484,200,o),
(425.5,113,q),
(367,26,o),
(263,-12,q),
(164,-12,o),
(103,50.5,q)
);
},
{
closed = 1;
nodes = (
(201,472,o),
(168,447,q),
(127,377,o),
(127,271,q),
(127,149,o),
(195,84,q),
(231,49,o),
(280,49,q),
(329,49,o),
(359,75,q),
(399,145,o),
(399,246,q),
(399,347,o),
(363,409.5,q),
(327,472,o),
(246,472,q)
);
},
{
closed = 1;
nodes = (
(132,554,l),
(119,571,l),
(203,642,o),
(256,739,q),
(276,739,l),
(329,642,o),
(413,571,q),
(400,554,l),
(266,644,l)
);
}
);
width = 526;
}
);
unicode = 244;
},
{
category = Letter;
glyphname = otilde;
layers = (
{
layerId = "36f52ca2-ef18-4734-b79f-232be43107ca";
name = Fore;
shapes = (
{
closed = 1;
nodes = (
(42,113,o),
(42,218,q),
(42,323,o),
(106,415,q),
(170,507,o),
(273,533,q),
(376,533,o),
(430,474.5,q),
(484,416,o),
(484,308,q),
(484,200,o),
(425.5,113,q),
(367,26,o),
(263,-12,q),
(164,-12,o),
(103,50.5,q)
);
},
{
closed = 1;
nodes = (
(201,472,o),
(168,447,q),
(127,377,o),
(127,271,q),
(127,149,o),
(195,84,q),
(231,49,o),
(280,49,q),
(329,49,o),
(359,75,q),
(399,145,o),
(399,246,q),
(399,347,o),
(363,409.5,q),
(327,472,o),
(246,472,q)
);
},
{
closed = 1;
nodes = (
(295,665,o),
(347.5,665,q),
(400,665,o),
(420,689,q),
(438,678,l),
(382,617,o),
(334,596,q),
(313,596,o),
(261.5,611.5,q),
(210,627,o),
(189,627,q),
(146,627,o),
(126,603,q),
(108,614,l),
(164,675,o),
(236,696,q)
);
}
);
width = 526;
}
);
unicode = 245;
},
{
category = Letter;
glyphname = odieresis;
layers = (
{
layerId = "36f52ca2-ef18-4734-b79f-232be43107ca";
name = Fore;
shapes = (
{
closed = 1;
nodes = (
(42,113,o),
(42,218,q),
(42,323,o),
(106,415,q),
(170,507,o),
(273,533,q),
(376,533,o),
(430,474.5,q),
(484,416,o),
(484,308,q),
(484,200,o),
(425.5,113,q),
(367,26,o),
(263,-12,q),
(164,-12,o),
(103,50.5,q)
);
},
{
closed = 1;
nodes = (
(201,472,o),
(168,447,q),
(127,377,o),
(127,271,q),
(127,149,o),
(195,84,q),
(231,49,o),
(280,49,q),
(329,49,o),
(359,75,q),
(399,145,o),
(399,246,q),
(399,347,o),
(363,409.5,q),
(327,472,o),
(246,472,q)
);
},
{
closed = 1;
nodes = (
(221,648,o),
(203.5,628,q),
(186,608,o),
(174,600,q),
(162,608,o),
(144.5,628,q),
(127,648,o),
(120,661,q),
(126,673,o),
(143,688.5,q),
(160,704,o),
(174,711,q),
(187,703,o),
(204,687.5,q),
(221,672,o),
(228,661,q)
);
},
{
closed = 1;
nodes = (
(406,648,o),
(388.5,628,q),
(371,608,o),
(359,600,q),
(347,608,o),
(329.5,628,q),
(312,648,o),
(305,661,q),
(311,673,o),
(328,688.5,q),
(345,704,o),
(359,711,q),
(372,703,o),
(389,687.5,q),
(406,672,o),
(413,661,q)
);
}
);
width = 526;
}
);
unicode = 246;
},
{
category = Letter;
glyphname = divide;
layers = (
{
layerId = "36f52ca2-ef18-4734-b79f-232be43107ca";
name = Fore;
shapes = (
{
closed = 1;
nodes = (
(318,368,o),
(304,353.5,q),
(290,339,o),
(274,339,q),
(258,339,o),
(243.5,353.5,q),
(229,368,o),
(229,385,q),
(229,402,o),
(243.5,416,q),
(258,430,o),
(274,430,q),
(290,430,o),
(304,416,q),
(318,402,o),
(318,385,q)
);
},
{
closed = 1;
nodes = (
(318,95,o),
(304,80.5,q),
(290,66,o),
(274,66,q),
(258,66,o),
(243.5,80.5,q),
(229,95,o),
(229,111.5,q),
(229,128,o),
(243.5,142.5,q),
(258,157,o),
(274,157,q),
(290,157,o),
(304,143,q),
(318,129,o),
(318,112,q)
);
},
{
closed = 1;
nodes = (
(232,271,o),
(341.5,271,q),
(451,271,o),
(490,274,q),
(496,268,l),
(487,222,l),
(61,222,l),
(53,229,l),
(62,280,l)
);
}
);
width = 550;
}
);
unicode = 247;
},
{
category = Letter;
glyphname = oslash;
layers = (
{
layerId = "36f52ca2-ef18-4734-b79f-232be43107ca";
name = Fore;
shapes = (
{
closed = 1;
nodes = (
(129,-87,l),
(113,-78,o),
(103,-63,q),
(151,44,o),
(189,143,q),
(284,393,l),
(324,497,o),
(362,614,q),
(385,616,o),
(400,621,q),
(404,618,l),
(391,588,o),
(321,406,q),
(134,-87,l)
);
},
{
closed = 1;
nodes = (
(42,113,o),
(42,218,q),
(42,323,o),
(106,415,q),
(170,507,o),
(273,533,q),
(376,533,o),
(430,474.5,q),
(484,416,o),
(484,308,q),
(484,200,o),
(425.5,113,q),
(367,26,o),
(263,-12,q),
(164,-12,o),
(103,50.5,q)
);
},
{
closed = 1;
nodes = (
(201,472,o),
(168,447,q),
(127,377,o),
(127,271,q),
(127,149,o),
(195,84,q),
(231,49,o),
(280,49,q),
(329,49,o),
(359,75,q),
(399,145,o),
(399,246,q),
(399,347,o),
(363,409.5,q),
(327,472,o),
(246,472,q)
);
}
);
width = 526;
}
);
unicode = 248;
},
{
category = Letter;
glyphname = ugrave;
layers = (
{
layerId = "36f52ca2-ef18-4734-b79f-232be43107ca";
name = Fore;
shapes = (
{
closed = 1;
nodes = (
(461,237,l),
(461,100,o),
(471,32,q),
(517,26,o),
(547,18,q),
(544,-7,l),
(495,0,o),
(443.5,0,q),
(392,0,o),
(373,-3,q),
(369,10,l),
(378,20,o),
(381,67,q),
(329,13,o),
(261,-12,q),
(89,-12,o),
(89,193,q),
(89,238,o),
(96,337,q),
(103,436,o),
(103,453,q),
(103,470,o),
(97,486,q),
(97,487,l),
(55,494,o),
(30,502,q),
(34,529,l),
(92,521,o),
(139,521,q),
(186,521,o),
(216,526,q),
(220,509,l),
(184,490,o),
(178,440,q),
(166,344,o),
(166,243,q),
(166,142,o),
(189.5,99.5,q),
(213,57,o),
(277.5,57,q),
(342,57,o),
(382,94,q),
(386,174,o),
(386,283,q),
(386,392,o),
(378,488,q),
(333,493,o),
(295,503,q),
(298,528,l),
(350,521,o),
(414.5,521,q),
(479,521,o),
(530,529,q),
(534,503,l),
(506,494,o),
(471,488,q),
(461,421,o),
(461,284,q)
);
},
{
closed = 1;
nodes = (
(167,728,o),
(178.5,728,q),
(190,728,o),
(200,727,q),
(224,685,o),
(259.5,643,q),
(295,601,o),
(332,576,q),
(321,558,l),
(132,667,l),
(133,677,o),
(141.5,697.5,q),
(150,718,o),
(157,726,q)
);
}
);
width = 578;
}
);
unicode = 249;
},
{
category = Letter;
glyphname = uacute;
layers = (
{
layerId = "36f52ca2-ef18-4734-b79f-232be43107ca";
name = Fore;
shapes = (
{
closed = 1;
nodes = (
(405,728,o),
(416.5,728,q),
(428,728,o),
(438,726,q),
(445,718,o),
(453.5,697.5,q),
(462,677,o),
(463,667,q),
(274,558,l),
(263,576,l),
(300,601,o),
(335.5,643,q),
(371,685,o),
(395,727,q)
);
},
{
closed = 1;
nodes = (
(465,237,l),
(465,100,o),
(475,32,q),
(521,26,o),
(551,18,q),
(548,-7,l),
(499,0,o),
(447.5,0,q),
(396,0,o),
(377,-3,q),
(373,10,l),
(382,20,o),
(385,67,q),
(333,13,o),
(265,-12,q),
(93,-12,o),
(93,193,q),
(93,238,o),
(100,337,q),
(107,436,o),
(107,453,q),
(107,470,o),
(101,486,q),
(101,487,l),
(59,494,o),
(34,502,q),
(38,529,l),
(96,521,o),
(143,521,q),
(190,521,o),
(220,526,q),
(224,509,l),
(188,490,o),
(182,440,q),
(170,344,o),
(170,243,q),
(170,142,o),
(193.5,99.5,q),
(217,57,o),
(281.5,57,q),
(346,57,o),
(386,94,q),
(390,174,o),
(390,283,q),
(390,392,o),
(382,488,q),
(337,493,o),
(299,503,q),
(302,528,l),
(354,521,o),
(418.5,521,q),
(483,521,o),
(534,529,q),
(538,503,l),
(510,494,o),
(475,488,q),
(465,421,o),
(465,284,q)
);
}
);
width = 582;
}
);
unicode = 250;
},
{
category = Letter;
glyphname = ucircumflex;
layers = (
{
layerId = "36f52ca2-ef18-4734-b79f-232be43107ca";
name = Fore;
shapes = (
{
closed = 1;
nodes = (
(461,237,l),
(461,100,o),
(471,32,q),
(517,26,o),
(547,18,q),
(544,-7,l),
(495,0,o),
(443.5,0,q),
(392,0,o),
(373,-3,q),
(369,10,l),
(378,20,o),
(381,67,q),
(329,13,o),
(261,-12,q),
(89,-12,o),
(89,193,q),
(89,238,o),
(96,337,q),
(103,436,o),
(103,453,q),
(103,470,o),
(97,486,q),
(97,487,l),
(55,494,o),
(30,502,q),
(34,529,l),
(92,521,o),
(139,521,q),
(186,521,o),
(216,526,q),
(220,509,l),
(184,490,o),
(178,440,q),
(166,344,o),
(166,243,q),
(166,142,o),
(189.5,99.5,q),
(213,57,o),
(277.5,57,q),
(342,57,o),
(382,94,q),
(386,174,o),
(386,283,q),
(386,392,o),
(378,488,q),
(333,493,o),
(295,503,q),
(298,528,l),
(350,521,o),
(414.5,521,q),
(479,521,o),
(530,529,q),
(534,503,l),
(506,494,o),
(471,488,q),
(461,421,o),
(461,284,q)
);
},
{
closed = 1;
nodes = (
(150,554,l),
(137,571,l),
(221,642,o),
(274,739,q),
(294,739,l),
(347,642,o),
(431,571,q),
(418,554,l),
(284,644,l)
);
}
);
width = 578;
}
);
unicode = 251;
},
{
category = Letter;
glyphname = udieresis;
layers = (
{
layerId = "36f52ca2-ef18-4734-b79f-232be43107ca";
name = Fore;
shapes = (
{
closed = 1;
nodes = (
(461,237,l),
(461,100,o),
(471,32,q),
(517,26,o),
(547,18,q),
(544,-7,l),
(495,0,o),
(443.5,0,q),
(392,0,o),
(373,-3,q),
(369,10,l),
(378,20,o),
(381,67,q),
(329,13,o),
(261,-12,q),
(89,-12,o),
(89,193,q),
(89,238,o),
(96,337,q),
(103,436,o),
(103,453,q),
(103,470,o),
(97,486,q),
(97,487,l),
(55,494,o),
(30,502,q),
(34,529,l),
(92,521,o),
(139,521,q),
(186,521,o),
(216,526,q),
(220,509,l),
(184,490,o),
(178,440,q),
(166,344,o),
(166,243,q),
(166,142,o),
(189.5,99.5,q),
(213,57,o),
(277.5,57,q),
(342,57,o),
(382,94,q),
(386,174,o),
(386,283,q),
(386,392,o),
(378,488,q),
(333,493,o),
(295,503,q),
(298,528,l),
(350,521,o),
(414.5,521,q),
(479,521,o),
(530,529,q),
(534,503,l),
(506,494,o),
(471,488,q),
(461,421,o),
(461,284,q)
);
},
{
closed = 1;
nodes = (
(239,648,o),
(221.5,628,q),
(204,608,o),
(192,600,q),
(180,608,o),
(162.5,628,q),
(145,648,o),
(138,661,q),
(144,673,o),
(161,688.5,q),
(178,704,o),
(192,711,q),
(205,703,o),
(222,687.5,q),
(239,672,o),
(246,661,q)
);
},
{
closed = 1;
nodes = (
(424,648,o),
(406.5,628,q),
(389,608,o),
(377,600,q),
(365,608,o),
(347.5,628,q),
(330,648,o),
(323,661,q),
(329,673,o),
(346,688.5,q),
(363,704,o),
(377,711,q),
(390,703,o),
(407,687.5,q),
(424,672,o),
(431,661,q)
);
}
);
width = 578;
}
);
unicode = 252;
},
{
category = Letter;
glyphname = yacute;
layers = (
{
layerId = "36f52ca2-ef18-4734-b79f-232be43107ca";
name = Fore;
shapes = (
{
closed = 1;
nodes = (
(348,503,o),
(321,509,q),
(325,526,l),
(355,521,o),
(403.5,521,q),
(452,521,o),
(510,529,q),
(514,503,l),
(488,494,o),
(448,488,q),
(282,238,l),
(282,108,o),
(292,33,q),
(336,28,o),
(374,18,q),
(371,-7,l),
(319,0,o),
(251.5,0,q),
(184,0,o),
(133,-8,q),
(129,18,l),
(148,24,o),
(197,33,q),
(206,87,o),
(206,196,q),
(206,217,l),
(90,451,o),
(59,489,q),
(31,492,o),
(-3,503,q),
(1,529,l),
(41,521,o),
(116,521,q),
(191,521,o),
(239,529,q),
(243,504,l),
(197,493,o),
(164,489,q),
(198,385,o),
(259,270,q),
(348,443,o),
(348,487,q)
);
},
{
closed = 1;
nodes = (
(399,728,o),
(410.5,728,q),
(422,728,o),
(432,726,q),
(439,718,o),
(447.5,697.5,q),
(456,677,o),
(457,667,q),
(268,558,l),
(257,576,l),
(294,601,o),
(329.5,643,q),
(365,685,o),
(389,727,q)
);
}
);
width = 542;
}
);
unicode = 253;
},
{
category = Letter;
glyphname = thorn;
layers = (
{
layerId = "36f52ca2-ef18-4734-b79f-232be43107ca";
name = Fore;
shapes = (
{
closed = 1;
nodes = (
(192,348,o),
(192,224,q),
(192,100,o),
(201,33,q),
(246,28,o),
(284,18,q),
(281,-7,l),
(229,0,o),
(164.5,0,q),
(100,0,o),
(49,-8,q),
(45,18,l),
(73,27,o),
(108,33,q),
(117,105,o),
(117,237,q),
(117,284,l),
(117,416,o),
(107,488,q),
(72,494,o),
(44,503,q),
(48,529,l),
(99,521,o),
(163.5,521,q),
(228,521,o),
(280,528,q),
(283,503,l),
(245,493,o),
(200,488,q),
(197,469,o),
(195,424,q),
(253,426,o),
(270,426,q),
(451,426,o),
(451,295,q),
(451,222,o),
(386.5,177,q),
(322,132,o),
(240,132,q),
(228,132,o),
(223,133,q),
(227,166,l),
(236,166,l),
(298,166,o),
(328.5,193,q),
(359,220,o),
(359,278,q),
(359,336,o),
(334.5,363.5,q),
(310,391,o),
(256,391,q),
(222,391,o),
(193,380,q)
);
}
);
width = 455;
}
);
unicode = 254;
},
{
category = Letter;
glyphname = ydieresis;
layers = (
{
layerId = "36f52ca2-ef18-4734-b79f-232be43107ca";
name = Fore;
shapes = (
{
closed = 1;
nodes = (
(348,503,o),
(321,509,q),
(325,526,l),
(355,521,o),
(403.5,521,q),
(452,521,o),
(510,529,q),
(514,503,l),
(488,494,o),
(448,488,q),
(282,238,l),
(282,108,o),
(292,33,q),
(336,28,o),
(374,18,q),
(371,-7,l),
(319,0,o),
(251.5,0,q),
(184,0,o),
(133,-8,q),
(129,18,l),
(148,24,o),
(197,33,q),
(206,87,o),
(206,196,q),
(206,217,l),
(90,451,o),
(59,489,q),
(31,492,o),
(-3,503,q),
(1,529,l),
(41,521,o),
(116,521,q),
(191,521,o),
(239,529,q),
(243,504,l),
(197,493,o),
(164,489,q),
(198,385,o),
(259,270,q),
(348,443,o),
(348,487,q)
);
},
{
closed = 1;
nodes = (
(214,648,o),
(196.5,628,q),
(179,608,o),
(167,600,q),
(155,608,o),
(137.5,628,q),
(120,648,o),
(113,661,q),
(119,673,o),
(136,688.5,q),
(153,704,o),
(167,711,q),
(180,703,o),
(197,687.5,q),
(214,672,o),
(221,661,q)
);
},
{
closed = 1;
nodes = (
(399,648,o),
(381.5,628,q),
(364,608,o),
(352,600,q),
(340,608,o),
(322.5,628,q),
(305,648,o),
(298,661,q),
(304,673,o),
(321,688.5,q),
(338,704,o),
(352,711,q),
(365,703,o),
(382,687.5,q),
(399,672,o),
(406,661,q)
);
}
);
width = 542;
}
);
unicode = 255;
},
{
category = Letter;
glyphname = hbar;
layers = (
{
layerId = "36f52ca2-ef18-4734-b79f-232be43107ca";
name = Fore;
shapes = (
{
closed = 1;
nodes = (
(140,379,l),
(68,377,o),
(22,370,q),
(19,374,l),
(25,394,o),
(26,406,q),
(506,423,l),
(576,426,o),
(594,428,q),
(598,408,o),
(603,397,q),
(603,392,l),
(481,390,l)
);
},
{
closed = 1;
nodes = (
(410,521,o),
(474.5,521,q),
(539,521,o),
(591,528,q),
(594,503,l),
(556,493,o),
(511,488,q),
(501,426,o),
(501,284,q),
(501,237,l),
(501,93,o),
(511,33,q),
(556,28,o),
(594,18,q),
(591,-7,l),
(539,0,o),
(474.5,0,q),
(410,0,o),
(359,-8,q),
(355,18,l),
(383,27,o),
(418,33,q),
(426,146,o),
(427,259,q),
(363,265,o),
(309,265,q),
(255,265,o),
(192,259,q),
(192,94,o),
(201,33,q),
(246,28,o),
(284,18,q),
(281,-7,l),
(229,0,o),
(164.5,0,q),
(100,0,o),
(49,-8,q),
(45,18,l),
(73,27,o),
(108,33,q),
(117,105,o),
(117,237,q),
(117,284,l),
(117,416,o),
(107,488,q),
(72,494,o),
(44,503,q),
(48,529,l),
(99,521,o),
(163.5,521,q),
(228,521,o),
(280,528,q),
(283,503,l),
(245,493,o),
(200,488,q),
(192,430,o),
(192,309,q),
(248,301,o),
(312.5,301,q),
(377,301,o),
(427,308,q),
(426,393,o),
(418,488,q),
(383,494,o),
(355,503,q),
(359,529,l)
);
}
);
width = 618;
}
);
unicode = 295;
},
{
category = Letter;
glyphname = Itilde;
layers = (
{
layerId = "36f52ca2-ef18-4734-b79f-232be43107ca";
name = Fore;
shapes = (
{
closed = 1;
nodes = (
(207,541,o),
(207,336,q),
(207,131,o),
(220,35,q),
(273,30,o),
(330,16,q),
(327,-8,l),
(253,0,o),
(166.5,0,q),
(80,0,o),
(27,-8,q),
(23,17,l),
(68,31,o),
(119,38,q),
(130,120,o),
(130,296,q),
(130,355,l),
(130,517,o),
(117,613,q),
(66,620,o),
(21,634,q),
(25,659,l),
(78,651,o),
(164.5,651,q),
(251,651,o),
(325,659,q),
(328,635,l),
(271,621,o),
(218,616,q)
);
},
{
closed = 1;
nodes = (
(191,813,o),
(243.5,813,q),
(296,813,o),
(316,837,q),
(334,826,l),
(278,765,o),
(230,744,q),
(209,744,o),
(157.5,759.5,q),
(106,775,o),
(85,775,q),
(42,775,o),
(22,751,q),
(4,762,l),
(60,823,o),
(132,844,q)
);
}
);
width = 337;
}
);
unicode = 296;
},
{
category = Letter;
glyphname = itilde;
layers = (
{
layerId = "36f52ca2-ef18-4734-b79f-232be43107ca";
name = Fore;
shapes = (
{
closed = 1;
nodes = (
(275,665,o),
(295,689,q),
(312,678,l),
(274,622,o),
(221,596,q),
(205,596,o),
(158,611.5,q),
(111,627,o),
(95,627,q),
(60,627,o),
(42,603,q),
(24,614,l),
(70,673,o),
(136,696,q),
(184,665,o),
(240,665,q)
);
},
{
closed = 1;
nodes = (
(192,434,o),
(192,267,q),
(192,100,o),
(201,33,q),
(246,28,o),
(284,18,q),
(281,-7,l),
(229,0,o),
(164.5,0,q),
(100,0,o),
(49,-8,q),
(45,18,l),
(73,27,o),
(108,33,q),
(117,105,o),
(117,237,q),
(117,284,l),
(117,416,o),
(107,488,q),
(72,494,o),
(44,503,q),
(48,529,l),
(99,521,o),
(163.5,521,q),
(228,521,o),
(280,528,q),
(283,503,l),
(245,493,o),
(200,488,q)
);
}
);
width = 309;
}
);
unicode = 297;
},
{
category = Letter;
glyphname = dotlessi;
layers = (
{
layerId = "36f52ca2-ef18-4734-b79f-232be43107ca";
name = Fore;
shapes = (
{
closed = 1;
nodes = (
(192,434,o),
(192,267,q),
(192,100,o),
(201,33,q),
(246,28,o),
(284,18,q),
(281,-7,l),
(229,0,o),
(164.5,0,q),
(100,0,o),
(49,-8,q),
(45,18,l),
(73,27,o),
(108,33,q),
(117,105,o),
(117,237,q),
(117,284,l),
(117,416,o),
(107,488,q),
(72,494,o),
(44,503,q),
(48,529,l),
(99,521,o),
(163.5,521,q),
(228,521,o),
(280,528,q),
(283,503,l),
(245,493,o),
(200,488,q)
);
}
);
width = 309;
}
);
unicode = 305;
},
{
category = Letter;
glyphname = IJ;
layers = (
{
layerId = "36f52ca2-ef18-4734-b79f-232be43107ca";
name = Fore;
shapes = (
{
closed = 1;
nodes = (
(423,651,o),
(509.5,651,q),
(596,651,o),
(649,659,q),
(653,634,l),
(608,620,o),
(557,613,q),
(544,517,o),
(544,355,q),
(544,296,l),
(544,111,o),
(552,33,q),
(496,-93,o),
(346,-180,q),
(329,-161,l),
(405,-97,o),
(436,-23.5,q),
(467,50,o),
(467,154,q),
(467,355,l),
(467,541,o),
(456,616,q),
(403,621,o),
(346,635,q),
(349,659,l)
);
},
{
closed = 1;
nodes = (
(207,541,o),
(207,336,q),
(207,131,o),
(220,35,q),
(273,30,o),
(330,16,q),
(327,-8,l),
(253,0,o),
(166.5,0,q),
(80,0,o),
(27,-8,q),
(23,17,l),
(68,31,o),
(119,38,q),
(130,120,o),
(130,296,q),
(130,355,l),
(130,517,o),
(117,613,q),
(66,620,o),
(21,634,q),
(25,659,l),
(78,651,o),
(164.5,651,q),
(251,651,o),
(325,659,q),
(328,635,l),
(271,621,o),
(218,616,q)
);
}
);
width = 692;
}
);
unicode = 306;
},
{
category = Letter;
glyphname = ij;
layers = (
{
layerId = "36f52ca2-ef18-4734-b79f-232be43107ca";
name = Fore;
shapes = (
{
closed = 1;
nodes = (
(192,434,o),
(192,267,q),
(192,100,o),
(201,33,q),
(246,28,o),
(284,18,q),
(281,-7,l),
(229,0,o),
(164.5,0,q),
(100,0,o),
(49,-8,q),
(45,18,l),
(73,27,o),
(108,33,q),
(117,105,o),
(117,237,q),
(117,284,l),
(117,416,o),
(107,488,q),
(72,494,o),
(44,503,q),
(48,529,l),
(99,521,o),
(163.5,521,q),
(228,521,o),
(280,528,q),
(283,503,l),
(245,493,o),
(200,488,q)
);
},
{
closed = 1;
nodes = (
(426,283,l),
(426,434,o),
(418,488,q),
(373,493,o),
(335,503,q),
(338,528,l),
(390,521,o),
(454.5,521,q),
(519,521,o),
(570,529,q),
(574,503,l),
(546,494,o),
(511,488,q),
(501,416,o),
(501,284,q),
(501,237,l),
(501,105,o),
(510,33,q),
(486,-20,o),
(440,-67,q),
(394,-114,o),
(338,-146,q),
(321,-127,l),
(380,-82,o),
(403,-22.5,q),
(426,37,o),
(426,123,q)
);
}
);
width = 605;
}
);
unicode = 307;
},
{
category = Letter;
glyphname = Jcircumflex;
layers = (
{
layerId = "36f52ca2-ef18-4734-b79f-232be43107ca";
name = Fore;
shapes = (
{
closed = 1;
nodes = (
(164,790,l),
(3,715,l),
(-7,734,l),
(85,792,o),
(154,885,q),
(174,885,l),
(243,792,o),
(335,734,q),
(325,715,l)
);
},
{
closed = 1;
nodes = (
(207,296,l),
(207,111,o),
(215,33,q),
(148,-102,o),
(-32,-181,q),
(-44,-160,l),
(51,-95,o),
(90.5,-25.5,q),
(130,44,o),
(130,154,q),
(130,355,l),
(130,506,o),
(121,596,q),
(3,596,o),
(-30,564,q),
(-37,550,o),
(-37,520,q),
(-37,490,o),
(-27,479,q),
(-28,472,l),
(-53,457,o),
(-78,430,q),
(-90,431,o),
(-97.5,440,q),
(-105,449,o),
(-105,461,q),
(-105,510,o),
(-46,578,q),
(13,646,o),
(64,664,q),
(72,664,o),
(136,657.5,q),
(200,651,o),
(236,651,q),
(272,651,o),
(304,657,q),
(308,632,l),
(269,617,o),
(219,605,q),
(207,497,o),
(207,355,q)
);
}
);
width = 337;
}
);
unicode = 308;
},
{
category = Letter;
glyphname = jcircumflex;
layers = (
{
layerId = "36f52ca2-ef18-4734-b79f-232be43107ca";
name = Fore;
shapes = (
{
closed = 1;
nodes = (
(117,283,l),
(117,434,o),
(109,488,q),
(64,493,o),
(26,503,q),
(29,528,l),
(81,521,o),
(145.5,521,q),
(210,521,o),
(261,529,q),
(265,503,l),
(237,494,o),
(202,488,q),
(192,416,o),
(192,284,q),
(192,237,l),
(192,105,o),
(201,33,q),
(177,-20,o),
(131,-67,q),
(85,-114,o),
(29,-146,q),
(12,-127,l),
(71,-82,o),
(94,-22.5,q),
(117,37,o),
(117,123,q)
);
},
{
closed = 1;
nodes = (
(14,554,l),
(1,571,l),
(85,642,o),
(138,739,q),
(158,739,l),
(211,642,o),
(295,571,q),
(282,554,l),
(148,644,l)
);
}
);
width = 296;
}
);
unicode = 309;
},
{
category = Letter;
glyphname = kcommaaccent;
layers = (
{
layerId = "36f52ca2-ef18-4734-b79f-232be43107ca";
name = Fore;
shapes = (
{
closed = 1;
nodes = (
(192,242,l),
(294,350,o),
(324.5,397.5,q),
(355,445,o),
(355,471.5,q),
(355,498,o),
(340,509,q),
(345,526,l),
(367,521,o),
(408.5,521,q),
(450,521,o),
(510,529,q),
(514,503,l),
(491,495,o),
(447,487,q),
(438,419,o),
(331,318,q),
(463,34,l),
(505,27,o),
(529,18,q),
(525,-8,l),
(488,0,o),
(428.5,0,q),
(369,0,o),
(345,-5,q),
(340,12,l),
(354,26,o),
(354,54,q),
(354,121,o),
(275,272,q),
(255,255,o),
(192,203,q),
(195,81,o),
(201,33,q),
(246,28,o),
(284,18,q),
(281,-7,l),
(229,0,o),
(164.5,0,q),
(100,0,o),
(49,-8,q),
(45,18,l),
(73,27,o),
(108,33,q),
(117,105,o),
(117,237,q),
(117,284,l),
(117,416,o),
(107,488,q),
(72,494,o),
(44,503,q),
(48,529,l),
(99,521,o),
(163.5,521,q),
(228,521,o),
(280,528,q),
(283,503,l),
(245,493,o),
(200,488,q),
(192,434,o),
(192,283,q)
);
},
{
closed = 1;
nodes = (
(334,-163,o),
(233,-215,q),
(223,-202,l),
(265,-171,o),
(271,-134,q),
(245,-110,o),
(231,-84,q),
(237,-72,o),
(254,-56.5,q),
(271,-41,o),
(285,-34,q),
(298,-42,o),
(315,-57.5,q),
(332,-73,o),
(339,-84,q)
);
}
);
width = 525;
}
);
unicode = 311;
},
{
category = Letter;
glyphname = kgreenlandic;
layers = (
{
layerId = "36f52ca2-ef18-4734-b79f-232be43107ca";
name = Fore;
shapes = (
{
closed = 1;
nodes = (
(225,0,o),
(166.5,0,q),
(108,0,o),
(49,-8,q),
(45,18,l),
(61,23,o),
(107,33,q),
(117,101,o),
(117,211,q),
(117,303,l),
(117,395,o),
(108,482,q),
(81,491,o),
(49,491,q),
(49,514,l),
(122,518,o),
(199,536,q),
(206,531,l),
(192,441,o),
(192,303,q),
(192,273,l),
(197,272,l),
(228,335,o),
(296.5,416.5,q),
(365,498,o),
(421,536,q),
(465,536,o),
(514,518,q),
(514,503,l),
(471,447,o),
(467,372,q),
(443,372,l),
(443,408,o),
(441,432,q),
(424,443,o),
(403,443,q),
(364,443,o),
(281,341,q),
(389,176,l),
(468,52,o),
(477,40,q),
(503,32,o),
(537,32,q),
(537,6,l),
(478,4,o),
(398,-15,q),
(389,-11,l),
(389,19,o),
(321,130,q),
(232,274,l),
(220,257,o),
(192,206,q),
(192,100,o),
(200,34,q),
(249,29,o),
(284,18,q),
(281,-7,l)
);
}
);
width = 530;
}
);
unicode = 312;
},
{
category = Letter;
glyphname = Ldotaccent;
layers = (
{
layerId = "36f52ca2-ef18-4734-b79f-232be43107ca";
name = Fore;
shapes = (
{
closed = 1;
nodes = (
(205,528,o),
(205,336.5,q),
(205,145,o),
(213,55,q),
(247,53,o),
(277,53,q),
(395,53,o),
(428,85,q),
(435,99,o),
(435,129,q),
(435,159,o),
(425,170,q),
(426,177,l),
(451,192,o),
(476,219,q),
(488,218,o),
(495.5,209,q),
(503,200,o),
(503,188,q),
(503,139,o),
(444,71,q),
(385,3,o),
(334,-15,q),
(248,-12,o),
(148,14,q),
(134,-4,o),
(125,-32,q),
(104,-26,l),
(125,75,o),
(128,305,q),
(128,355,l),
(128,530,o),
(117,613,q),
(66,620,o),
(21,634,q),
(25,659,l),
(78,651,o),
(164.5,651,q),
(251,651,o),
(325,659,q),
(328,635,l),
(268,621,o),
(218,616,q)
);
},
{
closed = 1;
nodes = (
(417,341,o),
(399.5,321,q),
(382,301,o),
(370,293,q),
(358,301,o),
(340.5,321,q),
(323,341,o),
(316,354,q),
(322,366,o),
(339,381.5,q),
(356,397,o),
(370,404,q),
(383,396,o),
(400,380.5,q),
(417,365,o),
(424,354,q)
);
}
);
width = 456;
}
);
unicode = 319;
},
{
category = Letter;
glyphname = ldot;
layers = (
{
layerId = "36f52ca2-ef18-4734-b79f-232be43107ca";
name = Fore;
shapes = (
{
closed = 1;
nodes = (
(344,0,o),
(232.5,0,q),
(121,0,o),
(46,-10,q),
(43,15,l),
(71,26,o),
(107,33,q),
(117,93,o),
(117,237,q),
(117,284,l),
(117,408,o),
(107,488,q),
(74,493,o),
(44,503,q),
(48,529,l),
(99,521,o),
(168,521,q),
(237,521,o),
(286,529,q),
(289,504,l),
(244,493,o),
(200,488,q),
(192,434,o),
(192,265.5,q),
(192,97,o),
(200,41,q),
(224,37,o),
(268,37,q),
(312,37,o),
(347,54,q),
(361,88,o),
(361,134,q),
(386,134,l),
(390,57,o),
(414,9,q),
(409,-11,l)
);
},
{
closed = 1;
nodes = (
(369,285,o),
(351.5,265,q),
(334,245,o),
(322,237,q),
(310,245,o),
(292.5,265,q),
(275,285,o),
(268,298,q),
(274,310,o),
(291,325.5,q),
(308,341,o),
(322,348,q),
(335,340,o),
(352,324.5,q),
(369,309,o),
(376,298,q)
);
}
);
width = 407;
}
);
unicode = 320;
},
{
category = Letter;
glyphname = Lslash;
layers = (
{
layerId = "36f52ca2-ef18-4734-b79f-232be43107ca";
name = Fore;
shapes = (
{
closed = 1;
nodes = (
(136,312,l),
(72,281,o),
(33,253,q),
(29,256,l),
(24,283,o),
(22,288,q),
(269,414,l),
(326,444,o),
(343,454,q),
(351,442,o),
(364,430,q),
(366,426,l)
);
},
{
closed = 1;
nodes = (
(205,528,o),
(205,336.5,q),
(205,145,o),
(213,55,q),
(247,53,o),
(277,53,q),
(395,53,o),
(428,85,q),
(435,99,o),
(435,129,q),
(435,159,o),
(425,170,q),
(426,177,l),
(451,192,o),
(476,219,q),
(488,218,o),
(495.5,209,q),
(503,200,o),
(503,188,q),
(503,139,o),
(444,71,q),
(385,3,o),
(334,-15,q),
(248,-12,o),
(148,14,q),
(134,-4,o),
(125,-32,q),
(104,-26,l),
(125,75,o),
(128,305,q),
(128,355,l),
(128,530,o),
(117,613,q),
(66,620,o),
(21,634,q),
(25,659,l),
(78,651,o),
(164.5,651,q),
(251,651,o),
(325,659,q),
(328,635,l),
(268,621,o),
(218,616,q)
);
}
);
width = 456;
}
);
unicode = 321;
},
{
category = Letter;
glyphname = lslash;
layers = (
{
layerId = "36f52ca2-ef18-4734-b79f-232be43107ca";
name = Fore;
shapes = (
{
closed = 1;
nodes = (
(344,0,o),
(232.5,0,q),
(121,0,o),
(46,-10,q),
(43,15,l),
(71,26,o),
(107,33,q),
(117,93,o),
(117,237,q),
(117,238,l),
(67,213,o),
(33,189,q),
(29,192,l),
(24,219,o),
(22,224,q),
(117,272,l),
(117,284,l),
(117,408,o),
(107,488,q),
(74,493,o),
(44,503,q),
(48,529,l),
(99,521,o),
(168,521,q),
(237,521,o),
(286,529,q),
(289,504,l),
(244,493,o),
(200,488,q),
(194,451,o),
(192,310,q),
(226,328,l),
(283,358,o),
(300,368,q),
(308,356,o),
(321,344,q),
(323,340,l),
(192,275,l),
(192,95,o),
(200,41,q),
(224,37,o),
(268,37,q),
(312,37,o),
(347,54,q),
(361,88,o),
(361,134,q),
(386,134,l),
(390,57,o),
(414,9,q),
(409,-11,l)
);
}
);
width = 407;
}
);
unicode = 322;
},
{
category = Letter;
glyphname = Nacute;
layers = (
{
layerId = "36f52ca2-ef18-4734-b79f-232be43107ca";
name = Fore;
shapes = (
{
closed = 1;
nodes = (
(348,722,l),
(340,742,l),
(422,778,o),
(497,868,q),
(519,866,o),
(539,859,q),
(544,850,o),
(549.5,828.5,q),
(555,807,o),
(554,797,q)
);
},
{
closed = 1;
nodes = (
(523,467,o),
(508,546.5,q),
(493,626,o),
(451,641,q),
(455,655,l),
(486,651,o),
(556,651,q),
(626,651,o),
(685,659,q),
(688,636,l),
(617,619,o),
(589,616,q),
(576,518,o),
(576,355,q),
(576,296,l),
(576,109,o),
(589,35,q),
(640,29,o),
(685,17,q),
(681,-8,l),
(628,0,o),
(574.5,0,q),
(521,0,o),
(488,-3,q),
(488,30,o),
(423,144,q),
(358,258,o),
(187,525,q),
(183,523,l),
(183,355,l),
(183,110,o),
(220,35,q),
(275,30,o),
(329,16,q),
(327,-8,l),
(253,0,o),
(166.5,0,q),
(80,0,o),
(27,-8,q),
(23,17,l),
(68,31,o),
(119,38,q),
(130,120,o),
(130,296,q),
(130,355,l),
(130,496,o),
(118,596,q),
(0,596,o),
(-33,564,q),
(-40,550,o),
(-40,520,q),
(-40,490,o),
(-30,479,q),
(-31,472,l),
(-56,457,o),
(-81,430,q),
(-93,431,o),
(-100.5,440,q),
(-108,449,o),
(-108,461,q),
(-108,510,o),
(-49,578,q),
(10,646,o),
(61,664,q),
(73,663,o),
(128.5,657,q),
(184,651,o),
(220,651,q),
(256,651,o),
(287,657,q),
(291,632,l),
(250,615,o),
(250,599,q),
(255,572,o),
(307,485.5,q),
(359,399,o),
(519,150,q),
(523,152,l),
(523,296,l)
);
}
);
width = 706;
}
);
unicode = 323;
},
{
category = Letter;
glyphname = nacute;
layers = (
{
layerId = "36f52ca2-ef18-4734-b79f-232be43107ca";
name = Fore;
shapes = (
{
closed = 1;
nodes = (
(232,0,o),
(167.5,0,q),
(103,0,o),
(52,-8,q),
(48,18,l),
(80,28,o),
(108,33,q),
(117,111,o),
(117,237,q),
(117,284,l),
(117,418,o),
(107,490,q),
(80,493,o),
(42,506,q),
(45,532,l),
(102,521,o),
(164.5,521,q),
(227,521,o),
(254,528,q),
(256,511,l),
(229,504,o),
(229,488,q),
(229,476,o),
(252.5,437.5,q),
(276,399,o),
(298,363,q),
(364,258,o),
(454,105,q),
(457,107,l),
(457,229,l),
(457,363,o),
(443,430.5,q),
(429,498,o),
(395,509,q),
(397,526,l),
(423,521,o),
(475,521,q),
(527,521,o),
(582,532,q),
(585,506,l),
(544,493,o),
(516,490,q),
(506,410,o),
(506,284,q),
(506,237,l),
(506,85,o),
(516,31,q),
(558,24,o),
(583,15,q),
(580,-11,l),
(530,0,o),
(486,0,q),
(442,0,o),
(418,-4,q),
(418,18,o),
(387.5,70,q),
(357,122,o),
(332,162,q),
(251,293,o),
(173,428,q),
(169,426,l),
(169,292,l),
(169,93,o),
(199,33,q),
(244,28,o),
(287,18,q),
(284,-7,l)
);
},
{
closed = 1;
nodes = (
(453,728,o),
(464.5,728,q),
(476,728,o),
(486,726,q),
(493,718,o),
(501.5,697.5,q),
(510,677,o),
(511,667,q),
(322,558,l),
(311,576,l),
(348,601,o),
(383.5,643,q),
(419,685,o),
(443,727,q)
);
}
);
width = 623;
}
);
unicode = 324;
},
{
category = Letter;
glyphname = OE;
layers = (
{
layerId = "36f52ca2-ef18-4734-b79f-232be43107ca";
name = Fore;
shapes = (
{
closed = 1;
nodes = (
(508,651,o),
(596,651,q),
(684,651,o),
(800,662,q),
(804,642,l),
(752,589,o),
(745,484,q),
(720,484,l),
(711,527,o),
(711,593,q),
(668,614,o),
(611,614,q),
(554,614,o),
(527,609,q),
(510,557,o),
(502,365,q),
(534,358,o),
(579,358,q),
(668,358,o),
(688,401,q),
(708,397,l),
(699,365,o),
(699,320.5,q),
(699,276,o),
(705,233,q),
(682,229,l),
(667,267,o),
(662,318,q),
(624,321,o),
(579.5,321,q),
(535,321,o),
(501,316,q),
(501,273,l),
(501,148,o),
(538,102,q),
(570,64,o),
(638.5,64,q),
(707,64,o),
(785,142,q),
(799,129,l),
(716,19,o),
(616,-15,q),
(492,-15,o),
(446,81,q),
(442,81,l),
(369,7,o),
(254,-15,q),
(155,2,o),
(98.5,73.5,q),
(42,145,o),
(42,246.5,q),
(42,348,o),
(87,439,q),
(132,530,o),
(213.5,590.5,q),
(295,651,o),
(394,662,q),
(418,662,o),
(463,656.5,q)
);
},
{
closed = 1;
nodes = (
(378,600,o),
(324.5,600,q),
(271,600,o),
(241,578,q),
(141,479,o),
(141,281,q),
(141,187,o),
(186.5,118.5,q),
(232,50,o),
(313,50,q),
(361,50,o),
(390,71,q),
(408,95,o),
(413.5,130.5,q),
(419,166,o),
(419,251.5,q),
(419,337,o),
(425,447.5,q),
(431,558,o),
(431,577,q)
);
}
);
width = 811;
}
);
unicode = 338;
},
{
category = Letter;
glyphname = oe;
layers = (
{
layerId = "36f52ca2-ef18-4734-b79f-232be43107ca";
name = Fore;
shapes = (
{
closed = 1;
nodes = (
(431,141,o),
(453.5,99.5,q),
(476,58,o),
(540,58,q),
(604,58,o),
(660,114,q),
(671,104,l),
(603,16,o),
(523,-12,q),
(418,-12,o),
(381,66,q),
(378,66,l),
(320,7,o),
(225,-12,q),
(144,2,o),
(93,60,q),
(42,118,o),
(42,199,q),
(42,322,o),
(128.5,421,q),
(215,520,o),
(337,533,q),
(356,533,o),
(393,528.5,q),
(430,524,o),
(505,524,q),
(580,524,o),
(672,533,q),
(677,513,l),
(637,471,o),
(632,391,q),
(607,391,l),
(600,424,o),
(600,471,q),
(565,488,o),
(517.5,488,q),
(470,488,o),
(452,484,q),
(439,450,o),
(431,298,q),
(466,291,o),
(500,291,q),
(560,291,o),
(578,326,q),
(599,323,l),
(590,293,o),
(590,264,q),
(590,235,o),
(597,193,q),
(573,189,l),
(562,219,o),
(557,251,q),
(517,255,o),
(495,255,q),
(473,255,o),
(431,250,q),
(431,220,l)
);
},
{
closed = 1;
nodes = (
(326,477,o),
(283,477,q),
(240,477,o),
(215,462,q),
(135,385,o),
(135,227,q),
(135,152,o),
(170.5,99.5,q),
(206,47,o),
(272,47,q),
(313,47,o),
(333,61,q),
(347,80,o),
(351.5,108.5,q),
(356,137,o),
(356,204.5,q),
(356,272,o),
(361,359,q),
(366,446,o),
(366,461,q)
);
}
);
width = 684;
}
);
unicode = 339;
},
{
category = Letter;
glyphname = Racute;
layers = (
{
layerId = "36f52ca2-ef18-4734-b79f-232be43107ca";
name = Fore;
shapes = (
{
closed = 1;
nodes = (
(281,722,l),
(273,742,l),
(355,778,o),
(430,868,q),
(452,866,o),
(472,859,q),
(477,850,o),
(482.5,828.5,q),
(488,807,o),
(487,797,q)
);
},
{
closed = 1;
nodes = (
(144,131,o),
(144,310.5,q),
(144,490,o),
(134,598,q),
(25,596,o),
(-6,566,q),
(-13,552,o),
(-13,522,q),
(-13,492,o),
(-3,481,q),
(-4,474,l),
(-29,459,o),
(-54,432,q),
(-66,433,o),
(-73.5,442,q),
(-81,451,o),
(-81,463,q),
(-81,509,o),
(-28.5,572,q),
(24,635,o),
(72,659,q),
(157,651,o),
(318,651,q),
(420,651,o),
(473,620.5,q),
(526,590,o),
(526,504,q),
(526,382,o),
(401,334,q),
(541,38,l),
(592,31,o),
(637,17,q),
(633,-8,l),
(574,0,o),
(505.5,0,q),
(437,0,o),
(406,-4,q),
(402,10,l),
(419,27,o),
(419,67,q),
(419,147,o),
(325,322,q),
(300,327,o),
(267,327,q),
(270,349,l),
(282,349,l),
(354,349,o),
(393,384.5,q),
(432,420,o),
(432,487.5,q),
(432,555,o),
(397,578,q),
(362,601,o),
(287,601,q),
(252,601,o),
(229,598,q),
(221,509,o),
(221,311,q),
(221,113,o),
(232,38,q),
(283,31,o),
(328,17,q),
(324,-8,l),
(271,0,o),
(184.5,0,q),
(98,0,o),
(24,-8,q),
(21,16,l),
(78,30,o),
(131,35,q)
);
}
);
width = 619;
}
);
unicode = 340;
},
{
category = Letter;
glyphname = Rcommaaccent;
layers = (
{
layerId = "36f52ca2-ef18-4734-b79f-232be43107ca";
name = Fore;
shapes = (
{
closed = 1;
nodes = (
(144,131,o),
(144,310.5,q),
(144,490,o),
(134,598,q),
(25,596,o),
(-6,566,q),
(-13,552,o),
(-13,522,q),
(-13,492,o),
(-3,481,q),
(-4,474,l),
(-29,459,o),
(-54,432,q),
(-66,433,o),
(-73.5,442,q),
(-81,451,o),
(-81,463,q),
(-81,509,o),
(-28.5,572,q),
(24,635,o),
(72,659,q),
(157,651,o),
(318,651,q),
(420,651,o),
(473,620.5,q),
(526,590,o),
(526,504,q),
(526,382,o),
(401,334,q),
(541,38,l),
(592,31,o),
(637,17,q),
(633,-8,l),
(574,0,o),
(505.5,0,q),
(437,0,o),
(406,-4,q),
(402,10,l),
(419,27,o),
(419,67,q),
(419,147,o),
(325,322,q),
(300,327,o),
(267,327,q),
(270,349,l),
(282,349,l),
(354,349,o),
(393,384.5,q),
(432,420,o),
(432,487.5,q),
(432,555,o),
(397,578,q),
(362,601,o),
(287,601,q),
(252,601,o),
(229,598,q),
(221,509,o),
(221,311,q),
(221,113,o),
(232,38,q),
(283,31,o),
(328,17,q),
(324,-8,l),
(271,0,o),
(184.5,0,q),
(98,0,o),
(24,-8,q),
(21,16,l),
(78,30,o),
(131,35,q)
);
},
{
closed = 1;
nodes = (
(377,-163,o),
(276,-215,q),
(266,-202,l),
(308,-171,o),
(314,-134,q),
(288,-110,o),
(274,-84,q),
(280,-72,o),
(297,-56.5,q),
(314,-41,o),
(328,-34,q),
(341,-42,o),
(358,-57.5,q),
(375,-73,o),
(382,-84,q)
);
}
);
width = 619;
}
);
unicode = 342;
},
{
category = Letter;
glyphname = rcommaaccent;
layers = (
{
layerId = "36f52ca2-ef18-4734-b79f-232be43107ca";
name = Fore;
shapes = (
{
closed = 1;
nodes = (
(273,526,l),
(363,526,o),
(408,499.5,q),
(453,473,o),
(453,403,q),
(453,355,o),
(423.5,318,q),
(394,281,o),
(346,263,q),
(458,34,l),
(492,28,o),
(522,20,q),
(518,-7,l),
(476,0,o),
(423.5,0,q),
(371,0,o),
(341,-5,q),
(337,11,l),
(350,24,o),
(350,54,q),
(350,115,o),
(280,250,q),
(259,254,o),
(231,254,q),
(233,283,l),
(243,283,l),
(361,283,o),
(361,391,q),
(361,491,o),
(260,491,q),
(226,491,o),
(199,480,q),
(192,414,o),
(192,254,q),
(192,94,o),
(201,33,q),
(245,28,o),
(283,18,q),
(280,-7,l),
(228,0,o),
(163.5,0,q),
(99,0,o),
(48,-8,q),
(44,18,l),
(72,27,o),
(107,33,q),
(117,108,o),
(117,266.5,q),
(117,425,o),
(108,486,q),
(69,499,o),
(43,499,q),
(43,519,l)
);
},
{
closed = 1;
nodes = (
(333,-163,o),
(232,-215,q),
(222,-202,l),
(264,-171,o),
(270,-134,q),
(244,-110,o),
(230,-84,q),
(236,-72,o),
(253,-56.5,q),
(270,-41,o),
(284,-34,q),
(297,-42,o),
(314,-57.5,q),
(331,-73,o),
(338,-84,q)
);
}
);
width = 526;
}
);
unicode = 343;
},
{
category = Letter;
glyphname = Rcaron;
layers = (
{
layerId = "36f52ca2-ef18-4734-b79f-232be43107ca";
name = Fore;
shapes = (
{
closed = 1;
nodes = (
(144,131,o),
(144,310.5,q),
(144,490,o),
(134,598,q),
(25,596,o),
(-6,566,q),
(-13,552,o),
(-13,522,q),
(-13,492,o),
(-3,481,q),
(-4,474,l),
(-29,459,o),
(-54,432,q),
(-66,433,o),
(-73.5,442,q),
(-81,451,o),
(-81,463,q),
(-81,509,o),
(-28.5,572,q),
(24,635,o),
(72,659,q),
(157,651,o),
(318,651,q),
(420,651,o),
(473,620.5,q),
(526,590,o),
(526,504,q),
(526,382,o),
(401,334,q),
(541,38,l),
(592,31,o),
(637,17,q),
(633,-8,l),
(574,0,o),
(505.5,0,q),
(437,0,o),
(406,-4,q),
(402,10,l),
(419,27,o),
(419,67,q),
(419,147,o),
(325,322,q),
(300,327,o),
(267,327,q),
(270,349,l),
(282,349,l),
(354,349,o),
(393,384.5,q),
(432,420,o),
(432,487.5,q),
(432,555,o),
(397,578,q),
(362,601,o),
(287,601,q),
(252,601,o),
(229,598,q),
(221,509,o),
(221,311,q),
(221,113,o),
(232,38,q),
(283,31,o),
(328,17,q),
(324,-8,l),
(271,0,o),
(184.5,0,q),
(98,0,o),
(24,-8,q),
(21,16,l),
(78,30,o),
(131,35,q)
);
},
{
closed = 1;
nodes = (
(379,885,l),
(389,866,l),
(297,808,o),
(228,715,q),
(208,715,l),
(139,808,o),
(47,866,q),
(57,885,l),
(218,810,l)
);
}
);
width = 619;
}
);
unicode = 344;
},
{
category = Letter;
glyphname = rcaron;
layers = (
{
layerId = "36f52ca2-ef18-4734-b79f-232be43107ca";
name = Fore;
shapes = (
{
closed = 1;
nodes = (
(273,526,l),
(363,526,o),
(408,499.5,q),
(453,473,o),
(453,403,q),
(453,355,o),
(423.5,318,q),
(394,281,o),
(346,263,q),
(458,34,l),
(492,28,o),
(522,20,q),
(518,-7,l),
(476,0,o),
(423.5,0,q),
(371,0,o),
(341,-5,q),
(337,11,l),
(350,24,o),
(350,54,q),
(350,115,o),
(280,250,q),
(259,254,o),
(231,254,q),
(233,283,l),
(243,283,l),
(361,283,o),
(361,391,q),
(361,491,o),
(260,491,q),
(226,491,o),
(199,480,q),
(192,414,o),
(192,254,q),
(192,94,o),
(201,33,q),
(245,28,o),
(283,18,q),
(280,-7,l),
(228,0,o),
(163.5,0,q),
(99,0,o),
(48,-8,q),
(44,18,l),
(72,27,o),
(107,33,q),
(117,108,o),
(117,266.5,q),
(117,425,o),
(108,486,q),
(69,499,o),
(43,499,q),
(43,519,l)
);
},
{
closed = 1;
nodes = (
(263,649,l),
(397,739,l),
(410,722,l),
(326,651,o),
(273,554,q),
(253,554,l),
(200,651,o),
(116,722,q),
(129,739,l)
);
}
);
width = 526;
}
);
unicode = 345;
},
{
category = Letter;
glyphname = Scaron;
layers = (
{
layerId = "36f52ca2-ef18-4734-b79f-232be43107ca";
name = Fore;
shapes = (
{
closed = 1;
nodes = (
(11,100,o),
(49.5,164,q),
(88,228,o),
(130,228,q),
(141,228,o),
(152,221,q),
(155,214,l),
(142,189,o),
(139,151,q),
(133,147,l),
(129,149,o),
(118,149,q),
(107,149,o),
(85.5,137,q),
(64,125,o),
(52,113,q),
(45,99,o),
(45,81,q),
(45,34,o),
(108.5,0.5,q),
(172,-33,o),
(231,-33,q),
(354,-33,o),
(354,107,q),
(354,160,o),
(253,240,q),
(211,274,o),
(169,308,q),
(68,388,o),
(68,447,q),
(68,517,o),
(131,577.5,q),
(194,638,o),
(274,666,q),
(360,666,o),
(437,649,q),
(437,629,l),
(385,581,o),
(379,481,q),
(354,481,l),
(354,534,o),
(349,574,q),
(306,594,o),
(255.5,594,q),
(205,594,o),
(170,572.5,q),
(135,551,o),
(135,518,q),
(135,485,o),
(164.5,451.5,q),
(194,418,o),
(236,386.5,q),
(278,355,o),
(319.5,322.5,q),
(361,290,o),
(390.5,252.5,q),
(420,215,o),
(420,180,q),
(420,80,o),
(365,2,q),
(310,-76,o),
(215,-115,q),
(90,-102,o),
(15,-45,q),
(11,-17,o),
(11,12,q)
);
},
{
closed = 1;
nodes = (
(434,885,l),
(444,866,l),
(352,808,o),
(283,715,q),
(263,715,l),
(194,808,o),
(102,866,q),
(112,885,l),
(273,810,l)
);
}
);
width = 465;
}
);
unicode = 352;
},
{
category = Letter;
glyphname = Ydieresis;
layers = (
{
layerId = "36f52ca2-ef18-4734-b79f-232be43107ca";
name = Fore;
shapes = (
{
closed = 1;
nodes = (
(234,271,l),
(64,635,l),
(25,719,o),
(-21,740,q),
(-39,740,o),
(-65,727,q),
(-91,714,o),
(-97,701,q),
(-103,699,l),
(-130,717,o),
(-163,727,q),
(-166,733,o),
(-166,743.5,q),
(-166,754,o),
(-149.5,763.5,q),
(-133,773,o),
(-103,773,q),
(-40,773,o),
(45.5,738,q),
(131,703,o),
(164,666,q),
(185,576,o),
(210.5,511.5,q),
(236,447,o),
(291,337,q),
(402,554,o),
(402,609,q),
(402,631,o),
(382,641,q),
(386,655,l),
(436,651,o),
(491.5,651,q),
(547,651,o),
(599,659,q),
(604,634,l),
(556,619,o),
(507,613,q),
(311,298,l),
(311,131,o),
(324,35,q),
(377,30,o),
(434,16,q),
(431,-8,l),
(357,0,o),
(270.5,0,q),
(184,0,o),
(131,-8,q),
(127,17,l),
(172,31,o),
(223,38,q),
(234,120,o),
(234,245,q)
);
},
{
closed = 1;
nodes = (
(257,790,o),
(239.5,770,q),
(222,750,o),
(210,742,q),
(198,750,o),
(180.5,770,q),
(163,790,o),
(156,803,q),
(162,815,o),
(179,830.5,q),
(196,846,o),
(210,853,q),
(223,845,o),
(240,829.5,q),
(257,814,o),
(264,803,q)
);
},
{
closed = 1;
nodes = (
(442,790,o),
(424.5,770,q),
(407,750,o),
(395,742,q),
(383,750,o),
(365.5,770,q),
(348,790,o),
(341,803,q),
(347,815,o),
(364,830.5,q),
(381,846,o),
(395,853,q),
(408,845,o),
(425,829.5,q),
(442,814,o),
(449,803,q)
);
}
);
width = 545;
}
);
unicode = 376;
},
{
category = Letter;
glyphname = Zcaron;
layers = (
{
layerId = "36f52ca2-ef18-4734-b79f-232be43107ca";
name = Fore;
shapes = (
{
closed = 1;
nodes = (
(59,611,o),
(59,545,q),
(59,532,o),
(62,522,q),
(60,514,l),
(27,505,o),
(0,487,q),
(-18,494,o),
(-18,515,q),
(-18,565,o),
(57.5,615,q),
(133,665,o),
(203,684,q),
(300,648,o),
(332.5,644.5,q),
(365,641,o),
(383,641,q),
(457,641,o),
(489,679,q),
(511,661,l),
(461,615,o),
(420,543,q),
(154,84,l),
(205,61,o),
(259.5,20,q),
(314,-21,o),
(350,-55,q),
(441,-141,o),
(485,-141,q),
(506,-141,o),
(520.5,-116,q),
(535,-91,o),
(535,-66,q),
(539,-59,l),
(572,-59,o),
(604,-49,q),
(616,-58,o),
(616,-71,q),
(616,-102,o),
(564,-132,q),
(512,-162,o),
(452,-177.5,q),
(392,-193,o),
(355,-193,q),
(262,-89,o),
(201.5,-41.5,q),
(141,6,o),
(84.5,6,q),
(28,6,o),
(-15,-35,q),
(-37,-17,l),
(21,37,o),
(86,143,q),
(359,593,l),
(343,585,o),
(325,580,q),
(182,611,o),
(123,611,q)
);
},
{
closed = 1;
nodes = (
(443,885,l),
(453,866,l),
(361,808,o),
(292,715,q),
(272,715,l),
(203,808,o),
(111,866,q),
(121,885,l),
(282,810,l)
);
}
);
width = 459;
}
);
unicode = 381;
},
{
category = Letter;
glyphname = dotlessj;
layers = (
{
layerId = "36f52ca2-ef18-4734-b79f-232be43107ca";
name = Fore;
shapes = (
{
closed = 1;
nodes = (
(117,283,l),
(117,434,o),
(109,488,q),
(64,493,o),
(26,503,q),
(29,528,l),
(81,521,o),
(145.5,521,q),
(210,521,o),
(261,529,q),
(265,503,l),
(237,494,o),
(202,488,q),
(192,416,o),
(192,284,q),
(192,237,l),
(192,105,o),
(201,33,q),
(177,-20,o),
(131,-67,q),
(85,-114,o),
(29,-146,q),
(12,-127,l),
(71,-82,o),
(94,-22.5,q),
(117,37,o),
(117,123,q)
);
}
);
width = 296;
}
);
unicode = 567;
},
{
category = Letter;
glyphname = circumflex;
layers = (
{
layerId = "36f52ca2-ef18-4734-b79f-232be43107ca";
name = Fore;
shapes = (
{
closed = 1;
nodes = (
(13,554,l),
(0,571,l),
(84,642,o),
(137,739,q),
(157,739,l),
(210,642,o),
(294,571,q),
(281,554,l),
(147,644,l)
);
}
);
width = 294;
}
);
unicode = 710;
},
{
category = Letter;
glyphname = caron;
layers = (
{
layerId = "36f52ca2-ef18-4734-b79f-232be43107ca";
name = Fore;
shapes = (
{
closed = 1;
nodes = (
(147,649,l),
(281,739,l),
(294,722,l),
(210,651,o),
(157,554,q),
(137,554,l),
(84,651,o),
(0,722,q),
(13,739,l)
);
}
);
width = 294;
}
);
unicode = 711;
},
